SplineFontDB: 3.2
FontName: LogicPenguin-Math
FullName: LogicPenguin
FamilyName: LogicPengin
Weight: Regular
Copyright: Copyright 2022. Kevin C Klement
Version: 0.001
ItalicAngle: -8
UnderlinePosition: -100
UnderlineWidth: 50
Ascent: 800
Descent: 200
InvalidEm: 0
sfntRevision: 0x00000007
LayerCount: 2
Layer: 0 0 "Back" 1
Layer: 1 0 "Fore" 0
XUID: [1021 1005 270651325 14656810]
StyleMap: 0x0040
FSType: 0
OS2Version: 4
OS2_WeightWidthSlopeOnly: 0
OS2_UseTypoMetrics: 1
CreationTime: 1521550179
ModificationTime: 1690919044
PfmFamily: 49
TTFWeight: 400
TTFWidth: 5
LineGap: 0
VLineGap: 0
Panose: 2 11 5 3 5 0 0 2 0 4
OS2TypoAscent: 935
OS2TypoAOffset: 0
OS2TypoDescent: -265
OS2TypoDOffset: 0
OS2TypoLinegap: 0
OS2WinAscent: 935
OS2WinAOffset: 0
OS2WinDescent: 265
OS2WinDOffset: 0
HheadAscent: 935
HheadAOffset: 0
HheadDescent: -265
HheadDOffset: 0
OS2SubXSize: 650
OS2SubYSize: 600
OS2SubXOff: -11
OS2SubYOff: 75
OS2SupXSize: 650
OS2SupYSize: 600
OS2SupXOff: 49
OS2SupYOff: 350
OS2StrikeYSize: 50
OS2StrikeYPos: 316
OS2CapHeight: 689
OS2XHeight: 527
OS2Vendor: 'bB  '
OS2CodePages: 2000019f.00000000
OS2UnicodeRanges: 00000000.00000000.02000000.00000000
Lookup: 1 0 0 "'aalt' Access All Alternates lookup 0" { "'aalt' Access All Alternates lookup 0 subtable"  } ['aalt' ('DFLT' <'dflt' > 'cyrl' <'dflt' > 'grek' <'dflt' > 'latn' <'AFK ' 'CAT ' 'EWE ' 'HUN ' 'MOL ' 'PLK ' 'ROM ' 'TRK ' 'dflt' > ) ]
Lookup: 3 0 0 "'aalt' Access All Alternates lookup 1" { "'aalt' Access All Alternates lookup 1 subtable"  } ['aalt' ('DFLT' <'dflt' > 'cyrl' <'dflt' > 'grek' <'dflt' > 'latn' <'AFK ' 'CAT ' 'EWE ' 'HUN ' 'MOL ' 'PLK ' 'ROM ' 'TRK ' 'dflt' > ) ]
Lookup: 2 0 0 "'ccmp' Glyph Composition/Decomposition in Latin lookup 2" { "'ccmp' Glyph Composition/Decomposition in Latin lookup 2 subtable"  } ['ccmp' ('latn' <'dflt' > ) ]

StartChar: .notdef
Encoding: 1114112 -1 0
Width: 680
GlyphClass: 1
Flags: MW
HStem: 0 55<135 545 135 600> 120 83<313.5 337> 502 45<326 359.5> 645 55<135 545 135 135>
VStem: 80 55<55 55 55 645> 283 84<150.5 173.5> 296 55<265 292 265 295 265 345.5> 402 57<417.5 466.5> 545 55<55 645 645 645>
LayerCount: 2
Fore
SplineSet
283 162 m 0xfd80
 283 185 302 203 325 203 c 0
 349 203 367 185 367 162 c 0
 367 139 349 120 325 120 c 0
 302 120 283 139 283 162 c 0xfd80
220 488 m 1
 254 528 295 547 345 547 c 0
 421 547 459 502 459 454 c 0
 459 358 351 371 351 292 c 2
 351 265 l 1
 296 265 l 1
 296 295 l 2xfb80
 296 396 402 385 402 450 c 0
 402 483 378 502 341 502 c 0
 311 502 283 489 258 459 c 1
 220 488 l 1
135 55 m 1
 545 55 l 1
 545 645 l 1
 135 645 l 1
 135 55 l 1
80 0 m 1
 80 700 l 1
 600 700 l 1
 600 0 l 1
 80 0 l 1
EndSplineSet
Validated: 1
EndChar

StartChar: A
Encoding: 65 65 1
Width: 567
GlyphClass: 2
Flags: MW
HStem: 0 21G<-32 65 -32 -32 427 524 427 427> 173 77<174 388 174 400 141 388> 610 79<332 332> 669 20G<284 403 403 403>
VStem: -32 556<0 0>
AnchorPoint: "Anchor-18" 0 0 basechar 0
AnchorPoint: "Anchor-17" 0 0 basechar 0
AnchorPoint: "Anchor-16" 344 689 basechar 0
AnchorPoint: "Anchor-15" 495 0 basechar 0
AnchorPoint: "Anchor-14" 246 0 basechar 0
LayerCount: 2
Fore
SplineSet
427 0 m 1xd8
 400 173 l 1
 141 173 l 1
 65 0 l 1
 -32 0 l 1
 284 689 l 1
 403 689 l 1
 524 0 l 1
 427 0 l 1xd8
174 250 m 1
 388 250 l 1
 332 610 l 1xe8
 174 250 l 1
EndSplineSet
Validated: 1
Substitution2: "Single Substitution lookup 51 subtable" ordfeminine
Substitution2: "'c2sc' Capitals to Small Capitals lookup 36 subtable" a.sc
AlternateSubs2: "'aalt' Access All Alternates lookup 1 subtable" ordfeminine a.sc
Position2: "'cpsp' Capital Spacing lookup 0 subtable" dx=5 dy=0 dh=10 dv=0
EndChar

StartChar: Aacute
Encoding: 193 193 2
Width: 567
GlyphClass: 2
Flags: MW
HStem: 0 21G<-32 65 -32 -32 427 524 427 427> 173 77<174 388 174 400 141 388> 610 79<332 332> 669 20G<284 403 403 403>
VStem: -32 556<0 0>
AnchorPoint: "Anchor-18" 0 0 basechar 0
AnchorPoint: "Anchor-17" 0 0 basechar 0
AnchorPoint: "Anchor-16" 366 911 basechar 0
AnchorPoint: "Anchor-15" 495 0 basechar 0
AnchorPoint: "Anchor-14" 246 0 basechar 0
LayerCount: 2
Fore
SplineSet
481 831 m 1xd8
 261 755 l 1
 242 804 l 1
 451 908 l 1
 481 831 l 1xd8
427 0 m 1
 400 173 l 1
 141 173 l 1
 65 0 l 1
 -32 0 l 1
 284 689 l 1
 403 689 l 1
 524 0 l 1
 427 0 l 1
174 250 m 1
 388 250 l 1
 332 610 l 1xe8
 174 250 l 1
EndSplineSet
Validated: 1
Substitution2: "'c2sc' Capitals to Small Capitals lookup 36 subtable" aacute.sc
Substitution2: "'locl' Localized Forms in Latin lookup 8 subtable" Aacute.loclHUN
AlternateSubs2: "'aalt' Access All Alternates lookup 1 subtable" Aacute.loclHUN aacute.sc
Position2: "'cpsp' Capital Spacing lookup 0 subtable" dx=5 dy=0 dh=10 dv=0
EndChar

StartChar: Abreve
Encoding: 258 258 3
Width: 567
GlyphClass: 2
Flags: MW
HStem: 0 21G<-32 65 -32 -32 427 524 427 427> 173 77<174 388 174 400 141 388> 610 79<332 332> 669 20G<284 403 403 403> 758 70<333.5 380 333.5 393>
VStem: -32 556<0 0>
AnchorPoint: "Anchor-18" 0 0 basechar 0
AnchorPoint: "Anchor-17" 0 0 basechar 0
AnchorPoint: "Anchor-16" 371 896 basechar 0
AnchorPoint: "Anchor-15" 495 0 basechar 0
AnchorPoint: "Anchor-14" 246 0 basechar 0
LayerCount: 2
Fore
SplineSet
354 758 m 0xdc
 273 758 218 810 220 884 c 1
 279 892 l 1
 288 852 311 828 356 828 c 0
 404 828 440 856 459 896 c 1
 519 878 l 1
 501 804 432 758 354 758 c 0xdc
427 0 m 1
 400 173 l 1
 141 173 l 1
 65 0 l 1
 -32 0 l 1
 284 689 l 1
 403 689 l 1
 524 0 l 1
 427 0 l 1
174 250 m 1
 388 250 l 1
 332 610 l 1xec
 174 250 l 1
EndSplineSet
Validated: 33
Substitution2: "'c2sc' Capitals to Small Capitals lookup 36 subtable" abreve.sc
Substitution2: "'aalt' Access All Alternates lookup 0 subtable" abreve.sc
Position2: "'cpsp' Capital Spacing lookup 0 subtable" dx=5 dy=0 dh=10 dv=0
EndChar

StartChar: uni1EAE
Encoding: 7854 7854 4
Width: 567
GlyphClass: 2
Flags: MW
HStem: 0 21G<-32 65 -32 -32 427 524 427 427> 173 77<174 388 174 400 141 388> 610 79<332 332> 669 20G<284 403 403 403> 740 70<332.5 379 332.5 392>
VStem: -32 556<0 0>
AnchorPoint: "Anchor-18" 0 0 basechar 0
AnchorPoint: "Anchor-17" 0 0 basechar 0
AnchorPoint: "Anchor-16" 370 878 basechar 0
AnchorPoint: "Anchor-15" 495 0 basechar 0
AnchorPoint: "Anchor-14" 246 0 basechar 0
LayerCount: 2
Fore
SplineSet
511 1000 m 1xdc
 361 874 l 1
 325 909 l 1
 460 1054 l 1
 511 1000 l 1xdc
353 740 m 0
 272 740 217 792 219 866 c 1
 278 874 l 1
 287 834 310 810 355 810 c 0
 403 810 439 838 458 878 c 1
 518 860 l 1
 500 786 431 740 353 740 c 0
427 0 m 1
 400 173 l 1
 141 173 l 1
 65 0 l 1
 -32 0 l 1
 284 689 l 1
 403 689 l 1
 524 0 l 1
 427 0 l 1
174 250 m 1
 388 250 l 1
 332 610 l 1xec
 174 250 l 1
EndSplineSet
Validated: 33
Substitution2: "'c2sc' Capitals to Small Capitals lookup 36 subtable" uni1EAF.sc
Substitution2: "'aalt' Access All Alternates lookup 0 subtable" uni1EAF.sc
Position2: "'cpsp' Capital Spacing lookup 0 subtable" dx=5 dy=0 dh=10 dv=0
EndChar

StartChar: uni1EB6
Encoding: 7862 7862 5
Width: 567
GlyphClass: 2
Flags: MW
HStem: -199 125<213.5 242.5> 0 21G<-32 65 -32 -32 427 524 427 427> 173 77<174 388 174 400 141 388> 610 79<332 332> 669 20G<284 403 403 403> 758 70<333.5 380 333.5 393>
VStem: 164 128<-150.5 -122.5>
AnchorPoint: "Anchor-18" 0 0 basechar 0
AnchorPoint: "Anchor-17" 0 0 basechar 0
AnchorPoint: "Anchor-16" 371 896 basechar 0
AnchorPoint: "Anchor-15" 495 0 basechar 0
AnchorPoint: "Anchor-14" 226 -199 basechar 0
LayerCount: 2
Fore
SplineSet
354 758 m 0x6e
 273 758 218 810 220 884 c 1
 279 892 l 1
 288 852 311 828 356 828 c 0
 404 828 440 856 459 896 c 1
 519 878 l 1
 501 804 432 758 354 758 c 0x6e
524 0 m 1
 427 0 l 1
 400 173 l 1
 141 173 l 1
 65 0 l 1
 -32 0 l 1
 284 689 l 1
 403 689 l 1
 524 0 l 1
174 250 m 1
 388 250 l 1
 332 610 l 1xf6
 174 250 l 1
233 -74 m 0
 269 -74 292 -99 292 -131 c 0
 292 -170 262 -199 223 -199 c 0
 187 -199 164 -174 164 -142 c 0
 164 -103 194 -74 233 -74 c 0
EndSplineSet
Validated: 33
Substitution2: "'c2sc' Capitals to Small Capitals lookup 36 subtable" uni1EB7.sc
Substitution2: "'aalt' Access All Alternates lookup 0 subtable" uni1EB7.sc
Position2: "'cpsp' Capital Spacing lookup 0 subtable" dx=5 dy=0 dh=10 dv=0
EndChar

StartChar: uni1EB0
Encoding: 7856 7856 6
Width: 567
GlyphClass: 2
Flags: MW
HStem: 0 21G<-32 65 -32 -32 427 524 427 427> 173 77<174 388 174 400 141 388> 610 79<332 332> 669 20G<284 403 403 403> 740 70<329.5 376 329.5 389>
VStem: -32 556<0 0>
AnchorPoint: "Anchor-18" 0 0 basechar 0
AnchorPoint: "Anchor-17" 0 0 basechar 0
AnchorPoint: "Anchor-16" 367 878 basechar 0
AnchorPoint: "Anchor-15" 495 0 basechar 0
AnchorPoint: "Anchor-14" 246 0 basechar 0
LayerCount: 2
Fore
SplineSet
397 905 m 1xdc
 359 874 l 1
 241 1001 l 1
 300 1052 l 1
 397 905 l 1xdc
350 740 m 0
 269 740 214 792 216 866 c 1
 275 874 l 1
 284 834 307 810 352 810 c 0
 400 810 436 838 455 878 c 1
 515 860 l 1
 497 786 428 740 350 740 c 0
427 0 m 1
 400 173 l 1
 141 173 l 1
 65 0 l 1
 -32 0 l 1
 284 689 l 1
 403 689 l 1
 524 0 l 1
 427 0 l 1
174 250 m 1
 388 250 l 1
 332 610 l 1xec
 174 250 l 1
EndSplineSet
Validated: 33
Substitution2: "'c2sc' Capitals to Small Capitals lookup 36 subtable" uni1EB1.sc
Substitution2: "'aalt' Access All Alternates lookup 0 subtable" uni1EB1.sc
Position2: "'cpsp' Capital Spacing lookup 0 subtable" dx=5 dy=0 dh=10 dv=0
EndChar

StartChar: uni1EB2
Encoding: 7858 7858 7
Width: 567
GlyphClass: 2
Flags: MW
HStem: 0 21G<-32 65 -32 -32 427 524 427 427> 173 77<174 388 174 400 141 388> 610 79<332 332> 669 20G<284 403 403 403> 740 70<332.5 379 332.5 392> 857 84<337 337 337 396 328 337> 1020 62<377.5 392>
VStem: 332.5 67 417 78<974 1001.5>
AnchorPoint: "Anchor-18" 0 0 basechar 0
AnchorPoint: "Anchor-17" 0 0 basechar 0
AnchorPoint: "Anchor-16" 397 1082 basechar 0
AnchorPoint: "Anchor-15" 495 0 basechar 0
AnchorPoint: "Anchor-14" 246 0 basechar 0
LayerCount: 2
Fore
SplineSet
381 1020 m 0xde80
 358 1020 339 1014 321 1004 c 1
 303 1059 l 1
 329 1073 358 1082 397 1082 c 0
 460 1082 495 1046 495 995 c 0xde80
 495 939 459 914 403 905 c 1
 396 857 l 1
 328 857 l 1xdf80
 337 941 l 1
 380 947 417 956 417 992 c 0
 417 1011 403 1020 381 1020 c 0xde80
353 740 m 0
 272 740 217 792 219 866 c 1
 278 874 l 1
 287 834 310 810 355 810 c 0
 403 810 439 838 458 878 c 1
 518 860 l 1
 500 786 431 740 353 740 c 0
427 0 m 1
 400 173 l 1
 141 173 l 1
 65 0 l 1
 -32 0 l 1
 284 689 l 1
 403 689 l 1
 524 0 l 1
 427 0 l 1
174 250 m 1
 388 250 l 1
 332 610 l 1xee80
 174 250 l 1
EndSplineSet
Validated: 33
Substitution2: "'c2sc' Capitals to Small Capitals lookup 36 subtable" uni1EB3.sc
Substitution2: "'aalt' Access All Alternates lookup 0 subtable" uni1EB3.sc
Position2: "'cpsp' Capital Spacing lookup 0 subtable" dx=5 dy=0 dh=10 dv=0
EndChar

StartChar: uni1EB4
Encoding: 7860 7860 8
Width: 567
GlyphClass: 2
Flags: MW
HStem: 0 21G<-32 65 -32 -32 427 524 427 427> 173 77<174 388 174 400 141 388> 610 79<332 332> 669 20G<284 403 403 403> 740 70<336.5 383 336.5 396> 907 70<420 447 420 457.5> 955 70<314.5 342.5>
VStem: -32 583
AnchorPoint: "Anchor-18" 0 0 basechar 0
AnchorPoint: "Anchor-17" 0 0 basechar 0
AnchorPoint: "Anchor-16" 384 1025 basechar 0
AnchorPoint: "Anchor-15" 495 0 basechar 0
AnchorPoint: "Anchor-14" 246 0 basechar 0
LayerCount: 2
Fore
SplineSet
327 955 m 0xdb
 302 955 284 937 264 907 c 1
 212 939 l 1
 242 988 281 1025 329 1025 c 0xdb
 386 1025 404 977 436 977 c 0
 458 977 476 993 497 1023 c 1
 551 991 l 1
 517 934 477 907 438 907 c 0xdd
 379 907 358 955 327 955 c 0xdb
359 810 m 0
 407 810 443 838 462 878 c 1
 522 860 l 1
 504 786 435 740 357 740 c 0
 276 740 221 792 223 866 c 1
 282 874 l 1
 291 834 314 810 359 810 c 0
284 689 m 1
 403 689 l 1
 524 0 l 1
 427 0 l 1
 400 173 l 1
 141 173 l 1
 65 0 l 1
 -32 0 l 1
 284 689 l 1
174 250 m 1
 388 250 l 1
 332 610 l 1xeb
 174 250 l 1
EndSplineSet
Validated: 33
Substitution2: "'c2sc' Capitals to Small Capitals lookup 36 subtable" uni1EB5.sc
Substitution2: "'aalt' Access All Alternates lookup 0 subtable" uni1EB5.sc
Position2: "'cpsp' Capital Spacing lookup 0 subtable" dx=5 dy=0 dh=10 dv=0
EndChar

StartChar: Acircumflex
Encoding: 194 194 9
Width: 567
GlyphClass: 2
Flags: MW
HStem: 0 21G<-32 65 -32 -32 427 524 427 427> 173 77<174 388 174 400 141 388> 610 79<332 332> 669 20G<284 403 403 403>
VStem: -32 556<0 0>
AnchorPoint: "Anchor-18" 0 0 basechar 0
AnchorPoint: "Anchor-17" 471 786 basechar 0
AnchorPoint: "Anchor-16" 371 914 basechar 0
AnchorPoint: "Anchor-15" 495 0 basechar 0
AnchorPoint: "Anchor-14" 246 0 basechar 0
LayerCount: 2
Fore
SplineSet
364 840 m 1xd8
 229 759 l 1
 192 804 l 1
 341 914 l 1
 401 914 l 1
 520 804 l 1
 479 759 l 1
 364 840 l 1xd8
427 0 m 1
 400 173 l 1
 141 173 l 1
 65 0 l 1
 -32 0 l 1
 284 689 l 1
 403 689 l 1
 524 0 l 1
 427 0 l 1
174 250 m 1
 388 250 l 1
 332 610 l 1xe8
 174 250 l 1
EndSplineSet
Validated: 1
Substitution2: "'c2sc' Capitals to Small Capitals lookup 36 subtable" acircumflex.sc
Substitution2: "'aalt' Access All Alternates lookup 0 subtable" acircumflex.sc
Position2: "'cpsp' Capital Spacing lookup 0 subtable" dx=5 dy=0 dh=10 dv=0
EndChar

StartChar: uni1EA4
Encoding: 7844 7844 10
Width: 567
GlyphClass: 2
Flags: MW
HStem: 0 21G<-32 65 -32 -32 427 524 427 427> 173 77<174 388 174 400 141 388> 610 79<332 332> 669 20G<284 403 403 403>
VStem: -32 670
AnchorPoint: "Anchor-18" 0 0 basechar 0
AnchorPoint: "Anchor-17" 465 743 basechar 0
AnchorPoint: "Anchor-16" 365 871 basechar 0
AnchorPoint: "Anchor-15" 495 0 basechar 0
AnchorPoint: "Anchor-14" 246 0 basechar 0
LayerCount: 2
Fore
SplineSet
638 965 m 1xd8
 488 839 l 1
 452 874 l 1
 587 1019 l 1
 638 965 l 1xd8
358 797 m 1
 223 716 l 1
 186 761 l 1
 335 871 l 1
 395 871 l 1
 514 761 l 1
 473 716 l 1
 358 797 l 1
284 689 m 1
 403 689 l 1
 524 0 l 1
 427 0 l 1
 400 173 l 1
 141 173 l 1
 65 0 l 1
 -32 0 l 1
 284 689 l 1
174 250 m 1
 388 250 l 1
 332 610 l 1xe8
 174 250 l 1
EndSplineSet
Validated: 1
Substitution2: "'c2sc' Capitals to Small Capitals lookup 36 subtable" uni1EA5.sc
Substitution2: "'aalt' Access All Alternates lookup 0 subtable" uni1EA5.sc
Position2: "'cpsp' Capital Spacing lookup 0 subtable" dx=5 dy=0 dh=10 dv=0
EndChar

StartChar: uni1EAC
Encoding: 7852 7852 11
Width: 567
GlyphClass: 2
Flags: MW
HStem: -199 125<213.5 242.5> 0 21G<-32 65 -32 -32 427 524 427 427> 173 77<174 388 174 400 141 388> 610 79<332 332> 669 20G<284 403 403 403>
VStem: 164 128<-150.5 -122.5>
AnchorPoint: "Anchor-18" 0 0 basechar 0
AnchorPoint: "Anchor-17" 471 786 basechar 0
AnchorPoint: "Anchor-16" 371 914 basechar 0
AnchorPoint: "Anchor-15" 495 0 basechar 0
AnchorPoint: "Anchor-14" 226 -199 basechar 0
LayerCount: 2
Fore
SplineSet
364 840 m 1xec
 229 759 l 1
 192 804 l 1
 341 914 l 1
 401 914 l 1
 520 804 l 1
 479 759 l 1
 364 840 l 1xec
524 0 m 1
 427 0 l 1
 400 173 l 1
 141 173 l 1
 65 0 l 1
 -32 0 l 1
 284 689 l 1
 403 689 l 1
 524 0 l 1
174 250 m 1
 388 250 l 1
 332 610 l 1xf4
 174 250 l 1
233 -74 m 0
 269 -74 292 -99 292 -131 c 0
 292 -170 262 -199 223 -199 c 0
 187 -199 164 -174 164 -142 c 0
 164 -103 194 -74 233 -74 c 0
EndSplineSet
Validated: 1
Substitution2: "'c2sc' Capitals to Small Capitals lookup 36 subtable" uni1EAD.sc
Substitution2: "'aalt' Access All Alternates lookup 0 subtable" uni1EAD.sc
Position2: "'cpsp' Capital Spacing lookup 0 subtable" dx=5 dy=0 dh=10 dv=0
EndChar

StartChar: uni1EA6
Encoding: 7846 7846 12
Width: 567
GlyphClass: 2
Flags: MW
HStem: 0 21G<-32 65 -32 -32 427 524 427 427> 173 77<174 388 174 400 141 388> 610 79<332 332> 669 20G<284 403 403 403>
VStem: -32 556<0 0>
AnchorPoint: "Anchor-18" 0 0 basechar 0
AnchorPoint: "Anchor-17" 462 743 basechar 0
AnchorPoint: "Anchor-16" 362 871 basechar 0
AnchorPoint: "Anchor-15" 495 0 basechar 0
AnchorPoint: "Anchor-14" 246 0 basechar 0
LayerCount: 2
Fore
SplineSet
268 870 m 1xd8
 230 839 l 1
 112 966 l 1
 171 1017 l 1
 268 870 l 1xd8
220 716 m 1
 183 761 l 1
 332 871 l 1
 392 871 l 1
 511 761 l 1
 470 716 l 1
 355 797 l 1
 220 716 l 1
427 0 m 1
 400 173 l 1
 141 173 l 1
 65 0 l 1
 -32 0 l 1
 284 689 l 1
 403 689 l 1
 524 0 l 1
 427 0 l 1
174 250 m 1
 388 250 l 1
 332 610 l 1xe8
 174 250 l 1
EndSplineSet
Validated: 1
Substitution2: "'c2sc' Capitals to Small Capitals lookup 36 subtable" uni1EA7.sc
Substitution2: "'aalt' Access All Alternates lookup 0 subtable" uni1EA7.sc
Position2: "'cpsp' Capital Spacing lookup 0 subtable" dx=5 dy=0 dh=10 dv=0
EndChar

StartChar: uni1EA8
Encoding: 7848 7848 13
Width: 567
GlyphClass: 2
Flags: MW
HStem: 0 21G<-32 65 -32 -32 427 524 427 427> 173 77<174 388 174 400 141 388> 610 79<332 332> 669 20G<284 403 403 403> 817 54 980 62<519.5 534>
VStem: 474.5 67 559 78<934 961.5>
AnchorPoint: "Anchor-18" 0 0 basechar 0
AnchorPoint: "Anchor-17" 463 743 basechar 0
AnchorPoint: "Anchor-16" 539 1042 basechar 0
AnchorPoint: "Anchor-15" 495 0 basechar 0
AnchorPoint: "Anchor-14" 246 0 basechar 0
LayerCount: 2
Fore
SplineSet
539 1042 m 0xdd
 602 1042 637 1006 637 955 c 0xdd
 637 899 601 874 545 865 c 1
 538 817 l 1
 470 817 l 1xdf
 479 901 l 1
 522 907 559 916 559 952 c 0
 559 971 545 980 523 980 c 0
 500 980 481 974 463 964 c 1
 445 1019 l 1
 471 1033 500 1042 539 1042 c 0xdd
356 797 m 1
 221 716 l 1
 184 761 l 1
 333 871 l 1
 393 871 l 1
 512 761 l 1
 471 716 l 1
 356 797 l 1
284 689 m 1
 403 689 l 1
 524 0 l 1
 427 0 l 1
 400 173 l 1
 141 173 l 1
 65 0 l 1
 -32 0 l 1
 284 689 l 1
174 250 m 1
 388 250 l 1
 332 610 l 1xed
 174 250 l 1
EndSplineSet
Validated: 1
Substitution2: "'c2sc' Capitals to Small Capitals lookup 36 subtable" uni1EA9.sc
Substitution2: "'aalt' Access All Alternates lookup 0 subtable" uni1EA9.sc
Position2: "'cpsp' Capital Spacing lookup 0 subtable" dx=5 dy=0 dh=10 dv=0
EndChar

StartChar: uni1EAA
Encoding: 7850 7850 14
Width: 567
GlyphClass: 2
Flags: MW
HStem: 0 21G<-32 65 -32 -32 427 524 427 427> 173 77<174 388 174 400 141 388> 610 79<332 332> 669 20G<284 403 403 403> 900 70<419 446 419 456.5> 948 70<313.5 341.5>
VStem: -32 582
AnchorPoint: "Anchor-18" 0 0 basechar 0
AnchorPoint: "Anchor-17" 463 743 basechar 0
AnchorPoint: "Anchor-16" 383 1018 basechar 0
AnchorPoint: "Anchor-15" 495 0 basechar 0
AnchorPoint: "Anchor-14" 246 0 basechar 0
LayerCount: 2
Fore
SplineSet
326 948 m 0xd6
 301 948 283 930 263 900 c 1
 211 932 l 1
 241 981 280 1018 328 1018 c 0xd6
 385 1018 403 970 435 970 c 0
 457 970 475 986 496 1016 c 1
 550 984 l 1
 516 927 476 900 437 900 c 0xda
 378 900 357 948 326 948 c 0xd6
356 797 m 1
 221 716 l 1
 184 761 l 1
 333 871 l 1
 393 871 l 1
 512 761 l 1
 471 716 l 1
 356 797 l 1
284 689 m 1
 403 689 l 1
 524 0 l 1
 427 0 l 1
 400 173 l 1
 141 173 l 1
 65 0 l 1
 -32 0 l 1
 284 689 l 1
174 250 m 1
 388 250 l 1
 332 610 l 1xe6
 174 250 l 1
EndSplineSet
Validated: 1
Substitution2: "'c2sc' Capitals to Small Capitals lookup 36 subtable" uni1EAB.sc
Substitution2: "'aalt' Access All Alternates lookup 0 subtable" uni1EAB.sc
Position2: "'cpsp' Capital Spacing lookup 0 subtable" dx=5 dy=0 dh=10 dv=0
EndChar

StartChar: Adieresis
Encoding: 196 196 15
Width: 567
GlyphClass: 2
Flags: MW
HStem: 0 21G<-32 65 -32 -32 427 524 427 427> 173 77<174 388 174 400 141 388> 610 79<332 332> 669 20G<284 403 403 403> 780 113<250 276 458 484>
VStem: 205 116<824 849> 413 116<824 849>
AnchorPoint: "Anchor-18" 0 0 basechar 0
AnchorPoint: "Anchor-17" 0 0 basechar 0
AnchorPoint: "Anchor-16" 367 894 basechar 0
AnchorPoint: "Anchor-15" 495 0 basechar 0
AnchorPoint: "Anchor-14" 246 0 basechar 0
LayerCount: 2
Fore
SplineSet
258 780 m 0xde
 227 780 205 802 205 831 c 0
 205 867 232 893 268 893 c 0
 299 893 321 871 321 842 c 0
 321 806 294 780 258 780 c 0xde
466 780 m 0
 435 780 413 802 413 831 c 0
 413 867 440 893 476 893 c 0
 507 893 529 871 529 842 c 0
 529 806 502 780 466 780 c 0
284 689 m 1
 403 689 l 1
 524 0 l 1
 427 0 l 1
 400 173 l 1
 141 173 l 1
 65 0 l 1
 -32 0 l 1
 284 689 l 1
174 250 m 1
 388 250 l 1
 332 610 l 1xee
 174 250 l 1
EndSplineSet
Validated: 1
Substitution2: "'c2sc' Capitals to Small Capitals lookup 36 subtable" adieresis.sc
Substitution2: "'aalt' Access All Alternates lookup 0 subtable" adieresis.sc
Position2: "'cpsp' Capital Spacing lookup 0 subtable" dx=5 dy=0 dh=10 dv=0
EndChar

StartChar: uni1EA0
Encoding: 7840 7840 16
Width: 567
GlyphClass: 2
Flags: MW
HStem: -199 125<213.5 242.5> 0 21G<-32 65 -32 -32 427 524 427 427> 173 77<174 388 174 400 141 388> 610 79<332 332> 669 20G<284 403 403 403>
VStem: 164 128<-150.5 -122.5>
AnchorPoint: "Anchor-18" 0 0 basechar 0
AnchorPoint: "Anchor-17" 0 0 basechar 0
AnchorPoint: "Anchor-16" 344 689 basechar 0
AnchorPoint: "Anchor-15" 495 0 basechar 0
AnchorPoint: "Anchor-14" 226 -199 basechar 0
LayerCount: 2
Fore
SplineSet
524 0 m 1xec
 427 0 l 1
 400 173 l 1
 141 173 l 1
 65 0 l 1
 -32 0 l 1
 284 689 l 1
 403 689 l 1
 524 0 l 1xec
174 250 m 1
 388 250 l 1
 332 610 l 1xf4
 174 250 l 1
233 -74 m 0
 269 -74 292 -99 292 -131 c 0
 292 -170 262 -199 223 -199 c 0
 187 -199 164 -174 164 -142 c 0
 164 -103 194 -74 233 -74 c 0
EndSplineSet
Validated: 1
Substitution2: "'c2sc' Capitals to Small Capitals lookup 36 subtable" uni1EA1.sc
Substitution2: "'aalt' Access All Alternates lookup 0 subtable" uni1EA1.sc
Position2: "'cpsp' Capital Spacing lookup 0 subtable" dx=5 dy=0 dh=10 dv=0
EndChar

StartChar: Agrave
Encoding: 192 192 17
Width: 567
GlyphClass: 2
Flags: MW
HStem: 0 21G<-32 65 -32 -32 427 524 427 427> 173 77<174 388 174 400 141 388> 610 79<332 332> 669 20G<284 403 403 403>
VStem: -32 556<0 0>
AnchorPoint: "Anchor-18" 0 0 basechar 0
AnchorPoint: "Anchor-17" 0 0 basechar 0
AnchorPoint: "Anchor-16" 366 911 basechar 0
AnchorPoint: "Anchor-15" 495 0 basechar 0
AnchorPoint: "Anchor-14" 246 0 basechar 0
LayerCount: 2
Fore
SplineSet
480 803 m 1xd8
 451 754 l 1
 252 830 l 1
 294 907 l 1
 480 803 l 1xd8
427 0 m 1
 400 173 l 1
 141 173 l 1
 65 0 l 1
 -32 0 l 1
 284 689 l 1
 403 689 l 1
 524 0 l 1
 427 0 l 1
174 250 m 1
 388 250 l 1
 332 610 l 1xe8
 174 250 l 1
EndSplineSet
Validated: 1
Substitution2: "'c2sc' Capitals to Small Capitals lookup 36 subtable" agrave.sc
Substitution2: "'aalt' Access All Alternates lookup 0 subtable" agrave.sc
Position2: "'cpsp' Capital Spacing lookup 0 subtable" dx=5 dy=0 dh=10 dv=0
EndChar

StartChar: uni1EA2
Encoding: 7842 7842 18
Width: 567
GlyphClass: 2
Flags: MW
HStem: 0 21G<-32 65 -32 -32 427 524 427 427> 173 77<174 388 174 400 141 388> 610 79<332 332> 669 20G<284 403 403 403> 763 84<330 330 330 389 321 330> 926 62<370.5 385>
VStem: 325.5 67 410 78<880 907.5>
AnchorPoint: "Anchor-18" 0 0 basechar 0
AnchorPoint: "Anchor-17" 0 0 basechar 0
AnchorPoint: "Anchor-16" 390 988 basechar 0
AnchorPoint: "Anchor-15" 495 0 basechar 0
AnchorPoint: "Anchor-14" 246 0 basechar 0
LayerCount: 2
Fore
SplineSet
374 926 m 0xdd
 351 926 332 920 314 910 c 1
 296 965 l 1
 322 979 351 988 390 988 c 0
 453 988 488 952 488 901 c 0xdd
 488 845 452 820 396 811 c 1
 389 763 l 1
 321 763 l 1xdf
 330 847 l 1
 373 853 410 862 410 898 c 0
 410 917 396 926 374 926 c 0xdd
427 0 m 1
 400 173 l 1
 141 173 l 1
 65 0 l 1
 -32 0 l 1
 284 689 l 1
 403 689 l 1
 524 0 l 1
 427 0 l 1
174 250 m 1
 388 250 l 1
 332 610 l 1xed
 174 250 l 1
EndSplineSet
Validated: 1
Substitution2: "'c2sc' Capitals to Small Capitals lookup 36 subtable" uni1EA3.sc
Substitution2: "'aalt' Access All Alternates lookup 0 subtable" uni1EA3.sc
Position2: "'cpsp' Capital Spacing lookup 0 subtable" dx=5 dy=0 dh=10 dv=0
EndChar

StartChar: Amacron
Encoding: 256 256 19
Width: 567
GlyphClass: 2
Flags: MW
HStem: 0 21G<-32 65 -32 -32 427 524 427 427> 173 77<174 388 174 400 141 388> 610 79<332 332> 669 20G<284 403 403 403> 793 69<234 496 225 505>
VStem: -32 556<0 0>
AnchorPoint: "Anchor-18" 0 0 basechar 0
AnchorPoint: "Anchor-17" 0 0 basechar 0
AnchorPoint: "Anchor-16" 365 862 basechar 0
AnchorPoint: "Anchor-15" 495 0 basechar 0
AnchorPoint: "Anchor-14" 246 0 basechar 0
LayerCount: 2
Fore
SplineSet
505 862 m 1xdc
 496 793 l 1
 225 793 l 1
 234 862 l 1
 505 862 l 1xdc
427 0 m 1
 400 173 l 1
 141 173 l 1
 65 0 l 1
 -32 0 l 1
 284 689 l 1
 403 689 l 1
 524 0 l 1
 427 0 l 1
174 250 m 1
 388 250 l 1
 332 610 l 1xec
 174 250 l 1
EndSplineSet
Validated: 1
Substitution2: "'c2sc' Capitals to Small Capitals lookup 36 subtable" amacron.sc
Substitution2: "'aalt' Access All Alternates lookup 0 subtable" amacron.sc
Position2: "'cpsp' Capital Spacing lookup 0 subtable" dx=5 dy=0 dh=10 dv=0
EndChar

StartChar: Aogonek
Encoding: 260 260 20
Width: 567
GlyphClass: 2
Flags: MW
HStem: -231 70<377 391> 0 20 173 77<174 388 174 400 141 388> 610 79<332 332> 669 20G<284 403 403 403>
VStem: 265 80<-137 -110.5 -137 -110.5>
AnchorPoint: "Anchor-18" 0 0 basechar 0
AnchorPoint: "Anchor-17" 0 0 basechar 0
AnchorPoint: "Anchor-16" 344 689 basechar 0
AnchorPoint: "Anchor-15" 495 0 basechar 0
AnchorPoint: "Anchor-14" 246 0 basechar 0
LayerCount: 2
Fore
SplineSet
487 0 m 1xec
 361 -52 345 -95 345 -126 c 0
 345 -148 362 -161 392 -161 c 0
 414 -161 431 -158 455 -153 c 1
 440 -225 l 1
 420 -229 403 -231 379 -231 c 0
 307 -231 265 -190 265 -137 c 0
 265 -84 295 -25 424 20 c 1
 400 173 l 1
 141 173 l 1
 65 0 l 1
 -32 0 l 1
 284 689 l 1
 403 689 l 1
 524 0 l 1
 487 0 l 1xec
174 250 m 1
 388 250 l 1
 332 610 l 1xf4
 174 250 l 1
EndSplineSet
Validated: 1
Substitution2: "'c2sc' Capitals to Small Capitals lookup 36 subtable" aogonek.sc
Substitution2: "'aalt' Access All Alternates lookup 0 subtable" aogonek.sc
Position2: "'cpsp' Capital Spacing lookup 0 subtable" dx=5 dy=0 dh=10 dv=0
EndChar

StartChar: Aring
Encoding: 197 197 21
Width: 567
GlyphClass: 2
Flags: MW
HStem: 0 21G<-32 65 -32 -32 427 524 427 427> 173 77<174 388 174 400 141 388> 610 79<332 332> 669 20G<284 403 403 403> 750 50<346.5 381.5 346.5 393.5> 912 50<358 392>
VStem: 256 61<832.5 864 832.5 878> 423 60<850 881>
AnchorPoint: "Anchor-18" 0 0 basechar 0
AnchorPoint: "Anchor-17" 0 0 basechar 0
AnchorPoint: "Anchor-16" 378 962 basechar 0
AnchorPoint: "Anchor-15" 495 0 basechar 0
AnchorPoint: "Anchor-14" 246 0 basechar 0
LayerCount: 2
Fore
SplineSet
359 750 m 0xdf
 297 750 256 792 256 846 c 0
 256 910 311 962 380 962 c 0
 442 962 483 920 483 866 c 0
 483 802 428 750 359 750 c 0xdf
378 912 m 0
 338 912 317 881 317 847 c 0
 317 818 332 800 361 800 c 0
 402 800 423 834 423 866 c 0
 423 896 406 912 378 912 c 0
427 0 m 1
 400 173 l 1
 141 173 l 1
 65 0 l 1
 -32 0 l 1
 284 689 l 1
 403 689 l 1
 524 0 l 1
 427 0 l 1
174 250 m 1
 388 250 l 1
 332 610 l 1xef
 174 250 l 1
EndSplineSet
Validated: 1
Substitution2: "'c2sc' Capitals to Small Capitals lookup 36 subtable" aring.sc
Substitution2: "'aalt' Access All Alternates lookup 0 subtable" aring.sc
Position2: "'cpsp' Capital Spacing lookup 0 subtable" dx=5 dy=0 dh=10 dv=0
EndChar

StartChar: Atilde
Encoding: 195 195 22
Width: 567
GlyphClass: 2
Flags: MW
HStem: 0 21G<-32 65 -32 -32 427 524 427 427> 173 77<174 388 174 400 141 388> 610 79<332 332> 669 20G<284 403 403 403> 782 70<404 431 404 441.5> 830 70<298.5 326.5>
VStem: -32 567
AnchorPoint: "Anchor-18" 0 0 basechar 0
AnchorPoint: "Anchor-17" 0 0 basechar 0
AnchorPoint: "Anchor-16" 368 900 basechar 0
AnchorPoint: "Anchor-15" 495 0 basechar 0
AnchorPoint: "Anchor-14" 246 0 basechar 0
LayerCount: 2
Fore
SplineSet
311 830 m 0xd6
 286 830 268 812 248 782 c 1
 196 814 l 1
 226 863 265 900 313 900 c 0xd6
 370 900 388 852 420 852 c 0
 442 852 460 868 481 898 c 1
 535 866 l 1
 501 809 461 782 422 782 c 0xda
 363 782 342 830 311 830 c 0xd6
284 689 m 1
 403 689 l 1
 524 0 l 1
 427 0 l 1
 400 173 l 1
 141 173 l 1
 65 0 l 1
 -32 0 l 1
 284 689 l 1
174 250 m 1
 388 250 l 1
 332 610 l 1xe6
 174 250 l 1
EndSplineSet
Validated: 1
Substitution2: "'c2sc' Capitals to Small Capitals lookup 36 subtable" atilde.sc
Substitution2: "'aalt' Access All Alternates lookup 0 subtable" atilde.sc
Position2: "'cpsp' Capital Spacing lookup 0 subtable" dx=5 dy=0 dh=10 dv=0
EndChar

StartChar: AE
Encoding: 198 198 23
Width: 808
GlyphClass: 2
Flags: MW
HStem: 0 76<504 718> 173 77<179 398 179 405 139 398> 311 76<479 713 479 479> 613 76<364 364 446 753 446 446>
VStem: -49 824<0 689>
AnchorPoint: "Anchor-18" 0 0 basechar 0
AnchorPoint: "Anchor-17" 0 0 basechar 0
AnchorPoint: "Anchor-16" 530 689 basechar 0
AnchorPoint: "Anchor-15" 0 0 basechar 0
AnchorPoint: "Anchor-14" 367 0 basechar 0
LayerCount: 2
Fore
SplineSet
753 613 m 1
 446 613 l 1
 470 387 l 1
 723 387 l 1
 713 311 l 1
 479 311 l 1
 504 76 l 1
 729 76 l 1
 718 0 l 1
 421 0 l 1
 405 173 l 1
 139 173 l 1
 51 0 l 1
 -49 0 l 1
 317 689 l 1
 775 689 l 1
 753 613 l 1
179 250 m 1
 398 250 l 1
 364 613 l 1
 179 250 l 1
EndSplineSet
Validated: 1
Substitution2: "'c2sc' Capitals to Small Capitals lookup 36 subtable" ae.sc
Substitution2: "'aalt' Access All Alternates lookup 0 subtable" ae.sc
Position2: "'cpsp' Capital Spacing lookup 0 subtable" dx=5 dy=0 dh=10 dv=0
EndChar

StartChar: B
Encoding: 66 66 24
Width: 602
GlyphClass: 2
Flags: MW
HStem: 0 76<167 252> 324 73<212 313 313 316 202 313> 614 75<242 349 349 352 242 242>
VStem: 452 98<180.5 261.5> 469 96<486.5 565.5>
AnchorPoint: "Anchor-18" 0 0 basechar 0
AnchorPoint: "Anchor-17" 0 0 basechar 0
AnchorPoint: "Anchor-16" 338 689 basechar 0
AnchorPoint: "Anchor-15" 0 0 basechar 0
AnchorPoint: "Anchor-14" 277 0 basechar 0
LayerCount: 2
Fore
SplineSet
411 364 m 1xf0
 482 351 550 317 550 220 c 0xf0
 550 99 478 0 252 0 c 2
 62 0 l 1
 159 689 l 1
 349 689 l 2
 474 689 565 641 565 535 c 0xe8
 565 438 493 381 411 364 c 1xf0
352 614 m 2
 242 614 l 1
 212 397 l 1
 313 397 l 2
 396 397 469 437 469 532 c 0xe8
 469 599 414 614 352 614 c 2
256 76 m 2xf0
 411 76 452 139 452 222 c 0
 452 301 391 324 316 324 c 2
 202 324 l 1
 167 76 l 1
 256 76 l 2xf0
EndSplineSet
Validated: 1
Substitution2: "'c2sc' Capitals to Small Capitals lookup 36 subtable" b.sc
Substitution2: "'aalt' Access All Alternates lookup 0 subtable" b.sc
Position2: "'cpsp' Capital Spacing lookup 0 subtable" dx=5 dy=0 dh=10 dv=0
EndChar

StartChar: uni1E02
Encoding: 7682 7682 25
Width: 602
GlyphClass: 2
Flags: MW
HStem: 0 76<167 252> 324 73<212 313 313 316 202 313> 614 75<242 349 349 352 242 242> 781 125<348.5 377.5>
VStem: 299 128<829.5 857.5> 452 98<180.5 261.5> 469 96<486.5 565.5>
AnchorPoint: "Anchor-18" 0 0 basechar 0
AnchorPoint: "Anchor-17" 0 0 basechar 0
AnchorPoint: "Anchor-16" 365 906 basechar 0
AnchorPoint: "Anchor-15" 0 0 basechar 0
AnchorPoint: "Anchor-14" 277 0 basechar 0
LayerCount: 2
Fore
SplineSet
358 781 m 0xfc
 322 781 299 806 299 838 c 0
 299 877 329 906 368 906 c 0
 404 906 427 881 427 849 c 0
 427 810 397 781 358 781 c 0xfc
411 364 m 1xe4
 482 351 550 317 550 220 c 0xe4
 550 99 478 0 252 0 c 2
 62 0 l 1
 159 689 l 1
 349 689 l 2
 474 689 565 641 565 535 c 0xe2
 565 438 493 381 411 364 c 1xe4
352 614 m 2xe2
 242 614 l 1
 212 397 l 1
 313 397 l 2
 396 397 469 437 469 532 c 0
 469 599 414 614 352 614 c 2xe2
256 76 m 2xe4
 411 76 452 139 452 222 c 0
 452 301 391 324 316 324 c 2
 202 324 l 1
 167 76 l 1
 256 76 l 2xe4
EndSplineSet
Validated: 1
Substitution2: "'c2sc' Capitals to Small Capitals lookup 36 subtable" uni1E03.sc
Substitution2: "'aalt' Access All Alternates lookup 0 subtable" uni1E03.sc
Position2: "'cpsp' Capital Spacing lookup 0 subtable" dx=5 dy=0 dh=10 dv=0
EndChar

StartChar: uni1E04
Encoding: 7684 7684 26
Width: 602
GlyphClass: 2
Flags: MW
HStem: -199 125<244.5 273.5> 0 76<167 252> 324 73<212 313 313 316 202 313> 614 75<242 349 349 352 242 242>
VStem: 195 128<-150.5 -122.5> 452 98<180.5 261.5> 469 96<486.5 565.5>
AnchorPoint: "Anchor-18" 0 0 basechar 0
AnchorPoint: "Anchor-17" 0 0 basechar 0
AnchorPoint: "Anchor-16" 338 689 basechar 0
AnchorPoint: "Anchor-15" 0 0 basechar 0
AnchorPoint: "Anchor-14" 257 -199 basechar 0
LayerCount: 2
Fore
SplineSet
411 364 m 1x74
 482 351 550 317 550 220 c 0x74
 550 99 478 0 252 0 c 2
 62 0 l 1
 159 689 l 1
 349 689 l 2
 474 689 565 641 565 535 c 0x72
 565 438 493 381 411 364 c 1x74
352 614 m 2
 242 614 l 1
 212 397 l 1
 313 397 l 2
 396 397 469 437 469 532 c 0x72
 469 599 414 614 352 614 c 2
256 76 m 2xfc
 411 76 452 139 452 222 c 0
 452 301 391 324 316 324 c 2
 202 324 l 1
 167 76 l 1
 256 76 l 2xfc
264 -74 m 0
 300 -74 323 -99 323 -131 c 0
 323 -170 293 -199 254 -199 c 0
 218 -199 195 -174 195 -142 c 0
 195 -103 225 -74 264 -74 c 0
EndSplineSet
Validated: 1
Substitution2: "'c2sc' Capitals to Small Capitals lookup 36 subtable" uni1E05.sc
Substitution2: "'aalt' Access All Alternates lookup 0 subtable" uni1E05.sc
Position2: "'cpsp' Capital Spacing lookup 0 subtable" dx=5 dy=0 dh=10 dv=0
EndChar

StartChar: C
Encoding: 67 67 27
Width: 555
GlyphClass: 2
Flags: MW
HStem: -12 80<268 345.5 268 351> 623 78<308.5 421.5>
VStem: 61 99<191 337.5 191 360>
AnchorPoint: "Anchor-18" 0 0 basechar 0
AnchorPoint: "Anchor-17" 0 0 basechar 0
AnchorPoint: "Anchor-16" 405 689 basechar 0
AnchorPoint: "Anchor-15" 0 0 basechar 0
AnchorPoint: "Anchor-14" 307 0 basechar 0
LayerCount: 2
Fore
SplineSet
394 701 m 0
 474 701 531 675 579 630 c 1
 525 577 l 1
 484 609 445 623 398 623 c 0
 219 623 160 415 160 260 c 0
 160 122 224 68 312 68 c 0
 379 68 425 97 467 127 c 1
 509 63 l 1
 464 25 396 -12 306 -12 c 0
 159 -12 61 86 61 268 c 0
 61 452 155 701 394 701 c 0
EndSplineSet
Validated: 1
Substitution2: "'c2sc' Capitals to Small Capitals lookup 36 subtable" c.sc
Substitution2: "'aalt' Access All Alternates lookup 0 subtable" c.sc
Position2: "'cpsp' Capital Spacing lookup 0 subtable" dx=5 dy=0 dh=10 dv=0
EndChar

StartChar: Cacute
Encoding: 262 262 28
Width: 555
GlyphClass: 2
Flags: MW
HStem: -12 80<268 345.5 268 351> 623 78<308.5 421.5>
VStem: 61 99<191 337.5 191 360>
AnchorPoint: "Anchor-18" 0 0 basechar 0
AnchorPoint: "Anchor-17" 0 0 basechar 0
AnchorPoint: "Anchor-16" 427 911 basechar 0
AnchorPoint: "Anchor-15" 0 0 basechar 0
AnchorPoint: "Anchor-14" 307 0 basechar 0
LayerCount: 2
Fore
SplineSet
512 908 m 1
 542 831 l 1
 322 755 l 1
 303 804 l 1
 512 908 l 1
394 701 m 0
 474 701 531 675 579 630 c 1
 525 577 l 1
 484 609 445 623 398 623 c 0
 219 623 160 415 160 260 c 0
 160 122 224 68 312 68 c 0
 379 68 425 97 467 127 c 1
 509 63 l 1
 464 25 396 -12 306 -12 c 0
 159 -12 61 86 61 268 c 0
 61 452 155 701 394 701 c 0
EndSplineSet
Validated: 1
Substitution2: "'c2sc' Capitals to Small Capitals lookup 36 subtable" cacute.sc
Substitution2: "'locl' Localized Forms in Latin lookup 14 subtable" Cacute.loclPLK
AlternateSubs2: "'aalt' Access All Alternates lookup 1 subtable" Cacute.loclPLK cacute.sc
Position2: "'cpsp' Capital Spacing lookup 0 subtable" dx=5 dy=0 dh=10 dv=0
EndChar

StartChar: Ccaron
Encoding: 268 268 29
Width: 555
GlyphClass: 2
Flags: MW
HStem: -12 80<268 345.5 268 351> 623 78<308.5 421.5>
VStem: 61 99<191 337.5 191 360>
AnchorPoint: "Anchor-18" 0 0 basechar 0
AnchorPoint: "Anchor-17" 0 0 basechar 0
AnchorPoint: "Anchor-16" 430 909 basechar 0
AnchorPoint: "Anchor-15" 0 0 basechar 0
AnchorPoint: "Anchor-14" 307 0 basechar 0
LayerCount: 2
Fore
SplineSet
557 909 m 1
 592 864 l 1
 444 754 l 1
 384 754 l 1
 264 864 l 1
 307 909 l 1
 420 828 l 1
 557 909 l 1
394 701 m 0
 474 701 531 675 579 630 c 1
 525 577 l 1
 484 609 445 623 398 623 c 0
 219 623 160 415 160 260 c 0
 160 122 224 68 312 68 c 0
 379 68 425 97 467 127 c 1
 509 63 l 1
 464 25 396 -12 306 -12 c 0
 159 -12 61 86 61 268 c 0
 61 452 155 701 394 701 c 0
EndSplineSet
Validated: 1
Substitution2: "'c2sc' Capitals to Small Capitals lookup 36 subtable" ccaron.sc
Substitution2: "'aalt' Access All Alternates lookup 0 subtable" ccaron.sc
Position2: "'cpsp' Capital Spacing lookup 0 subtable" dx=5 dy=0 dh=10 dv=0
EndChar

StartChar: Ccedilla
Encoding: 199 199 30
Width: 555
GlyphClass: 2
Flags: MW
HStem: -241 60<266 296.5 266 322.5> -214 21G<188 188> -99 43 -11 79<336 336> 623 78<308.5 421.5>
VStem: 61 99<191 337.5 191 360> 335 75<-152 -123.5>
AnchorPoint: "Anchor-18" 0 0 basechar 0
AnchorPoint: "Anchor-17" 0 0 basechar 0
AnchorPoint: "Anchor-16" 405 689 basechar 0
AnchorPoint: "Anchor-15" 0 0 basechar 0
AnchorPoint: "Anchor-14" 300 -241 basechar 0
LayerCount: 2
Fore
SplineSet
398 623 m 0x7e
 219 623 160 415 160 260 c 0
 160 122 224 68 312 68 c 0
 379 68 425 97 467 127 c 1
 509 63 l 1
 469 29 411 -4 336 -11 c 1
 328 -56 l 1
 384 -61 410 -95 410 -137 c 0
 410 -193 364 -241 281 -241 c 0xbe
 238 -241 208 -229 188 -214 c 1x7e
 219 -165 l 1
 235 -174 251 -181 281 -181 c 0xbe
 312 -181 335 -166 335 -138 c 0
 335 -109 317 -99 253 -99 c 1
 275 -10 l 1
 145 3 61 99 61 268 c 0
 61 452 155 701 394 701 c 0
 474 701 531 675 579 630 c 1
 525 577 l 1
 484 609 445 623 398 623 c 0x7e
EndSplineSet
Validated: 1
Substitution2: "'c2sc' Capitals to Small Capitals lookup 36 subtable" ccedilla.sc
Substitution2: "'aalt' Access All Alternates lookup 0 subtable" ccedilla.sc
Position2: "'cpsp' Capital Spacing lookup 0 subtable" dx=5 dy=0 dh=10 dv=0
EndChar

StartChar: Ccircumflex
Encoding: 264 264 31
Width: 555
GlyphClass: 2
Flags: MW
HStem: -12 80<268 345.5 268 351> 623 78<308.5 421.5>
VStem: 61 99<191 337.5 191 360>
AnchorPoint: "Anchor-18" 0 0 basechar 0
AnchorPoint: "Anchor-17" 532 786 basechar 0
AnchorPoint: "Anchor-16" 432 914 basechar 0
AnchorPoint: "Anchor-15" 0 0 basechar 0
AnchorPoint: "Anchor-14" 307 0 basechar 0
LayerCount: 2
Fore
SplineSet
290 759 m 1
 253 804 l 1
 402 914 l 1
 462 914 l 1
 581 804 l 1
 540 759 l 1
 425 840 l 1
 290 759 l 1
394 701 m 0
 474 701 531 675 579 630 c 1
 525 577 l 1
 484 609 445 623 398 623 c 0
 219 623 160 415 160 260 c 0
 160 122 224 68 312 68 c 0
 379 68 425 97 467 127 c 1
 509 63 l 1
 464 25 396 -12 306 -12 c 0
 159 -12 61 86 61 268 c 0
 61 452 155 701 394 701 c 0
EndSplineSet
Validated: 1
Substitution2: "'c2sc' Capitals to Small Capitals lookup 36 subtable" ccircumflex.sc
Substitution2: "'aalt' Access All Alternates lookup 0 subtable" ccircumflex.sc
Position2: "'cpsp' Capital Spacing lookup 0 subtable" dx=5 dy=0 dh=10 dv=0
EndChar

StartChar: Cdotaccent
Encoding: 266 266 32
Width: 555
GlyphClass: 2
Flags: MW
HStem: -12 80<268 345.5 268 351> 623 78<308.5 421.5> 781 125<415.5 444.5>
VStem: 61 99<191 337.5 191 360> 366 128<829.5 857.5>
AnchorPoint: "Anchor-18" 0 0 basechar 0
AnchorPoint: "Anchor-17" 0 0 basechar 0
AnchorPoint: "Anchor-16" 432 906 basechar 0
AnchorPoint: "Anchor-15" 0 0 basechar 0
AnchorPoint: "Anchor-14" 307 0 basechar 0
LayerCount: 2
Fore
SplineSet
425 781 m 0
 389 781 366 806 366 838 c 0
 366 877 396 906 435 906 c 0
 471 906 494 881 494 849 c 0
 494 810 464 781 425 781 c 0
394 701 m 0
 474 701 531 675 579 630 c 1
 525 577 l 1
 484 609 445 623 398 623 c 0
 219 623 160 415 160 260 c 0
 160 122 224 68 312 68 c 0
 379 68 425 97 467 127 c 1
 509 63 l 1
 464 25 396 -12 306 -12 c 0
 159 -12 61 86 61 268 c 0
 61 452 155 701 394 701 c 0
EndSplineSet
Validated: 1
Substitution2: "'c2sc' Capitals to Small Capitals lookup 36 subtable" cdotaccent.sc
Substitution2: "'aalt' Access All Alternates lookup 0 subtable" cdotaccent.sc
Position2: "'cpsp' Capital Spacing lookup 0 subtable" dx=5 dy=0 dh=10 dv=0
EndChar

StartChar: D
Encoding: 68 68 33
Width: 639
GlyphClass: 2
Flags: MW
HStem: 0 75<167 228> 613 76<242 300 300 314 242 242>
VStem: 505 96<347.5 510.5>
AnchorPoint: "Anchor-18" 331 345 basechar 0
AnchorPoint: "Anchor-17" 0 0 basechar 0
AnchorPoint: "Anchor-16" 360 689 basechar 0
AnchorPoint: "Anchor-15" 0 0 basechar 0
AnchorPoint: "Anchor-14" 251 0 basechar 0
LayerCount: 2
Fore
SplineSet
300 689 m 2
 456 689 601 643 601 428 c 0
 601 207 500 0 228 0 c 2
 62 0 l 1
 159 689 l 1
 300 689 l 2
314 613 m 2
 242 613 l 1
 167 75 l 1
 242 75 l 2
 442 75 505 265 505 430 c 0
 505 591 410 613 314 613 c 2
EndSplineSet
Validated: 1
Substitution2: "'c2sc' Capitals to Small Capitals lookup 36 subtable" d.sc
Substitution2: "'aalt' Access All Alternates lookup 0 subtable" d.sc
Position2: "'cpsp' Capital Spacing lookup 0 subtable" dx=5 dy=0 dh=10 dv=0
EndChar

StartChar: Eth
Encoding: 208 208 34
Width: 649
GlyphClass: 2
Flags: MW
HStem: 0 75<177 238> 318 70<38 117 29 127 221 369> 613 76<252 310 310 324 252 252>
VStem: 515 96<347.5 510.5>
AnchorPoint: "Anchor-18" 341 345 basechar 0
AnchorPoint: "Anchor-17" 0 0 basechar 0
AnchorPoint: "Anchor-16" 370 689 basechar 0
AnchorPoint: "Anchor-15" 0 0 basechar 0
AnchorPoint: "Anchor-14" 261 0 basechar 0
LayerCount: 2
Fore
SplineSet
310 689 m 2
 466 689 611 643 611 428 c 0
 611 207 510 0 238 0 c 2
 72 0 l 1
 117 318 l 1
 29 318 l 1
 38 388 l 1
 127 388 l 1
 169 689 l 1
 310 689 l 2
252 75 m 2
 452 75 515 265 515 430 c 0
 515 591 420 613 324 613 c 2
 252 613 l 1
 221 388 l 1
 378 388 l 1
 369 318 l 1
 211 318 l 1
 177 75 l 1
 252 75 l 2
EndSplineSet
Validated: 1
Substitution2: "'c2sc' Capitals to Small Capitals lookup 36 subtable" eth.sc
Substitution2: "'aalt' Access All Alternates lookup 0 subtable" eth.sc
Position2: "'cpsp' Capital Spacing lookup 0 subtable" dx=5 dy=0 dh=10 dv=0
EndChar

StartChar: Dcaron
Encoding: 270 270 35
Width: 639
GlyphClass: 2
Flags: MW
HStem: 0 75<167 228> 613 76<242 300 300 314 242 242>
VStem: 505 96<347.5 510.5>
AnchorPoint: "Anchor-18" 331 345 basechar 0
AnchorPoint: "Anchor-17" 0 0 basechar 0
AnchorPoint: "Anchor-16" 385 909 basechar 0
AnchorPoint: "Anchor-15" 0 0 basechar 0
AnchorPoint: "Anchor-14" 251 0 basechar 0
LayerCount: 2
Fore
SplineSet
512 909 m 1
 547 864 l 1
 399 754 l 1
 339 754 l 1
 219 864 l 1
 262 909 l 1
 375 828 l 1
 512 909 l 1
300 689 m 2
 456 689 601 643 601 428 c 0
 601 207 500 0 228 0 c 2
 62 0 l 1
 159 689 l 1
 300 689 l 2
314 613 m 2
 242 613 l 1
 167 75 l 1
 242 75 l 2
 442 75 505 265 505 430 c 0
 505 591 410 613 314 613 c 2
EndSplineSet
Validated: 1
Substitution2: "'c2sc' Capitals to Small Capitals lookup 36 subtable" dcaron.sc
Substitution2: "'aalt' Access All Alternates lookup 0 subtable" dcaron.sc
Position2: "'cpsp' Capital Spacing lookup 0 subtable" dx=5 dy=0 dh=10 dv=0
EndChar

StartChar: uni1E12
Encoding: 7698 7698 36
Width: 639
GlyphClass: 2
Flags: MW
HStem: 0 75<167 228> 613 76<242 300 300 314 242 242>
VStem: 505 96<347.5 510.5>
AnchorPoint: "Anchor-18" 331 345 basechar 0
AnchorPoint: "Anchor-17" 0 0 basechar 0
AnchorPoint: "Anchor-16" 360 689 basechar 0
AnchorPoint: "Anchor-15" 0 0 basechar 0
AnchorPoint: "Anchor-14" 222 -226 basechar 0
LayerCount: 2
Fore
SplineSet
300 689 m 2
 456 689 601 643 601 428 c 0
 601 207 500 0 228 0 c 2
 62 0 l 1
 159 689 l 1
 300 689 l 2
314 613 m 2
 242 613 l 1
 167 75 l 1
 242 75 l 2
 442 75 505 265 505 430 c 0
 505 591 410 613 314 613 c 2
98 -226 m 1
 61 -181 l 1
 210 -68 l 1
 270 -68 l 1
 389 -181 l 1
 345 -226 l 1
 232 -142 l 1
 98 -226 l 1
EndSplineSet
Validated: 1
Substitution2: "'c2sc' Capitals to Small Capitals lookup 36 subtable" uni1E13.sc
Substitution2: "'aalt' Access All Alternates lookup 0 subtable" uni1E13.sc
Position2: "'cpsp' Capital Spacing lookup 0 subtable" dx=5 dy=0 dh=10 dv=0
EndChar

StartChar: Dcroat
Encoding: 272 272 37
Width: 649
GlyphClass: 2
Flags: MW
HStem: 0 75<177 238> 318 70<38 117 29 127 221 369> 613 76<252 310 310 324 252 252>
VStem: 515 96<347.5 510.5>
AnchorPoint: "Anchor-18" 341 345 basechar 0
AnchorPoint: "Anchor-17" 0 0 basechar 0
AnchorPoint: "Anchor-16" 370 689 basechar 0
AnchorPoint: "Anchor-15" 0 0 basechar 0
AnchorPoint: "Anchor-14" 261 0 basechar 0
LayerCount: 2
Fore
SplineSet
310 689 m 2
 466 689 611 643 611 428 c 0
 611 207 510 0 238 0 c 2
 72 0 l 1
 117 318 l 1
 29 318 l 1
 38 388 l 1
 127 388 l 1
 169 689 l 1
 310 689 l 2
252 75 m 2
 452 75 515 265 515 430 c 0
 515 591 420 613 324 613 c 2
 252 613 l 1
 221 388 l 1
 378 388 l 1
 369 318 l 1
 211 318 l 1
 177 75 l 1
 252 75 l 2
EndSplineSet
Validated: 1
Substitution2: "'c2sc' Capitals to Small Capitals lookup 36 subtable" dcroat.sc
Substitution2: "'aalt' Access All Alternates lookup 0 subtable" dcroat.sc
Position2: "'cpsp' Capital Spacing lookup 0 subtable" dx=5 dy=0 dh=10 dv=0
EndChar

StartChar: uni1E0A
Encoding: 7690 7690 38
Width: 639
GlyphClass: 2
Flags: MW
HStem: 0 75<167 228> 613 76<242 300 300 314 242 242> 781 125<370.5 399.5>
VStem: 321 128<829.5 857.5> 505 96<347.5 510.5>
AnchorPoint: "Anchor-18" 331 345 basechar 0
AnchorPoint: "Anchor-17" 0 0 basechar 0
AnchorPoint: "Anchor-16" 387 906 basechar 0
AnchorPoint: "Anchor-15" 0 0 basechar 0
AnchorPoint: "Anchor-14" 251 0 basechar 0
LayerCount: 2
Fore
SplineSet
380 781 m 0
 344 781 321 806 321 838 c 0
 321 877 351 906 390 906 c 0
 426 906 449 881 449 849 c 0
 449 810 419 781 380 781 c 0
300 689 m 2
 456 689 601 643 601 428 c 0
 601 207 500 0 228 0 c 2
 62 0 l 1
 159 689 l 1
 300 689 l 2
314 613 m 2
 242 613 l 1
 167 75 l 1
 242 75 l 2
 442 75 505 265 505 430 c 0
 505 591 410 613 314 613 c 2
EndSplineSet
Validated: 1
Position2: "'cpsp' Capital Spacing lookup 0 subtable" dx=5 dy=0 dh=10 dv=0
EndChar

StartChar: uni1E0C
Encoding: 7692 7692 39
Width: 639
GlyphClass: 2
Flags: MW
HStem: -199 125<218.5 247.5> 0 75<167 228> 613 76<242 300 300 314 242 242>
VStem: 169 128<-150.5 -122.5> 505 96<347.5 510.5>
AnchorPoint: "Anchor-18" 331 345 basechar 0
AnchorPoint: "Anchor-17" 0 0 basechar 0
AnchorPoint: "Anchor-16" 360 689 basechar 0
AnchorPoint: "Anchor-15" 0 0 basechar 0
AnchorPoint: "Anchor-14" 231 -199 basechar 0
LayerCount: 2
Fore
SplineSet
300 689 m 2
 456 689 601 643 601 428 c 0
 601 207 500 0 228 0 c 2
 62 0 l 1
 159 689 l 1
 300 689 l 2
314 613 m 2
 242 613 l 1
 167 75 l 1
 242 75 l 2
 442 75 505 265 505 430 c 0
 505 591 410 613 314 613 c 2
238 -74 m 0
 274 -74 297 -99 297 -131 c 0
 297 -170 267 -199 228 -199 c 0
 192 -199 169 -174 169 -142 c 0
 169 -103 199 -74 238 -74 c 0
EndSplineSet
Validated: 1
Substitution2: "'c2sc' Capitals to Small Capitals lookup 36 subtable" uni1E0D.sc
Substitution2: "'aalt' Access All Alternates lookup 0 subtable" uni1E0D.sc
Position2: "'cpsp' Capital Spacing lookup 0 subtable" dx=5 dy=0 dh=10 dv=0
EndChar

StartChar: uni1E0E
Encoding: 7694 7694 40
Width: 639
GlyphClass: 2
Flags: MW
HStem: -173 69<106 368 97 377> 0 75<167 228> 613 76<242 300 300 314 242 242>
VStem: 505 96<347.5 510.5>
AnchorPoint: "Anchor-18" 331 345 basechar 0
AnchorPoint: "Anchor-17" 0 0 basechar 0
AnchorPoint: "Anchor-16" 360 689 basechar 0
AnchorPoint: "Anchor-15" 0 0 basechar 0
AnchorPoint: "Anchor-14" 233 -173 basechar 0
LayerCount: 2
Fore
SplineSet
300 689 m 2
 456 689 601 643 601 428 c 0
 601 207 500 0 228 0 c 2
 62 0 l 1
 159 689 l 1
 300 689 l 2
314 613 m 2
 242 613 l 1
 167 75 l 1
 242 75 l 2
 442 75 505 265 505 430 c 0
 505 591 410 613 314 613 c 2
106 -104 m 1
 377 -104 l 1
 368 -173 l 1
 97 -173 l 1
 106 -104 l 1
EndSplineSet
Validated: 1
Substitution2: "'c2sc' Capitals to Small Capitals lookup 36 subtable" uni1E0F.sc
Substitution2: "'aalt' Access All Alternates lookup 0 subtable" uni1E0F.sc
Position2: "'cpsp' Capital Spacing lookup 0 subtable" dx=5 dy=0 dh=10 dv=0
EndChar

StartChar: E
Encoding: 69 69 41
Width: 529
GlyphClass: 2
Flags: MW
HStem: 0 76<167 439> 312 76<210 430 200 440> 613 76<242 507 242 242>
VStem: 62 466
AnchorPoint: "Anchor-18" 0 0 basechar 0
AnchorPoint: "Anchor-17" 0 0 basechar 0
AnchorPoint: "Anchor-16" 347 689 basechar 0
AnchorPoint: "Anchor-15" 409 0 basechar 0
AnchorPoint: "Anchor-14" 251 0 basechar 0
LayerCount: 2
Fore
SplineSet
528 689 m 1
 507 613 l 1
 242 613 l 1
 210 388 l 1
 440 388 l 1
 430 312 l 1
 200 312 l 1
 167 76 l 1
 450 76 l 1
 439 0 l 1
 62 0 l 1
 159 689 l 1
 528 689 l 1
EndSplineSet
Validated: 1
Substitution2: "'c2sc' Capitals to Small Capitals lookup 36 subtable" e.sc
Substitution2: "'aalt' Access All Alternates lookup 0 subtable" e.sc
Position2: "'cpsp' Capital Spacing lookup 0 subtable" dx=5 dy=0 dh=10 dv=0
EndChar

StartChar: Eacute
Encoding: 201 201 42
Width: 529
GlyphClass: 2
Flags: MW
HStem: 0 76<167 439> 312 76<210 430 200 440> 613 76<242 507 242 242>
VStem: 62 466
AnchorPoint: "Anchor-18" 0 0 basechar 0
AnchorPoint: "Anchor-17" 0 0 basechar 0
AnchorPoint: "Anchor-16" 369 911 basechar 0
AnchorPoint: "Anchor-15" 409 0 basechar 0
AnchorPoint: "Anchor-14" 251 0 basechar 0
LayerCount: 2
Fore
SplineSet
454 908 m 1
 484 831 l 1
 264 755 l 1
 245 804 l 1
 454 908 l 1
528 689 m 1
 507 613 l 1
 242 613 l 1
 210 388 l 1
 440 388 l 1
 430 312 l 1
 200 312 l 1
 167 76 l 1
 450 76 l 1
 439 0 l 1
 62 0 l 1
 159 689 l 1
 528 689 l 1
EndSplineSet
Validated: 1
Substitution2: "'c2sc' Capitals to Small Capitals lookup 36 subtable" eacute.sc
Substitution2: "'locl' Localized Forms in Latin lookup 8 subtable" Eacute.loclHUN
AlternateSubs2: "'aalt' Access All Alternates lookup 1 subtable" Eacute.loclHUN eacute.sc
Position2: "'cpsp' Capital Spacing lookup 0 subtable" dx=5 dy=0 dh=10 dv=0
EndChar

StartChar: Ebreve
Encoding: 276 276 43
Width: 529
GlyphClass: 2
Flags: MW
HStem: 0 76<167 439> 312 76<210 430 200 440> 613 76<242 507 242 242> 758 70<336.5 383 336.5 396>
VStem: 62 466
AnchorPoint: "Anchor-18" 0 0 basechar 0
AnchorPoint: "Anchor-17" 0 0 basechar 0
AnchorPoint: "Anchor-16" 374 896 basechar 0
AnchorPoint: "Anchor-15" 409 0 basechar 0
AnchorPoint: "Anchor-14" 251 0 basechar 0
LayerCount: 2
Fore
SplineSet
357 758 m 0
 276 758 221 810 223 884 c 1
 282 892 l 1
 291 852 314 828 359 828 c 0
 407 828 443 856 462 896 c 1
 522 878 l 1
 504 804 435 758 357 758 c 0
528 689 m 1
 507 613 l 1
 242 613 l 1
 210 388 l 1
 440 388 l 1
 430 312 l 1
 200 312 l 1
 167 76 l 1
 450 76 l 1
 439 0 l 1
 62 0 l 1
 159 689 l 1
 528 689 l 1
EndSplineSet
Validated: 33
Substitution2: "'c2sc' Capitals to Small Capitals lookup 36 subtable" ebreve.sc
Substitution2: "'aalt' Access All Alternates lookup 0 subtable" ebreve.sc
Position2: "'cpsp' Capital Spacing lookup 0 subtable" dx=5 dy=0 dh=10 dv=0
EndChar

StartChar: Ecaron
Encoding: 282 282 44
Width: 529
GlyphClass: 2
Flags: MW
HStem: 0 76<167 439> 312 76<210 430 200 440> 613 76<242 507 242 242>
VStem: 62 472
AnchorPoint: "Anchor-18" 0 0 basechar 0
AnchorPoint: "Anchor-17" 0 0 basechar 0
AnchorPoint: "Anchor-16" 372 909 basechar 0
AnchorPoint: "Anchor-15" 409 0 basechar 0
AnchorPoint: "Anchor-14" 251 0 basechar 0
LayerCount: 2
Fore
SplineSet
499 909 m 1
 534 864 l 1
 386 754 l 1
 326 754 l 1
 206 864 l 1
 249 909 l 1
 362 828 l 1
 499 909 l 1
528 689 m 1
 507 613 l 1
 242 613 l 1
 210 388 l 1
 440 388 l 1
 430 312 l 1
 200 312 l 1
 167 76 l 1
 450 76 l 1
 439 0 l 1
 62 0 l 1
 159 689 l 1
 528 689 l 1
EndSplineSet
Validated: 1
Substitution2: "'c2sc' Capitals to Small Capitals lookup 36 subtable" ecaron.sc
Substitution2: "'aalt' Access All Alternates lookup 0 subtable" ecaron.sc
Position2: "'cpsp' Capital Spacing lookup 0 subtable" dx=5 dy=0 dh=10 dv=0
EndChar

StartChar: Ecircumflex
Encoding: 202 202 45
Width: 529
GlyphClass: 2
Flags: MW
HStem: 0 76<167 439> 312 76<210 430 200 440> 613 76<242 507 242 242>
VStem: 62 466
AnchorPoint: "Anchor-18" 0 0 basechar 0
AnchorPoint: "Anchor-17" 474 786 basechar 0
AnchorPoint: "Anchor-16" 374 914 basechar 0
AnchorPoint: "Anchor-15" 409 0 basechar 0
AnchorPoint: "Anchor-14" 251 0 basechar 0
LayerCount: 2
Fore
SplineSet
232 759 m 1
 195 804 l 1
 344 914 l 1
 404 914 l 1
 523 804 l 1
 482 759 l 1
 367 840 l 1
 232 759 l 1
528 689 m 1
 507 613 l 1
 242 613 l 1
 210 388 l 1
 440 388 l 1
 430 312 l 1
 200 312 l 1
 167 76 l 1
 450 76 l 1
 439 0 l 1
 62 0 l 1
 159 689 l 1
 528 689 l 1
EndSplineSet
Validated: 1
Substitution2: "'c2sc' Capitals to Small Capitals lookup 36 subtable" ecircumflex.sc
Substitution2: "'aalt' Access All Alternates lookup 0 subtable" ecircumflex.sc
Position2: "'cpsp' Capital Spacing lookup 0 subtable" dx=5 dy=0 dh=10 dv=0
EndChar

StartChar: uni1EBE
Encoding: 7870 7870 46
Width: 529
GlyphClass: 2
Flags: MW
HStem: 0 76<167 439> 312 76<210 430 200 440> 613 76<242 507 242 242>
VStem: 62 579
AnchorPoint: "Anchor-18" 0 0 basechar 0
AnchorPoint: "Anchor-17" 468 743 basechar 0
AnchorPoint: "Anchor-16" 368 871 basechar 0
AnchorPoint: "Anchor-15" 409 0 basechar 0
AnchorPoint: "Anchor-14" 251 0 basechar 0
LayerCount: 2
Fore
SplineSet
590 1019 m 1
 641 965 l 1
 491 839 l 1
 455 874 l 1
 590 1019 l 1
226 716 m 1
 189 761 l 1
 338 871 l 1
 398 871 l 1
 517 761 l 1
 476 716 l 1
 361 797 l 1
 226 716 l 1
528 689 m 1
 507 613 l 1
 242 613 l 1
 210 388 l 1
 440 388 l 1
 430 312 l 1
 200 312 l 1
 167 76 l 1
 450 76 l 1
 439 0 l 1
 62 0 l 1
 159 689 l 1
 528 689 l 1
EndSplineSet
Validated: 1
Substitution2: "'c2sc' Capitals to Small Capitals lookup 36 subtable" uni1EBF.sc
Substitution2: "'aalt' Access All Alternates lookup 0 subtable" uni1EBF.sc
Position2: "'cpsp' Capital Spacing lookup 0 subtable" dx=5 dy=0 dh=10 dv=0
EndChar

StartChar: uni1EC6
Encoding: 7878 7878 47
Width: 529
GlyphClass: 2
Flags: MW
HStem: -199 125<218.5 247.5> 0 76<167 439> 312 76<210 430 200 440> 613 76<242 507 242 242>
VStem: 169 128<-150.5 -122.5>
AnchorPoint: "Anchor-18" 0 0 basechar 0
AnchorPoint: "Anchor-17" 474 786 basechar 0
AnchorPoint: "Anchor-16" 374 914 basechar 0
AnchorPoint: "Anchor-15" 409 0 basechar 0
AnchorPoint: "Anchor-14" 231 -199 basechar 0
LayerCount: 2
Fore
SplineSet
232 759 m 1
 195 804 l 1
 344 914 l 1
 404 914 l 1
 523 804 l 1
 482 759 l 1
 367 840 l 1
 232 759 l 1
528 689 m 1
 507 613 l 1
 242 613 l 1
 210 388 l 1
 440 388 l 1
 430 312 l 1
 200 312 l 1
 167 76 l 1
 450 76 l 1
 439 0 l 1
 62 0 l 1
 159 689 l 1
 528 689 l 1
238 -74 m 0
 274 -74 297 -99 297 -131 c 0
 297 -170 267 -199 228 -199 c 0
 192 -199 169 -174 169 -142 c 0
 169 -103 199 -74 238 -74 c 0
EndSplineSet
Validated: 1
Substitution2: "'c2sc' Capitals to Small Capitals lookup 36 subtable" uni1EC7.sc
Substitution2: "'aalt' Access All Alternates lookup 0 subtable" uni1EC7.sc
Position2: "'cpsp' Capital Spacing lookup 0 subtable" dx=5 dy=0 dh=10 dv=0
EndChar

StartChar: uni1EC0
Encoding: 7872 7872 48
Width: 529
GlyphClass: 2
Flags: MW
HStem: 0 76<167 439> 312 76<210 430 200 440> 613 76<242 507 242 242>
VStem: 62 466
AnchorPoint: "Anchor-18" 0 0 basechar 0
AnchorPoint: "Anchor-17" 465 743 basechar 0
AnchorPoint: "Anchor-16" 365 871 basechar 0
AnchorPoint: "Anchor-15" 409 0 basechar 0
AnchorPoint: "Anchor-14" 251 0 basechar 0
LayerCount: 2
Fore
SplineSet
174 1017 m 1
 271 870 l 1
 233 839 l 1
 115 966 l 1
 174 1017 l 1
223 716 m 1
 186 761 l 1
 335 871 l 1
 395 871 l 1
 514 761 l 1
 473 716 l 1
 358 797 l 1
 223 716 l 1
528 689 m 1
 507 613 l 1
 242 613 l 1
 210 388 l 1
 440 388 l 1
 430 312 l 1
 200 312 l 1
 167 76 l 1
 450 76 l 1
 439 0 l 1
 62 0 l 1
 159 689 l 1
 528 689 l 1
EndSplineSet
Validated: 1
Substitution2: "'c2sc' Capitals to Small Capitals lookup 36 subtable" uni1EC1.sc
Substitution2: "'aalt' Access All Alternates lookup 0 subtable" uni1EC1.sc
Position2: "'cpsp' Capital Spacing lookup 0 subtable" dx=5 dy=0 dh=10 dv=0
EndChar

StartChar: uni1EC2
Encoding: 7874 7874 49
Width: 529
GlyphClass: 2
Flags: MW
HStem: 0 76<167 439> 312 76<210 430 200 440> 613 76<242 507 242 242> 817 54 980 62<522.5 537>
VStem: 477.5 67 562 78<934 961.5>
AnchorPoint: "Anchor-18" 0 0 basechar 0
AnchorPoint: "Anchor-17" 466 743 basechar 0
AnchorPoint: "Anchor-16" 542 1042 basechar 0
AnchorPoint: "Anchor-15" 409 0 basechar 0
AnchorPoint: "Anchor-14" 251 0 basechar 0
LayerCount: 2
Fore
SplineSet
473 817 m 1
 482 901 l 1
 525 907 562 916 562 952 c 0
 562 971 548 980 526 980 c 0
 503 980 484 974 466 964 c 1
 448 1019 l 1
 474 1033 503 1042 542 1042 c 0
 605 1042 640 1006 640 955 c 0xfa
 640 899 604 874 548 865 c 1
 541 817 l 1
 473 817 l 1
224 716 m 1
 187 761 l 1
 336 871 l 1
 396 871 l 1
 515 761 l 1
 474 716 l 1
 359 797 l 1
 224 716 l 1
528 689 m 1
 507 613 l 1
 242 613 l 1
 210 388 l 1
 440 388 l 1
 430 312 l 1
 200 312 l 1
 167 76 l 1
 450 76 l 1
 439 0 l 1
 62 0 l 1
 159 689 l 1
 528 689 l 1
EndSplineSet
Validated: 1
Substitution2: "'c2sc' Capitals to Small Capitals lookup 36 subtable" uni1EC3.sc
Substitution2: "'aalt' Access All Alternates lookup 0 subtable" uni1EC3.sc
Position2: "'cpsp' Capital Spacing lookup 0 subtable" dx=5 dy=0 dh=10 dv=0
EndChar

StartChar: uni1EC4
Encoding: 7876 7876 50
Width: 529
GlyphClass: 2
Flags: MW
HStem: 0 76<167 439> 312 76<210 430 200 440> 613 76<242 507 242 242> 900 70<422 449 422 459.5> 948 70<316.5 344.5>
VStem: 62 491
AnchorPoint: "Anchor-18" 0 0 basechar 0
AnchorPoint: "Anchor-17" 466 743 basechar 0
AnchorPoint: "Anchor-16" 386 1018 basechar 0
AnchorPoint: "Anchor-15" 409 0 basechar 0
AnchorPoint: "Anchor-14" 251 0 basechar 0
LayerCount: 2
Fore
SplineSet
440 900 m 0xf4
 381 900 360 948 329 948 c 0
 304 948 286 930 266 900 c 1
 214 932 l 1
 244 981 283 1018 331 1018 c 0xec
 388 1018 406 970 438 970 c 0
 460 970 478 986 499 1016 c 1
 553 984 l 1
 519 927 479 900 440 900 c 0xf4
224 716 m 1
 187 761 l 1
 336 871 l 1
 396 871 l 1
 515 761 l 1
 474 716 l 1
 359 797 l 1
 224 716 l 1
528 689 m 1
 507 613 l 1
 242 613 l 1
 210 388 l 1
 440 388 l 1
 430 312 l 1
 200 312 l 1
 167 76 l 1
 450 76 l 1
 439 0 l 1
 62 0 l 1
 159 689 l 1
 528 689 l 1
EndSplineSet
Validated: 1
Substitution2: "'c2sc' Capitals to Small Capitals lookup 36 subtable" uni1EC5.sc
Substitution2: "'aalt' Access All Alternates lookup 0 subtable" uni1EC5.sc
Position2: "'cpsp' Capital Spacing lookup 0 subtable" dx=5 dy=0 dh=10 dv=0
EndChar

StartChar: Edieresis
Encoding: 203 203 51
Width: 529
GlyphClass: 2
Flags: MW
HStem: 0 76<167 439> 312 76<210 430 200 440> 613 76<242 507 242 242> 780 113<253 279 461 487>
VStem: 208 116<824 849> 416 116<824 849>
AnchorPoint: "Anchor-18" 0 0 basechar 0
AnchorPoint: "Anchor-17" 0 0 basechar 0
AnchorPoint: "Anchor-16" 370 894 basechar 0
AnchorPoint: "Anchor-15" 409 0 basechar 0
AnchorPoint: "Anchor-14" 251 0 basechar 0
LayerCount: 2
Fore
SplineSet
261 780 m 0
 230 780 208 802 208 831 c 0
 208 867 235 893 271 893 c 0
 302 893 324 871 324 842 c 0
 324 806 297 780 261 780 c 0
469 780 m 0
 438 780 416 802 416 831 c 0
 416 867 443 893 479 893 c 0
 510 893 532 871 532 842 c 0
 532 806 505 780 469 780 c 0
528 689 m 1
 507 613 l 1
 242 613 l 1
 210 388 l 1
 440 388 l 1
 430 312 l 1
 200 312 l 1
 167 76 l 1
 450 76 l 1
 439 0 l 1
 62 0 l 1
 159 689 l 1
 528 689 l 1
EndSplineSet
Validated: 1
Substitution2: "'c2sc' Capitals to Small Capitals lookup 36 subtable" edieresis.sc
Substitution2: "'aalt' Access All Alternates lookup 0 subtable" edieresis.sc
Position2: "'cpsp' Capital Spacing lookup 0 subtable" dx=5 dy=0 dh=10 dv=0
EndChar

StartChar: Edotaccent
Encoding: 278 278 52
Width: 529
GlyphClass: 2
Flags: MW
HStem: 0 76<167 439> 312 76<210 430 200 440> 613 76<242 507 242 242> 781 125<357.5 386.5>
VStem: 308 128<829.5 857.5>
AnchorPoint: "Anchor-18" 0 0 basechar 0
AnchorPoint: "Anchor-17" 0 0 basechar 0
AnchorPoint: "Anchor-16" 374 906 basechar 0
AnchorPoint: "Anchor-15" 409 0 basechar 0
AnchorPoint: "Anchor-14" 251 0 basechar 0
LayerCount: 2
Fore
SplineSet
367 781 m 0
 331 781 308 806 308 838 c 0
 308 877 338 906 377 906 c 0
 413 906 436 881 436 849 c 0
 436 810 406 781 367 781 c 0
528 689 m 1
 507 613 l 1
 242 613 l 1
 210 388 l 1
 440 388 l 1
 430 312 l 1
 200 312 l 1
 167 76 l 1
 450 76 l 1
 439 0 l 1
 62 0 l 1
 159 689 l 1
 528 689 l 1
EndSplineSet
Validated: 1
Substitution2: "'c2sc' Capitals to Small Capitals lookup 36 subtable" edotaccent.sc
Substitution2: "'aalt' Access All Alternates lookup 0 subtable" edotaccent.sc
Position2: "'cpsp' Capital Spacing lookup 0 subtable" dx=5 dy=0 dh=10 dv=0
EndChar

StartChar: uni1EB8
Encoding: 7864 7864 53
Width: 529
GlyphClass: 2
Flags: MW
HStem: -199 125<218.5 247.5> 0 76<167 439> 312 76<210 430 200 440> 613 76<242 507 242 242>
VStem: 169 128<-150.5 -122.5>
AnchorPoint: "Anchor-18" 0 0 basechar 0
AnchorPoint: "Anchor-17" 0 0 basechar 0
AnchorPoint: "Anchor-16" 347 689 basechar 0
AnchorPoint: "Anchor-15" 409 0 basechar 0
AnchorPoint: "Anchor-14" 231 -199 basechar 0
LayerCount: 2
Fore
SplineSet
528 689 m 1
 507 613 l 1
 242 613 l 1
 210 388 l 1
 440 388 l 1
 430 312 l 1
 200 312 l 1
 167 76 l 1
 450 76 l 1
 439 0 l 1
 62 0 l 1
 159 689 l 1
 528 689 l 1
238 -74 m 0
 274 -74 297 -99 297 -131 c 0
 297 -170 267 -199 228 -199 c 0
 192 -199 169 -174 169 -142 c 0
 169 -103 199 -74 238 -74 c 0
EndSplineSet
Validated: 1
Substitution2: "'c2sc' Capitals to Small Capitals lookup 36 subtable" uni1EB9.sc
Substitution2: "'aalt' Access All Alternates lookup 0 subtable" uni1EB9.sc
Position2: "'cpsp' Capital Spacing lookup 0 subtable" dx=5 dy=0 dh=10 dv=0
EndChar

StartChar: Egrave
Encoding: 200 200 54
Width: 529
GlyphClass: 2
Flags: MW
HStem: 0 76<167 439> 312 76<210 430 200 440> 613 76<242 507 242 242>
VStem: 62 466
AnchorPoint: "Anchor-18" 0 0 basechar 0
AnchorPoint: "Anchor-17" 0 0 basechar 0
AnchorPoint: "Anchor-16" 369 911 basechar 0
AnchorPoint: "Anchor-15" 409 0 basechar 0
AnchorPoint: "Anchor-14" 251 0 basechar 0
LayerCount: 2
Fore
SplineSet
297 907 m 1
 483 803 l 1
 454 754 l 1
 255 830 l 1
 297 907 l 1
528 689 m 1
 507 613 l 1
 242 613 l 1
 210 388 l 1
 440 388 l 1
 430 312 l 1
 200 312 l 1
 167 76 l 1
 450 76 l 1
 439 0 l 1
 62 0 l 1
 159 689 l 1
 528 689 l 1
EndSplineSet
Validated: 1
Substitution2: "'c2sc' Capitals to Small Capitals lookup 36 subtable" egrave.sc
Substitution2: "'aalt' Access All Alternates lookup 0 subtable" egrave.sc
Position2: "'cpsp' Capital Spacing lookup 0 subtable" dx=5 dy=0 dh=10 dv=0
EndChar

StartChar: uni1EBA
Encoding: 7866 7866 55
Width: 529
GlyphClass: 2
Flags: MW
HStem: 0 76<167 439> 312 76<210 430 200 440> 613 76<242 507 242 242> 763 84<324 333 333 333 333 392> 926 62<373.5 388>
VStem: 328.5 67 413 78<880 907.5>
AnchorPoint: "Anchor-18" 0 0 basechar 0
AnchorPoint: "Anchor-17" 0 0 basechar 0
AnchorPoint: "Anchor-16" 393 988 basechar 0
AnchorPoint: "Anchor-15" 409 0 basechar 0
AnchorPoint: "Anchor-14" 251 0 basechar 0
LayerCount: 2
Fore
SplineSet
324 763 m 1
 333 847 l 1
 376 853 413 862 413 898 c 0
 413 917 399 926 377 926 c 0
 354 926 335 920 317 910 c 1
 299 965 l 1
 325 979 354 988 393 988 c 0
 456 988 491 952 491 901 c 0xfa
 491 845 455 820 399 811 c 1
 392 763 l 1
 324 763 l 1
528 689 m 1
 507 613 l 1
 242 613 l 1
 210 388 l 1
 440 388 l 1
 430 312 l 1
 200 312 l 1
 167 76 l 1
 450 76 l 1
 439 0 l 1
 62 0 l 1
 159 689 l 1
 528 689 l 1
EndSplineSet
Validated: 1
Substitution2: "'c2sc' Capitals to Small Capitals lookup 36 subtable" uni1EBB.sc
Substitution2: "'aalt' Access All Alternates lookup 0 subtable" uni1EBB.sc
Position2: "'cpsp' Capital Spacing lookup 0 subtable" dx=5 dy=0 dh=10 dv=0
EndChar

StartChar: Emacron
Encoding: 274 274 56
Width: 529
GlyphClass: 2
Flags: MW
HStem: 0 76<167 439> 312 76<210 430 200 440> 613 76<242 507 242 242> 793 69<237 499 228 508>
VStem: 62 466
AnchorPoint: "Anchor-18" 0 0 basechar 0
AnchorPoint: "Anchor-17" 0 0 basechar 0
AnchorPoint: "Anchor-16" 368 862 basechar 0
AnchorPoint: "Anchor-15" 409 0 basechar 0
AnchorPoint: "Anchor-14" 251 0 basechar 0
LayerCount: 2
Fore
SplineSet
499 793 m 1
 228 793 l 1
 237 862 l 1
 508 862 l 1
 499 793 l 1
528 689 m 1
 507 613 l 1
 242 613 l 1
 210 388 l 1
 440 388 l 1
 430 312 l 1
 200 312 l 1
 167 76 l 1
 450 76 l 1
 439 0 l 1
 62 0 l 1
 159 689 l 1
 528 689 l 1
EndSplineSet
Validated: 1
Substitution2: "'c2sc' Capitals to Small Capitals lookup 36 subtable" emacron.sc
Substitution2: "'aalt' Access All Alternates lookup 0 subtable" emacron.sc
Position2: "'cpsp' Capital Spacing lookup 0 subtable" dx=5 dy=0 dh=10 dv=0
EndChar

StartChar: Eogonek
Encoding: 280 280 57
Width: 529
GlyphClass: 2
Flags: MW
HStem: -231 70<291 305> 0 76<167 289 401 439 401 401> 312 76<210 430 200 440> 613 76<242 507 242 242>
VStem: 179 80<-137 -114.5>
AnchorPoint: "Anchor-18" 0 0 basechar 0
AnchorPoint: "Anchor-17" 0 0 basechar 0
AnchorPoint: "Anchor-16" 347 689 basechar 0
AnchorPoint: "Anchor-15" 409 0 basechar 0
AnchorPoint: "Anchor-14" 251 0 basechar 0
LayerCount: 2
Fore
SplineSet
507 613 m 1
 242 613 l 1
 210 388 l 1
 440 388 l 1
 430 312 l 1
 200 312 l 1
 167 76 l 1
 450 76 l 1
 439 0 l 1
 401 0 l 1
 275 -52 259 -95 259 -126 c 0
 259 -148 276 -161 306 -161 c 0
 328 -161 345 -158 369 -153 c 1
 354 -225 l 1
 334 -229 317 -231 293 -231 c 0
 221 -231 179 -190 179 -137 c 0
 179 -92 201 -42 289 0 c 1
 62 0 l 1
 159 689 l 1
 528 689 l 1
 507 613 l 1
EndSplineSet
Validated: 1
Substitution2: "'c2sc' Capitals to Small Capitals lookup 36 subtable" eogonek.sc
Substitution2: "'aalt' Access All Alternates lookup 0 subtable" eogonek.sc
Position2: "'cpsp' Capital Spacing lookup 0 subtable" dx=5 dy=0 dh=10 dv=0
EndChar

StartChar: uni1EBC
Encoding: 7868 7868 58
Width: 529
GlyphClass: 2
Flags: MW
HStem: 0 76<167 439> 312 76<210 430 200 440> 613 76<242 507 242 242> 782 70<407 434 407 444.5> 830 70<301.5 329.5>
VStem: 62 476
AnchorPoint: "Anchor-18" 0 0 basechar 0
AnchorPoint: "Anchor-17" 0 0 basechar 0
AnchorPoint: "Anchor-16" 371 900 basechar 0
AnchorPoint: "Anchor-15" 409 0 basechar 0
AnchorPoint: "Anchor-14" 251 0 basechar 0
LayerCount: 2
Fore
SplineSet
425 782 m 0xf4
 366 782 345 830 314 830 c 0
 289 830 271 812 251 782 c 1
 199 814 l 1
 229 863 268 900 316 900 c 0xec
 373 900 391 852 423 852 c 0
 445 852 463 868 484 898 c 1
 538 866 l 1
 504 809 464 782 425 782 c 0xf4
528 689 m 1
 507 613 l 1
 242 613 l 1
 210 388 l 1
 440 388 l 1
 430 312 l 1
 200 312 l 1
 167 76 l 1
 450 76 l 1
 439 0 l 1
 62 0 l 1
 159 689 l 1
 528 689 l 1
EndSplineSet
Validated: 1
Substitution2: "'c2sc' Capitals to Small Capitals lookup 36 subtable" uni1EBD.sc
Substitution2: "'aalt' Access All Alternates lookup 0 subtable" uni1EBD.sc
Position2: "'cpsp' Capital Spacing lookup 0 subtable" dx=5 dy=0 dh=10 dv=0
EndChar

StartChar: F
Encoding: 70 70 59
Width: 485
GlyphClass: 2
Flags: MW
HStem: 0 21G<62 156 62 62> 303 75<209 422 199 432> 613 76<242 500 242 242>
VStem: 62 459
AnchorPoint: "Anchor-18" 0 0 basechar 0
AnchorPoint: "Anchor-17" 0 0 basechar 0
AnchorPoint: "Anchor-16" 340 689 basechar 0
AnchorPoint: "Anchor-15" 0 0 basechar 0
AnchorPoint: "Anchor-14" 109 0 basechar 0
LayerCount: 2
Fore
SplineSet
521 689 m 1
 500 613 l 1
 242 613 l 1
 209 378 l 1
 432 378 l 1
 422 303 l 1
 199 303 l 1
 156 0 l 1
 62 0 l 1
 159 689 l 1
 521 689 l 1
EndSplineSet
Validated: 1
Substitution2: "'c2sc' Capitals to Small Capitals lookup 36 subtable" f.sc
Substitution2: "'aalt' Access All Alternates lookup 0 subtable" f.sc
Position2: "'cpsp' Capital Spacing lookup 0 subtable" dx=5 dy=0 dh=10 dv=0
EndChar

StartChar: uni1E1E
Encoding: 7710 7710 60
Width: 485
GlyphClass: 2
Flags: MW
HStem: 0 21G<62 156 62 62> 303 75<209 422 199 432> 613 76<242 500 242 242> 781 125<350.5 379.5>
VStem: 301 128<829.5 857.5>
AnchorPoint: "Anchor-18" 0 0 basechar 0
AnchorPoint: "Anchor-17" 0 0 basechar 0
AnchorPoint: "Anchor-16" 367 906 basechar 0
AnchorPoint: "Anchor-15" 0 0 basechar 0
AnchorPoint: "Anchor-14" 109 0 basechar 0
LayerCount: 2
Fore
SplineSet
360 781 m 0
 324 781 301 806 301 838 c 0
 301 877 331 906 370 906 c 0
 406 906 429 881 429 849 c 0
 429 810 399 781 360 781 c 0
521 689 m 1
 500 613 l 1
 242 613 l 1
 209 378 l 1
 432 378 l 1
 422 303 l 1
 199 303 l 1
 156 0 l 1
 62 0 l 1
 159 689 l 1
 521 689 l 1
EndSplineSet
Validated: 1
Substitution2: "'c2sc' Capitals to Small Capitals lookup 36 subtable" uni1E1F.sc
Substitution2: "'aalt' Access All Alternates lookup 0 subtable" uni1E1F.sc
Position2: "'cpsp' Capital Spacing lookup 0 subtable" dx=5 dy=0 dh=10 dv=0
EndChar

StartChar: G
Encoding: 71 71 61
Width: 625
GlyphClass: 2
Flags: MW
HStem: -12 78<264 337 264 349> 305 77<356 476 356 580> 623 78<316.5 435.5>
VStem: 60 99<183 330 183 358>
AnchorPoint: "Anchor-18" 0 0 basechar 0
AnchorPoint: "Anchor-17" 0 0 basechar 0
AnchorPoint: "Anchor-16" 412 689 basechar 0
AnchorPoint: "Anchor-15" 0 0 basechar 0
AnchorPoint: "Anchor-14" 303 0 basechar 0
LayerCount: 2
Fore
SplineSet
405 701 m 0
 494 701 555 672 607 622 c 1
 548 571 l 1
 502 608 465 623 406 623 c 0
 227 623 159 413 159 247 c 0
 159 119 213 66 315 66 c 0
 359 66 404 76 446 100 c 1
 476 305 l 1
 356 305 l 1
 356 382 l 1
 580 382 l 1
 535 54 l 1
 468 11 396 -12 302 -12 c 0
 154 -12 60 79 60 259 c 0
 60 457 163 701 405 701 c 0
EndSplineSet
Validated: 1
Substitution2: "'c2sc' Capitals to Small Capitals lookup 36 subtable" g.sc
Substitution2: "'aalt' Access All Alternates lookup 0 subtable" g.sc
Position2: "'cpsp' Capital Spacing lookup 0 subtable" dx=5 dy=0 dh=10 dv=0
EndChar

StartChar: Gbreve
Encoding: 286 286 62
Width: 625
GlyphClass: 2
Flags: MW
HStem: -12 78<264 337 264 349> 305 77<356 476 356 580> 623 78<316.5 435.5> 758 70<401.5 448 401.5 461>
VStem: 60 99<183 330 183 358>
AnchorPoint: "Anchor-18" 0 0 basechar 0
AnchorPoint: "Anchor-17" 0 0 basechar 0
AnchorPoint: "Anchor-16" 439 896 basechar 0
AnchorPoint: "Anchor-15" 0 0 basechar 0
AnchorPoint: "Anchor-14" 303 0 basechar 0
LayerCount: 2
Fore
SplineSet
422 758 m 0
 341 758 286 810 288 884 c 1
 347 892 l 1
 356 852 379 828 424 828 c 0
 472 828 508 856 527 896 c 1
 587 878 l 1
 569 804 500 758 422 758 c 0
405 701 m 0
 494 701 555 672 607 622 c 1
 548 571 l 1
 502 608 465 623 406 623 c 0
 227 623 159 413 159 247 c 0
 159 119 213 66 315 66 c 0
 359 66 404 76 446 100 c 1
 476 305 l 1
 356 305 l 1
 356 382 l 1
 580 382 l 1
 535 54 l 1
 468 11 396 -12 302 -12 c 0
 154 -12 60 79 60 259 c 0
 60 457 163 701 405 701 c 0
EndSplineSet
Validated: 33
Substitution2: "'c2sc' Capitals to Small Capitals lookup 36 subtable" gbreve.sc
Substitution2: "'aalt' Access All Alternates lookup 0 subtable" gbreve.sc
Position2: "'cpsp' Capital Spacing lookup 0 subtable" dx=5 dy=0 dh=10 dv=0
EndChar

StartChar: Gcircumflex
Encoding: 284 284 63
Width: 625
GlyphClass: 2
Flags: MW
HStem: -12 78<264 337 264 349> 305 77<356 476 356 580> 623 78<316.5 435.5>
VStem: 60 99<183 330 183 358>
AnchorPoint: "Anchor-18" 0 0 basechar 0
AnchorPoint: "Anchor-17" 539 786 basechar 0
AnchorPoint: "Anchor-16" 439 914 basechar 0
AnchorPoint: "Anchor-15" 0 0 basechar 0
AnchorPoint: "Anchor-14" 303 0 basechar 0
LayerCount: 2
Fore
SplineSet
297 759 m 1
 260 804 l 1
 409 914 l 1
 469 914 l 1
 588 804 l 1
 547 759 l 1
 432 840 l 1
 297 759 l 1
405 701 m 0
 494 701 555 672 607 622 c 1
 548 571 l 1
 502 608 465 623 406 623 c 0
 227 623 159 413 159 247 c 0
 159 119 213 66 315 66 c 0
 359 66 404 76 446 100 c 1
 476 305 l 1
 356 305 l 1
 356 382 l 1
 580 382 l 1
 535 54 l 1
 468 11 396 -12 302 -12 c 0
 154 -12 60 79 60 259 c 0
 60 457 163 701 405 701 c 0
EndSplineSet
Validated: 1
Substitution2: "'c2sc' Capitals to Small Capitals lookup 36 subtable" gcircumflex.sc
Substitution2: "'aalt' Access All Alternates lookup 0 subtable" gcircumflex.sc
Position2: "'cpsp' Capital Spacing lookup 0 subtable" dx=5 dy=0 dh=10 dv=0
EndChar

StartChar: uni0122
Encoding: 290 290 64
Width: 625
GlyphClass: 2
Flags: MW
HStem: -12 78<264 337 264 349> 305 77<356 476 356 580> 623 78<316.5 435.5>
VStem: 60 99<183 330 183 358> 231 113<-141 -119>
AnchorPoint: "Anchor-18" 0 0 basechar 0
AnchorPoint: "Anchor-17" 0 0 basechar 0
AnchorPoint: "Anchor-16" 412 689 basechar 0
AnchorPoint: "Anchor-15" 0 0 basechar 0
AnchorPoint: "Anchor-14" 303 0 basechar 0
LayerCount: 2
Fore
SplineSet
405 701 m 0
 494 701 555 672 607 622 c 1
 548 571 l 1
 502 608 465 623 406 623 c 0
 227 623 159 413 159 247 c 0
 159 119 213 66 315 66 c 0
 359 66 404 76 446 100 c 1
 476 305 l 1
 356 305 l 1
 356 382 l 1
 580 382 l 1
 535 54 l 1
 468 11 396 -12 302 -12 c 0
 154 -12 60 79 60 259 c 0
 60 457 163 701 405 701 c 0
292 -77 m 0
 326 -77 344 -104 344 -129 c 0
 344 -153 335 -171 308 -214 c 2
 256 -296 l 1
 202 -296 l 1
 250 -178 l 1
 240 -168 231 -153 231 -136 c 0
 231 -102 259 -77 292 -77 c 0
EndSplineSet
Validated: 1
Substitution2: "'c2sc' Capitals to Small Capitals lookup 36 subtable" uni0123.sc
Substitution2: "'aalt' Access All Alternates lookup 0 subtable" uni0123.sc
Position2: "'cpsp' Capital Spacing lookup 0 subtable" dx=5 dy=0 dh=10 dv=0
EndChar

StartChar: Gdotaccent
Encoding: 288 288 65
Width: 625
GlyphClass: 2
Flags: MW
HStem: -12 78<264 337 264 349> 305 77<356 476 356 580> 623 78<316.5 435.5> 781 125<422.5 451.5>
VStem: 60 99<183 330 183 358> 373 128<829.5 857.5>
AnchorPoint: "Anchor-18" 0 0 basechar 0
AnchorPoint: "Anchor-17" 0 0 basechar 0
AnchorPoint: "Anchor-16" 439 906 basechar 0
AnchorPoint: "Anchor-15" 0 0 basechar 0
AnchorPoint: "Anchor-14" 303 0 basechar 0
LayerCount: 2
Fore
SplineSet
432 781 m 0
 396 781 373 806 373 838 c 0
 373 877 403 906 442 906 c 0
 478 906 501 881 501 849 c 0
 501 810 471 781 432 781 c 0
405 701 m 0
 494 701 555 672 607 622 c 1
 548 571 l 1
 502 608 465 623 406 623 c 0
 227 623 159 413 159 247 c 0
 159 119 213 66 315 66 c 0
 359 66 404 76 446 100 c 1
 476 305 l 1
 356 305 l 1
 356 382 l 1
 580 382 l 1
 535 54 l 1
 468 11 396 -12 302 -12 c 0
 154 -12 60 79 60 259 c 0
 60 457 163 701 405 701 c 0
EndSplineSet
Validated: 1
Substitution2: "'c2sc' Capitals to Small Capitals lookup 36 subtable" gdotaccent.sc
Substitution2: "'aalt' Access All Alternates lookup 0 subtable" gdotaccent.sc
Position2: "'cpsp' Capital Spacing lookup 0 subtable" dx=5 dy=0 dh=10 dv=0
EndChar

StartChar: H
Encoding: 72 72 66
Width: 674
GlyphClass: 2
Flags: MW
HStem: 0 21G<62 156 62 62 444 444 444 538> 323 78<212 489 201 500> 669 20G<159 253 253 253 541 635 635 635>
VStem: 62 573
AnchorPoint: "Anchor-18" 348 345 basechar 0
AnchorPoint: "Anchor-17" 0 0 basechar 0
AnchorPoint: "Anchor-16" 397 689 basechar 0
AnchorPoint: "Anchor-15" 0 0 basechar 0
AnchorPoint: "Anchor-14" 308 0 basechar 0
LayerCount: 2
Fore
SplineSet
156 0 m 1
 62 0 l 1
 159 689 l 1
 253 689 l 1
 212 401 l 1
 500 401 l 1
 541 689 l 1
 635 689 l 1
 538 0 l 1
 444 0 l 1
 489 323 l 1
 201 323 l 1
 156 0 l 1
EndSplineSet
Validated: 1
Substitution2: "'c2sc' Capitals to Small Capitals lookup 36 subtable" h.sc
Substitution2: "'aalt' Access All Alternates lookup 0 subtable" h.sc
Position2: "'cpsp' Capital Spacing lookup 0 subtable" dx=5 dy=0 dh=10 dv=0
EndChar

StartChar: Hbar
Encoding: 294 294 67
Width: 682
GlyphClass: 2
Flags: MW
HStem: 0 21G<65 159 65 65 447 541 447 447> 323 78<215 492 204 503> 508 69<79 137 69 146 240 518 622 681> 508 181<69 256 69 256 230 230 230 256 162 518 613 638 613 613>
VStem: 65 626<0 577>
AnchorPoint: "Anchor-18" 351 345 basechar 0
AnchorPoint: "Anchor-17" 0 0 basechar 0
AnchorPoint: "Anchor-16" 400 689 basechar 0
AnchorPoint: "Anchor-15" 0 0 basechar 0
AnchorPoint: "Anchor-14" 311 0 basechar 0
LayerCount: 2
Fore
SplineSet
691 577 m 1xe8
 681 508 l 1
 613 508 l 1
 541 0 l 1
 447 0 l 1
 492 323 l 1
 204 323 l 1
 159 0 l 1
 65 0 l 1
 137 508 l 1
 69 508 l 1
 79 577 l 1
 146 577 l 1xe8
 162 689 l 1
 256 689 l 1xd8
 240 577 l 1
 528 577 l 1xe8
 544 689 l 1
 638 689 l 1xd8
 622 577 l 1
 691 577 l 1xe8
503 401 m 1
 518 508 l 1
 230 508 l 1
 215 401 l 1
 503 401 l 1
EndSplineSet
Validated: 1
Substitution2: "'c2sc' Capitals to Small Capitals lookup 36 subtable" hbar.sc
Substitution2: "'aalt' Access All Alternates lookup 0 subtable" hbar.sc
Position2: "'cpsp' Capital Spacing lookup 0 subtable" dx=5 dy=0 dh=10 dv=0
EndChar

StartChar: Hcircumflex
Encoding: 292 292 68
Width: 674
GlyphClass: 2
Flags: MW
HStem: 0 21G<62 156 62 62 444 444 444 538> 323 78<212 489 201 500> 669 20G<159 253 253 253 541 635 635 635>
VStem: 62 573
AnchorPoint: "Anchor-18" 348 345 basechar 0
AnchorPoint: "Anchor-17" 524 786 basechar 0
AnchorPoint: "Anchor-16" 424 914 basechar 0
AnchorPoint: "Anchor-15" 0 0 basechar 0
AnchorPoint: "Anchor-14" 308 0 basechar 0
LayerCount: 2
Fore
SplineSet
282 759 m 1
 245 804 l 1
 394 914 l 1
 454 914 l 1
 573 804 l 1
 532 759 l 1
 417 840 l 1
 282 759 l 1
156 0 m 1
 62 0 l 1
 159 689 l 1
 253 689 l 1
 212 401 l 1
 500 401 l 1
 541 689 l 1
 635 689 l 1
 538 0 l 1
 444 0 l 1
 489 323 l 1
 201 323 l 1
 156 0 l 1
EndSplineSet
Validated: 1
Substitution2: "'c2sc' Capitals to Small Capitals lookup 36 subtable" hcircumflex.sc
Substitution2: "'aalt' Access All Alternates lookup 0 subtable" hcircumflex.sc
Position2: "'cpsp' Capital Spacing lookup 0 subtable" dx=5 dy=0 dh=10 dv=0
EndChar

StartChar: uni1E24
Encoding: 7716 7716 69
Width: 674
GlyphClass: 2
Flags: MW
HStem: -199 125<275.5 304.5> 0 21G<62 156 62 62 444 444 444 538> 323 78<212 489 201 500> 669 20G<159 253 253 253 541 635 635 635>
VStem: 226 128<-150.5 -122.5>
AnchorPoint: "Anchor-18" 348 345 basechar 0
AnchorPoint: "Anchor-17" 0 0 basechar 0
AnchorPoint: "Anchor-16" 397 689 basechar 0
AnchorPoint: "Anchor-15" 0 0 basechar 0
AnchorPoint: "Anchor-14" 288 -199 basechar 0
LayerCount: 2
Fore
SplineSet
156 0 m 1
 62 0 l 1
 159 689 l 1
 253 689 l 1
 212 401 l 1
 500 401 l 1
 541 689 l 1
 635 689 l 1
 538 0 l 1
 444 0 l 1
 489 323 l 1
 201 323 l 1
 156 0 l 1
295 -74 m 0
 331 -74 354 -99 354 -131 c 0
 354 -170 324 -199 285 -199 c 0
 249 -199 226 -174 226 -142 c 0
 226 -103 256 -74 295 -74 c 0
EndSplineSet
Validated: 1
Substitution2: "'c2sc' Capitals to Small Capitals lookup 36 subtable" uni1E25.sc
Substitution2: "'aalt' Access All Alternates lookup 0 subtable" uni1E25.sc
Position2: "'cpsp' Capital Spacing lookup 0 subtable" dx=5 dy=0 dh=10 dv=0
EndChar

StartChar: I
Encoding: 73 73 70
Width: 292
GlyphClass: 2
Flags: MW
HStem: 0 21G<62 156 62 62> 669 20G<159 253 253 253>
VStem: 62 191
AnchorPoint: "Anchor-18" 0 0 basechar 0
AnchorPoint: "Anchor-17" 0 0 basechar 0
AnchorPoint: "Anchor-16" 206 689 basechar 0
AnchorPoint: "Anchor-15" 144 0 basechar 0
AnchorPoint: "Anchor-14" 108 0 basechar 0
LayerCount: 2
Fore
SplineSet
253 689 m 1
 156 0 l 1
 62 0 l 1
 159 689 l 1
 253 689 l 1
EndSplineSet
Validated: 1
Substitution2: "'c2sc' Capitals to Small Capitals lookup 36 subtable" i.sc
Substitution2: "'aalt' Access All Alternates lookup 0 subtable" i.sc
Position2: "'cpsp' Capital Spacing lookup 0 subtable" dx=5 dy=0 dh=10 dv=0
EndChar

StartChar: IJ
Encoding: 306 306 71
Width: 592
GlyphClass: 2
Flags: MW
HStem: 0 21G<62 156 62 62> 669 20G<159 253 253 253 464 558 558 558>
VStem: 62 496
AnchorPoint: "Anchor-18" 0 0 basechar 0
AnchorPoint: "Anchor-17" 0 0 basechar 0
AnchorPoint: "Anchor-16" 511 689 basechar 0
AnchorPoint: "Anchor-15" 144 0 basechar 0
AnchorPoint: "Anchor-14" 108 0 basechar 0
LayerCount: 2
Fore
SplineSet
253 689 m 1
 156 0 l 1
 62 0 l 1
 159 689 l 1
 253 689 l 1
558 689 m 1
 474 93 l 2
 454 -51 380 -103 266 -138 c 1
 247 -67 l 1
 342 -31 369 11 381 103 c 2
 464 689 l 1
 558 689 l 1
EndSplineSet
Validated: 1
Substitution2: "'c2sc' Capitals to Small Capitals lookup 36 subtable" ij.sc
Substitution2: "'aalt' Access All Alternates lookup 0 subtable" ij.sc
Position2: "'cpsp' Capital Spacing lookup 0 subtable" dx=5 dy=0 dh=10 dv=0
EndChar

StartChar: Iacute
Encoding: 205 205 72
Width: 292
GlyphClass: 2
Flags: MW
HStem: 0 21G<62 156 62 62> 669 20G<159 253 253 253>
VStem: 62 281
AnchorPoint: "Anchor-18" 0 0 basechar 0
AnchorPoint: "Anchor-17" 0 0 basechar 0
AnchorPoint: "Anchor-16" 228 911 basechar 0
AnchorPoint: "Anchor-15" 144 0 basechar 0
AnchorPoint: "Anchor-14" 108 0 basechar 0
LayerCount: 2
Fore
SplineSet
313 908 m 1
 343 831 l 1
 123 755 l 1
 104 804 l 1
 313 908 l 1
253 689 m 1
 156 0 l 1
 62 0 l 1
 159 689 l 1
 253 689 l 1
EndSplineSet
Validated: 1
Substitution2: "'c2sc' Capitals to Small Capitals lookup 36 subtable" iacute.sc
Substitution2: "'locl' Localized Forms in Latin lookup 8 subtable" Iacute.loclHUN
AlternateSubs2: "'aalt' Access All Alternates lookup 1 subtable" Iacute.loclHUN iacute.sc
Position2: "'cpsp' Capital Spacing lookup 0 subtable" dx=5 dy=0 dh=10 dv=0
EndChar

StartChar: Ibreve
Encoding: 300 300 73
Width: 292
GlyphClass: 2
Flags: MW
HStem: 0 21G<62 156 62 62> 669 20G<159 253 253 253> 758 70<195.5 242 195.5 255>
VStem: 62 319
AnchorPoint: "Anchor-18" 0 0 basechar 0
AnchorPoint: "Anchor-17" 0 0 basechar 0
AnchorPoint: "Anchor-16" 233 896 basechar 0
AnchorPoint: "Anchor-15" 144 0 basechar 0
AnchorPoint: "Anchor-14" 108 0 basechar 0
LayerCount: 2
Fore
SplineSet
216 758 m 0
 135 758 80 810 82 884 c 1
 141 892 l 1
 150 852 173 828 218 828 c 0
 266 828 302 856 321 896 c 1
 381 878 l 1
 363 804 294 758 216 758 c 0
253 689 m 1
 156 0 l 1
 62 0 l 1
 159 689 l 1
 253 689 l 1
EndSplineSet
Validated: 33
Substitution2: "'c2sc' Capitals to Small Capitals lookup 36 subtable" ibreve.sc
Substitution2: "'aalt' Access All Alternates lookup 0 subtable" ibreve.sc
Position2: "'cpsp' Capital Spacing lookup 0 subtable" dx=5 dy=0 dh=10 dv=0
EndChar

StartChar: Icircumflex
Encoding: 206 206 74
Width: 292
GlyphClass: 2
Flags: MW
HStem: 0 21G<62 156 62 62> 669 20G<159 253 253 253>
VStem: 54 328<804 804>
AnchorPoint: "Anchor-18" 0 0 basechar 0
AnchorPoint: "Anchor-17" 333 786 basechar 0
AnchorPoint: "Anchor-16" 233 914 basechar 0
AnchorPoint: "Anchor-15" 144 0 basechar 0
AnchorPoint: "Anchor-14" 108 0 basechar 0
LayerCount: 2
Fore
SplineSet
91 759 m 1
 54 804 l 1
 203 914 l 1
 263 914 l 1
 382 804 l 1
 341 759 l 1
 226 840 l 1
 91 759 l 1
253 689 m 1
 156 0 l 1
 62 0 l 1
 159 689 l 1
 253 689 l 1
EndSplineSet
Validated: 1
Substitution2: "'c2sc' Capitals to Small Capitals lookup 36 subtable" icircumflex.sc
Substitution2: "'aalt' Access All Alternates lookup 0 subtable" icircumflex.sc
Position2: "'cpsp' Capital Spacing lookup 0 subtable" dx=5 dy=0 dh=10 dv=0
EndChar

StartChar: Idieresis
Encoding: 207 207 75
Width: 292
GlyphClass: 2
Flags: MW
HStem: 0 21G<62 156 62 62> 669 20G<159 253 253 253> 780 113<112 138 320 346>
VStem: 67 116<824 849> 275 116<824 849>
AnchorPoint: "Anchor-18" 0 0 basechar 0
AnchorPoint: "Anchor-17" 0 0 basechar 0
AnchorPoint: "Anchor-16" 229 894 basechar 0
AnchorPoint: "Anchor-15" 144 0 basechar 0
AnchorPoint: "Anchor-14" 108 0 basechar 0
LayerCount: 2
Fore
SplineSet
120 780 m 0
 89 780 67 802 67 831 c 0
 67 867 94 893 130 893 c 0
 161 893 183 871 183 842 c 0
 183 806 156 780 120 780 c 0
328 780 m 0
 297 780 275 802 275 831 c 0
 275 867 302 893 338 893 c 0
 369 893 391 871 391 842 c 0
 391 806 364 780 328 780 c 0
253 689 m 1
 156 0 l 1
 62 0 l 1
 159 689 l 1
 253 689 l 1
EndSplineSet
Validated: 1
Substitution2: "'c2sc' Capitals to Small Capitals lookup 36 subtable" idieresis.sc
Substitution2: "'aalt' Access All Alternates lookup 0 subtable" idieresis.sc
Position2: "'cpsp' Capital Spacing lookup 0 subtable" dx=5 dy=0 dh=10 dv=0
EndChar

StartChar: uni1E2E
Encoding: 7726 7726 76
Width: 292
GlyphClass: 2
Flags: MW
HStem: 0 21G<62 156 62 62> 669 20G<159 253 253 253> 747 113<102 128 310 336>
VStem: 57 116<791 816> 265 116<791 816>
AnchorPoint: "Anchor-18" 0 0 basechar 0
AnchorPoint: "Anchor-17" 0 0 basechar 0
AnchorPoint: "Anchor-16" 206 689 basechar 0
AnchorPoint: "Anchor-15" 144 0 basechar 0
AnchorPoint: "Anchor-14" 108 0 basechar 0
LayerCount: 2
Fore
SplineSet
321 1015 m 1
 372 961 l 1
 222 835 l 1
 186 870 l 1
 321 1015 l 1
110 747 m 0
 79 747 57 769 57 798 c 0
 57 834 84 860 120 860 c 0
 151 860 173 838 173 809 c 0
 173 773 146 747 110 747 c 0
318 747 m 0
 287 747 265 769 265 798 c 0
 265 834 292 860 328 860 c 0
 359 860 381 838 381 809 c 0
 381 773 354 747 318 747 c 0
253 689 m 1
 156 0 l 1
 62 0 l 1
 159 689 l 1
 253 689 l 1
EndSplineSet
Validated: 1
Substitution2: "'c2sc' Capitals to Small Capitals lookup 36 subtable" uni1E2F.sc
Substitution2: "'aalt' Access All Alternates lookup 0 subtable" uni1E2F.sc
Position2: "'cpsp' Capital Spacing lookup 0 subtable" dx=5 dy=0 dh=10 dv=0
EndChar

StartChar: Idotaccent
Encoding: 304 304 77
Width: 292
GlyphClass: 2
Flags: MW
HStem: 0 21G<62 156 62 62> 669 20G<159 253 253 253> 781 125<216.5 245.5>
VStem: 167 128<829.5 857.5>
AnchorPoint: "Anchor-18" 0 0 basechar 0
AnchorPoint: "Anchor-17" 0 0 basechar 0
AnchorPoint: "Anchor-16" 233 906 basechar 0
AnchorPoint: "Anchor-15" 144 0 basechar 0
AnchorPoint: "Anchor-14" 108 0 basechar 0
LayerCount: 2
Fore
SplineSet
226 781 m 0
 190 781 167 806 167 838 c 0
 167 877 197 906 236 906 c 0
 272 906 295 881 295 849 c 0
 295 810 265 781 226 781 c 0
253 689 m 1
 156 0 l 1
 62 0 l 1
 159 689 l 1
 253 689 l 1
EndSplineSet
Validated: 1
Substitution2: "'c2sc' Capitals to Small Capitals lookup 36 subtable" i.sc.loclTRK
Substitution2: "'aalt' Access All Alternates lookup 0 subtable" i.sc.loclTRK
Position2: "'cpsp' Capital Spacing lookup 0 subtable" dx=5 dy=0 dh=10 dv=0
EndChar

StartChar: uni1ECA
Encoding: 7882 7882 78
Width: 292
GlyphClass: 2
Flags: MW
HStem: -199 125<75.5 104.5> 0 21G<62 156 62 62> 669 20G<159 253 253 253>
VStem: 26 128<-150.5 -122.5>
AnchorPoint: "Anchor-18" 0 0 basechar 0
AnchorPoint: "Anchor-17" 0 0 basechar 0
AnchorPoint: "Anchor-16" 206 689 basechar 0
AnchorPoint: "Anchor-15" 144 0 basechar 0
AnchorPoint: "Anchor-14" 88 -199 basechar 0
LayerCount: 2
Fore
SplineSet
253 689 m 1
 156 0 l 1
 62 0 l 1
 159 689 l 1
 253 689 l 1
95 -74 m 0
 131 -74 154 -99 154 -131 c 0
 154 -170 124 -199 85 -199 c 0
 49 -199 26 -174 26 -142 c 0
 26 -103 56 -74 95 -74 c 0
EndSplineSet
Validated: 1
Substitution2: "'c2sc' Capitals to Small Capitals lookup 36 subtable" uni1ECB.sc
Substitution2: "'aalt' Access All Alternates lookup 0 subtable" uni1ECB.sc
Position2: "'cpsp' Capital Spacing lookup 0 subtable" dx=5 dy=0 dh=10 dv=0
EndChar

StartChar: Igrave
Encoding: 204 204 79
Width: 292
GlyphClass: 2
Flags: MW
HStem: 0 21G<62 156 62 62> 669 20G<159 253 253 253>
VStem: 62 280
AnchorPoint: "Anchor-18" 0 0 basechar 0
AnchorPoint: "Anchor-17" 0 0 basechar 0
AnchorPoint: "Anchor-16" 228 911 basechar 0
AnchorPoint: "Anchor-15" 144 0 basechar 0
AnchorPoint: "Anchor-14" 108 0 basechar 0
LayerCount: 2
Fore
SplineSet
156 907 m 1
 342 803 l 1
 313 754 l 1
 114 830 l 1
 156 907 l 1
253 689 m 1
 156 0 l 1
 62 0 l 1
 159 689 l 1
 253 689 l 1
EndSplineSet
Validated: 1
Substitution2: "'c2sc' Capitals to Small Capitals lookup 36 subtable" igrave.sc
Substitution2: "'aalt' Access All Alternates lookup 0 subtable" igrave.sc
Position2: "'cpsp' Capital Spacing lookup 0 subtable" dx=5 dy=0 dh=10 dv=0
EndChar

StartChar: uni1EC8
Encoding: 7880 7880 80
Width: 292
GlyphClass: 2
Flags: MW
HStem: 0 21G<62 156 62 62> 669 20G<159 253 253 253> 763 84<183 192 192 192 192 251> 926 62<232.5 247>
VStem: 187.5 67 272 78<880 907.5>
AnchorPoint: "Anchor-18" 0 0 basechar 0
AnchorPoint: "Anchor-17" 0 0 basechar 0
AnchorPoint: "Anchor-16" 252 988 basechar 0
AnchorPoint: "Anchor-15" 144 0 basechar 0
AnchorPoint: "Anchor-14" 108 0 basechar 0
LayerCount: 2
Fore
SplineSet
183 763 m 1
 192 847 l 1
 235 853 272 862 272 898 c 0
 272 917 258 926 236 926 c 0
 213 926 194 920 176 910 c 1
 158 965 l 1
 184 979 213 988 252 988 c 0
 315 988 350 952 350 901 c 0xf4
 350 845 314 820 258 811 c 1
 251 763 l 1
 183 763 l 1
253 689 m 1
 156 0 l 1
 62 0 l 1
 159 689 l 1
 253 689 l 1
EndSplineSet
Validated: 1
Substitution2: "'c2sc' Capitals to Small Capitals lookup 36 subtable" uni1EC9.sc
Substitution2: "'aalt' Access All Alternates lookup 0 subtable" uni1EC9.sc
Position2: "'cpsp' Capital Spacing lookup 0 subtable" dx=5 dy=0 dh=10 dv=0
EndChar

StartChar: Imacron
Encoding: 298 298 81
Width: 292
GlyphClass: 2
Flags: MW
HStem: 0 21G<62 156 62 62> 669 20G<159 253 253 253> 793 69<96 358 87 367>
VStem: 62 305
AnchorPoint: "Anchor-18" 0 0 basechar 0
AnchorPoint: "Anchor-17" 0 0 basechar 0
AnchorPoint: "Anchor-16" 227 862 basechar 0
AnchorPoint: "Anchor-15" 144 0 basechar 0
AnchorPoint: "Anchor-14" 108 0 basechar 0
LayerCount: 2
Fore
SplineSet
358 793 m 1
 87 793 l 1
 96 862 l 1
 367 862 l 1
 358 793 l 1
253 689 m 1
 156 0 l 1
 62 0 l 1
 159 689 l 1
 253 689 l 1
EndSplineSet
Validated: 1
Substitution2: "'c2sc' Capitals to Small Capitals lookup 36 subtable" imacron.sc
Substitution2: "'aalt' Access All Alternates lookup 0 subtable" imacron.sc
Position2: "'cpsp' Capital Spacing lookup 0 subtable" dx=5 dy=0 dh=10 dv=0
EndChar

StartChar: Iogonek
Encoding: 302 302 82
Width: 292
GlyphClass: 2
Flags: MW
HStem: -231 70<26 40> 0 21G<136 156 136 136> 669 20G<159 253 253 253>
VStem: -86 80<-137 -111>
AnchorPoint: "Anchor-18" 0 0 basechar 0
AnchorPoint: "Anchor-17" 0 0 basechar 0
AnchorPoint: "Anchor-16" 206 689 basechar 0
AnchorPoint: "Anchor-15" 144 0 basechar 0
AnchorPoint: "Anchor-14" 108 0 basechar 0
LayerCount: 2
Fore
SplineSet
159 689 m 1
 253 689 l 1
 156 0 l 1
 136 0 l 1
 10 -52 -6 -95 -6 -126 c 0
 -6 -148 11 -161 41 -161 c 0
 63 -161 80 -158 104 -153 c 1
 89 -225 l 1
 69 -229 52 -231 28 -231 c 0
 -44 -231 -86 -190 -86 -137 c 0
 -86 -85 -57 -28 64 17 c 1
 159 689 l 1
EndSplineSet
Validated: 1
Substitution2: "'c2sc' Capitals to Small Capitals lookup 36 subtable" iogonek.sc
Substitution2: "'aalt' Access All Alternates lookup 0 subtable" iogonek.sc
Position2: "'cpsp' Capital Spacing lookup 0 subtable" dx=5 dy=0 dh=10 dv=0
EndChar

StartChar: Itilde
Encoding: 296 296 83
Width: 292
GlyphClass: 2
Flags: MW
HStem: 0 21G<62 156 62 62> 669 20G<159 253 253 253> 782 70<266 293 266 303.5> 830 70<160.5 188.5>
VStem: 58 339<814 866>
AnchorPoint: "Anchor-18" 0 0 basechar 0
AnchorPoint: "Anchor-17" 0 0 basechar 0
AnchorPoint: "Anchor-16" 230 900 basechar 0
AnchorPoint: "Anchor-15" 144 0 basechar 0
AnchorPoint: "Anchor-14" 108 0 basechar 0
LayerCount: 2
Fore
SplineSet
284 782 m 0xe8
 225 782 204 830 173 830 c 0
 148 830 130 812 110 782 c 1
 58 814 l 1
 88 863 127 900 175 900 c 0xd8
 232 900 250 852 282 852 c 0
 304 852 322 868 343 898 c 1
 397 866 l 1
 363 809 323 782 284 782 c 0xe8
253 689 m 1xd8
 156 0 l 1
 62 0 l 1
 159 689 l 1
 253 689 l 1xd8
EndSplineSet
Validated: 1
Substitution2: "'c2sc' Capitals to Small Capitals lookup 36 subtable" itilde.sc
Substitution2: "'aalt' Access All Alternates lookup 0 subtable" itilde.sc
Position2: "'cpsp' Capital Spacing lookup 0 subtable" dx=5 dy=0 dh=10 dv=0
EndChar

StartChar: J
Encoding: 74 74 84
Width: 300
GlyphClass: 2
Flags: MW
HStem: 669 20G<172 266 266 266>
VStem: -45 311
AnchorPoint: "Anchor-18" 0 0 basechar 0
AnchorPoint: "Anchor-17" 0 0 basechar 0
AnchorPoint: "Anchor-16" 219 689 basechar 0
AnchorPoint: "Anchor-15" 0 0 basechar 0
AnchorPoint: "Anchor-14" 0 0 basechar 0
LayerCount: 2
Fore
SplineSet
266 689 m 1
 182 93 l 2
 162 -51 88 -103 -26 -138 c 1
 -45 -67 l 1
 50 -31 77 11 89 103 c 2
 172 689 l 1
 266 689 l 1
EndSplineSet
Validated: 1
Substitution2: "'c2sc' Capitals to Small Capitals lookup 36 subtable" j.sc
Substitution2: "'aalt' Access All Alternates lookup 0 subtable" j.sc
Position2: "'cpsp' Capital Spacing lookup 0 subtable" dx=5 dy=0 dh=10 dv=0
EndChar

StartChar: Jcircumflex
Encoding: 308 308 85
Width: 300
GlyphClass: 2
Flags: MW
HStem: 669 20G<172 266 266 266>
VStem: -45 440
AnchorPoint: "Anchor-18" 0 0 basechar 0
AnchorPoint: "Anchor-17" 346 786 basechar 0
AnchorPoint: "Anchor-16" 246 914 basechar 0
AnchorPoint: "Anchor-15" 0 0 basechar 0
AnchorPoint: "Anchor-14" 0 0 basechar 0
LayerCount: 2
Fore
SplineSet
104 759 m 1
 67 804 l 1
 216 914 l 1
 276 914 l 1
 395 804 l 1
 354 759 l 1
 239 840 l 1
 104 759 l 1
266 689 m 1
 182 93 l 2
 162 -51 88 -103 -26 -138 c 1
 -45 -67 l 1
 50 -31 77 11 89 103 c 2
 172 689 l 1
 266 689 l 1
EndSplineSet
Validated: 1
Substitution2: "'c2sc' Capitals to Small Capitals lookup 36 subtable" jcircumflex.sc
Substitution2: "'aalt' Access All Alternates lookup 0 subtable" jcircumflex.sc
Position2: "'cpsp' Capital Spacing lookup 0 subtable" dx=5 dy=0 dh=10 dv=0
EndChar

StartChar: K
Encoding: 75 75 86
Width: 583
GlyphClass: 2
Flags: MW
HStem: 0 21G<62 62 62 157 434 546 434 434> 669 20G<159 254 254 254 515 626 626 626>
VStem: 62 564
AnchorPoint: "Anchor-18" 0 0 basechar 0
AnchorPoint: "Anchor-17" 0 0 basechar 0
AnchorPoint: "Anchor-16" 385 689 basechar 0
AnchorPoint: "Anchor-15" 0 0 basechar 0
AnchorPoint: "Anchor-14" 275 0 basechar 0
LayerCount: 2
Fore
SplineSet
62 0 m 1
 159 689 l 1
 254 689 l 1
 157 0 l 1
 62 0 l 1
434 0 m 1
 213 368 l 1
 515 689 l 1
 626 689 l 1
 319 365 l 1
 546 0 l 1
 434 0 l 1
EndSplineSet
Validated: 1
Substitution2: "'c2sc' Capitals to Small Capitals lookup 36 subtable" k.sc
Substitution2: "'aalt' Access All Alternates lookup 0 subtable" k.sc
Position2: "'cpsp' Capital Spacing lookup 0 subtable" dx=5 dy=0 dh=10 dv=0
EndChar

StartChar: uni0136
Encoding: 310 310 87
Width: 583
GlyphClass: 2
Flags: MW
HStem: 0 21G<62 62 62 157 434 546 434 434> 669 20G<159 254 254 254 515 626 626 626>
VStem: 62 564 203 113<-141 -119>
AnchorPoint: "Anchor-18" 0 0 basechar 0
AnchorPoint: "Anchor-17" 0 0 basechar 0
AnchorPoint: "Anchor-16" 385 689 basechar 0
AnchorPoint: "Anchor-15" 0 0 basechar 0
AnchorPoint: "Anchor-14" 275 0 basechar 0
LayerCount: 2
Fore
SplineSet
62 0 m 1xe0
 159 689 l 1
 254 689 l 1
 157 0 l 1
 62 0 l 1xe0
434 0 m 1
 213 368 l 1
 515 689 l 1
 626 689 l 1
 319 365 l 1
 546 0 l 1
 434 0 l 1
264 -77 m 0xd0
 298 -77 316 -104 316 -129 c 0
 316 -153 307 -171 280 -214 c 2
 228 -296 l 1
 174 -296 l 1
 222 -178 l 1
 212 -168 203 -153 203 -136 c 0
 203 -102 231 -77 264 -77 c 0xd0
EndSplineSet
Validated: 1
Substitution2: "'c2sc' Capitals to Small Capitals lookup 36 subtable" uni0137.sc
Substitution2: "'aalt' Access All Alternates lookup 0 subtable" uni0137.sc
Position2: "'cpsp' Capital Spacing lookup 0 subtable" dx=5 dy=0 dh=10 dv=0
EndChar

StartChar: L
Encoding: 76 76 88
Width: 492
GlyphClass: 2
Flags: MW
HStem: 0 83<168 426> 669 20G<159 253 253 253>
VStem: 62 386<0 83>
AnchorPoint: "Anchor-18" 404 390 basechar 0
AnchorPoint: "Anchor-17" 278 689 basechar 0
AnchorPoint: "Anchor-16" 206 689 basechar 0
AnchorPoint: "Anchor-15" 0 0 basechar 0
AnchorPoint: "Anchor-14" 244 0 basechar 0
LayerCount: 2
Fore
SplineSet
253 689 m 1
 168 83 l 1
 448 83 l 1
 426 0 l 1
 62 0 l 1
 159 689 l 1
 253 689 l 1
EndSplineSet
Validated: 1
Substitution2: "'c2sc' Capitals to Small Capitals lookup 36 subtable" l.sc
Substitution2: "'aalt' Access All Alternates lookup 0 subtable" l.sc
Position2: "'cpsp' Capital Spacing lookup 0 subtable" dx=5 dy=0 dh=10 dv=0
EndChar

StartChar: Lacute
Encoding: 313 313 89
Width: 492
GlyphClass: 2
Flags: MW
HStem: 0 83<168 426> 669 20G<159 253 253 253>
VStem: 62 386<0 83>
AnchorPoint: "Anchor-18" 404 390 basechar 0
AnchorPoint: "Anchor-17" 278 689 basechar 0
AnchorPoint: "Anchor-16" 228 911 basechar 0
AnchorPoint: "Anchor-15" 0 0 basechar 0
AnchorPoint: "Anchor-14" 244 0 basechar 0
LayerCount: 2
Fore
SplineSet
313 908 m 1
 343 831 l 1
 123 755 l 1
 104 804 l 1
 313 908 l 1
253 689 m 1
 168 83 l 1
 448 83 l 1
 426 0 l 1
 62 0 l 1
 159 689 l 1
 253 689 l 1
EndSplineSet
Validated: 1
Substitution2: "'c2sc' Capitals to Small Capitals lookup 36 subtable" lacute.sc
Substitution2: "'aalt' Access All Alternates lookup 0 subtable" lacute.sc
Position2: "'cpsp' Capital Spacing lookup 0 subtable" dx=5 dy=0 dh=10 dv=0
EndChar

StartChar: Lcaron
Encoding: 317 317 90
Width: 492
GlyphClass: 2
Flags: MW
HStem: 0 83<168 426> 669 20G<159 253 253 253 408 408> 679 20G<326 326>
VStem: 62 386<0 83>
AnchorPoint: "Anchor-18" 404 390 basechar 0
AnchorPoint: "Anchor-17" 278 689 basechar 0
AnchorPoint: "Anchor-16" 206 689 basechar 0
AnchorPoint: "Anchor-15" 0 0 basechar 0
AnchorPoint: "Anchor-14" 244 0 basechar 0
LayerCount: 2
Fore
SplineSet
326 699 m 1xb0
 408 689 l 1xd0
 336 505 l 1
 284 513 l 1
 326 699 l 1xb0
253 689 m 1
 168 83 l 1
 448 83 l 1
 426 0 l 1
 62 0 l 1
 159 689 l 1
 253 689 l 1
EndSplineSet
Validated: 1
Substitution2: "'c2sc' Capitals to Small Capitals lookup 36 subtable" lcaron.sc
Substitution2: "'aalt' Access All Alternates lookup 0 subtable" lcaron.sc
Position2: "'cpsp' Capital Spacing lookup 0 subtable" dx=5 dy=0 dh=10 dv=0
EndChar

StartChar: uni1E3C
Encoding: 7740 7740 91
Width: 492
GlyphClass: 2
Flags: MW
HStem: 0 83<168 426> 669 20G<159 253 253 253>
VStem: 54 394<-181 83>
AnchorPoint: "Anchor-18" 404 390 basechar 0
AnchorPoint: "Anchor-17" 278 689 basechar 0
AnchorPoint: "Anchor-16" 206 689 basechar 0
AnchorPoint: "Anchor-15" 0 0 basechar 0
AnchorPoint: "Anchor-14" 215 -226 basechar 0
LayerCount: 2
Fore
SplineSet
253 689 m 1
 168 83 l 1
 448 83 l 1
 426 0 l 1
 62 0 l 1
 159 689 l 1
 253 689 l 1
91 -226 m 1
 54 -181 l 1
 203 -68 l 1
 263 -68 l 1
 382 -181 l 1
 338 -226 l 1
 225 -142 l 1
 91 -226 l 1
EndSplineSet
Validated: 1
Substitution2: "'c2sc' Capitals to Small Capitals lookup 36 subtable" uni1E3D.sc
Substitution2: "'aalt' Access All Alternates lookup 0 subtable" uni1E3D.sc
Position2: "'cpsp' Capital Spacing lookup 0 subtable" dx=5 dy=0 dh=10 dv=0
EndChar

StartChar: uni013B
Encoding: 315 315 92
Width: 492
GlyphClass: 2
Flags: MW
HStem: 0 83<168 426> 669 20G<159 253 253 253>
VStem: 62 386<0 83> 172 113<-141 -119>
AnchorPoint: "Anchor-18" 404 390 basechar 0
AnchorPoint: "Anchor-17" 278 689 basechar 0
AnchorPoint: "Anchor-16" 206 689 basechar 0
AnchorPoint: "Anchor-15" 0 0 basechar 0
AnchorPoint: "Anchor-14" 244 0 basechar 0
LayerCount: 2
Fore
SplineSet
253 689 m 1xe0
 168 83 l 1
 448 83 l 1
 426 0 l 1
 62 0 l 1
 159 689 l 1
 253 689 l 1xe0
233 -77 m 0xd0
 267 -77 285 -104 285 -129 c 0
 285 -153 276 -171 249 -214 c 2
 197 -296 l 1
 143 -296 l 1
 191 -178 l 1
 181 -168 172 -153 172 -136 c 0
 172 -102 200 -77 233 -77 c 0xd0
EndSplineSet
Validated: 1
Substitution2: "'c2sc' Capitals to Small Capitals lookup 36 subtable" uni013C.sc
Substitution2: "'aalt' Access All Alternates lookup 0 subtable" uni013C.sc
Position2: "'cpsp' Capital Spacing lookup 0 subtable" dx=5 dy=0 dh=10 dv=0
EndChar

StartChar: Ldot
Encoding: 319 319 93
Width: 492
GlyphClass: 2
Flags: MW
HStem: 0 83<168 426> 325 125<386.5 415.5> 669 20G<159 253 253 253>
VStem: 337 128<373.5 401.5>
AnchorPoint: "Anchor-18" 404 390 basechar 0
AnchorPoint: "Anchor-17" 278 689 basechar 0
AnchorPoint: "Anchor-16" 410 450 basechar 0
AnchorPoint: "Anchor-15" 0 0 basechar 0
AnchorPoint: "Anchor-14" 244 0 basechar 0
LayerCount: 2
Fore
SplineSet
253 689 m 1
 168 83 l 1
 448 83 l 1
 426 0 l 1
 62 0 l 1
 159 689 l 1
 253 689 l 1
396 325 m 0
 360 325 337 350 337 382 c 0
 337 421 367 450 406 450 c 0
 442 450 465 425 465 393 c 0
 465 354 435 325 396 325 c 0
EndSplineSet
Validated: 1
Ligature2: "Ligature Substitution lookup 50 subtable" L periodcentered
Substitution2: "'c2sc' Capitals to Small Capitals lookup 36 subtable" ldot.sc
Substitution2: "'aalt' Access All Alternates lookup 0 subtable" ldot.sc
Position2: "'cpsp' Capital Spacing lookup 0 subtable" dx=5 dy=0 dh=10 dv=0
EndChar

StartChar: uni1E36
Encoding: 7734 7734 94
Width: 492
GlyphClass: 2
Flags: MW
HStem: -199 125<211.5 240.5> 0 83<168 426> 669 20G<159 253 253 253>
VStem: 162 128<-150.5 -122.5>
AnchorPoint: "Anchor-18" 404 390 basechar 0
AnchorPoint: "Anchor-17" 278 689 basechar 0
AnchorPoint: "Anchor-16" 206 689 basechar 0
AnchorPoint: "Anchor-15" 0 0 basechar 0
AnchorPoint: "Anchor-14" 224 -199 basechar 0
LayerCount: 2
Fore
SplineSet
253 689 m 1
 168 83 l 1
 448 83 l 1
 426 0 l 1
 62 0 l 1
 159 689 l 1
 253 689 l 1
231 -74 m 0
 267 -74 290 -99 290 -131 c 0
 290 -170 260 -199 221 -199 c 0
 185 -199 162 -174 162 -142 c 0
 162 -103 192 -74 231 -74 c 0
EndSplineSet
Validated: 1
Substitution2: "'c2sc' Capitals to Small Capitals lookup 36 subtable" uni1E37.sc
Substitution2: "'aalt' Access All Alternates lookup 0 subtable" uni1E37.sc
Position2: "'cpsp' Capital Spacing lookup 0 subtable" dx=5 dy=0 dh=10 dv=0
EndChar

StartChar: Lslash
Encoding: 321 321 95
Width: 502
GlyphClass: 2
Flags: MW
HStem: 0 83<178 436> 669 20G<169 263 263 263>
VStem: 22 436<83 282>
AnchorPoint: "Anchor-18" 414 390 basechar 0
AnchorPoint: "Anchor-17" 288 689 basechar 0
AnchorPoint: "Anchor-16" 216 689 basechar 0
AnchorPoint: "Anchor-15" 0 0 basechar 0
AnchorPoint: "Anchor-14" 254 0 basechar 0
LayerCount: 2
Fore
SplineSet
178 83 m 1
 458 83 l 1
 436 0 l 1
 72 0 l 1
 108 254 l 1
 52 222 l 1
 22 282 l 1
 120 338 l 1
 169 689 l 1
 263 689 l 1
 222 397 l 1
 397 498 l 1
 427 438 l 1
 210 313 l 1
 178 83 l 1
EndSplineSet
Validated: 1
Substitution2: "'c2sc' Capitals to Small Capitals lookup 36 subtable" lslash.sc
Substitution2: "'aalt' Access All Alternates lookup 0 subtable" lslash.sc
Position2: "'cpsp' Capital Spacing lookup 0 subtable" dx=5 dy=0 dh=10 dv=0
EndChar

StartChar: M
Encoding: 77 77 96
Width: 772
GlyphClass: 2
Flags: MW
HStem: 0 21G<25 115 25 25 582 673 582 582> 591 98<623 623> 669 20G<179 298 298 298 580 713 713 713>
VStem: 25 688
AnchorPoint: "Anchor-18" 0 0 basechar 0
AnchorPoint: "Anchor-17" 0 0 basechar 0
AnchorPoint: "Anchor-16" 439 689 basechar 0
AnchorPoint: "Anchor-15" 0 0 basechar 0
AnchorPoint: "Anchor-14" 358 0 basechar 0
LayerCount: 2
Fore
SplineSet
713 689 m 1xb0
 673 0 l 1
 582 0 l 1
 602 314 l 2
 608 422 616 528 623 591 c 1
 405 78 l 1
 315 78 l 1
 232 590 l 1xd0
 223 514 201 402 179 301 c 2
 115 0 l 1
 25 0 l 1
 179 689 l 1
 298 689 l 1
 376 190 l 1
 580 689 l 1
 713 689 l 1xb0
EndSplineSet
Validated: 1
Substitution2: "'c2sc' Capitals to Small Capitals lookup 36 subtable" m.sc
Substitution2: "'aalt' Access All Alternates lookup 0 subtable" m.sc
Position2: "'cpsp' Capital Spacing lookup 0 subtable" dx=5 dy=0 dh=10 dv=0
EndChar

StartChar: uni1E3E
Encoding: 7742 7742 97
Width: 772
GlyphClass: 2
Flags: MW
HStem: 0 21G<25 115 25 25 582 673 582 582> 591 98<623 623> 669 20G<179 298 298 298 580 713 713 713>
VStem: 25 688
AnchorPoint: "Anchor-18" 0 0 basechar 0
AnchorPoint: "Anchor-17" 0 0 basechar 0
AnchorPoint: "Anchor-16" 461 911 basechar 0
AnchorPoint: "Anchor-15" 0 0 basechar 0
AnchorPoint: "Anchor-14" 358 0 basechar 0
LayerCount: 2
Fore
SplineSet
546 908 m 1xb0
 576 831 l 1
 356 755 l 1
 337 804 l 1
 546 908 l 1xb0
713 689 m 1
 673 0 l 1
 582 0 l 1
 602 314 l 2
 608 422 616 528 623 591 c 1
 405 78 l 1
 315 78 l 1
 232 590 l 1xd0
 223 514 201 402 179 301 c 2
 115 0 l 1
 25 0 l 1
 179 689 l 1
 298 689 l 1
 376 190 l 1
 580 689 l 1
 713 689 l 1
EndSplineSet
Validated: 1
Substitution2: "'c2sc' Capitals to Small Capitals lookup 36 subtable" uni1E3F.sc
Substitution2: "'aalt' Access All Alternates lookup 0 subtable" uni1E3F.sc
Position2: "'cpsp' Capital Spacing lookup 0 subtable" dx=5 dy=0 dh=10 dv=0
EndChar

StartChar: uni1E40
Encoding: 7744 7744 98
Width: 772
GlyphClass: 2
Flags: MW
HStem: 0 21G<25 115 25 25 582 673 582 582> 591 98<623 623> 669 20G<179 298 298 298 580 713 713 713> 781 125<449.5 478.5>
VStem: 400 128<829.5 857.5>
AnchorPoint: "Anchor-18" 0 0 basechar 0
AnchorPoint: "Anchor-17" 0 0 basechar 0
AnchorPoint: "Anchor-16" 466 906 basechar 0
AnchorPoint: "Anchor-15" 0 0 basechar 0
AnchorPoint: "Anchor-14" 358 0 basechar 0
LayerCount: 2
Fore
SplineSet
459 781 m 0xb8
 423 781 400 806 400 838 c 0
 400 877 430 906 469 906 c 0
 505 906 528 881 528 849 c 0
 528 810 498 781 459 781 c 0xb8
713 689 m 1
 673 0 l 1
 582 0 l 1
 602 314 l 2
 608 422 616 528 623 591 c 1
 405 78 l 1
 315 78 l 1
 232 590 l 1xd8
 223 514 201 402 179 301 c 2
 115 0 l 1
 25 0 l 1
 179 689 l 1
 298 689 l 1
 376 190 l 1
 580 689 l 1
 713 689 l 1
EndSplineSet
Validated: 1
Substitution2: "'c2sc' Capitals to Small Capitals lookup 36 subtable" uni1E41.sc
Substitution2: "'aalt' Access All Alternates lookup 0 subtable" uni1E41.sc
Position2: "'cpsp' Capital Spacing lookup 0 subtable" dx=5 dy=0 dh=10 dv=0
EndChar

StartChar: N
Encoding: 78 78 99
Width: 677
GlyphClass: 2
Flags: MW
HStem: 0 21G<62 151 62 62 418 541 418 418> 0 81<481 481 481 541 418 481> 607 82<221 221> 669 20G<159 283 283 283 549 638 638 638>
VStem: 62 576
AnchorPoint: "Anchor-18" 0 0 basechar 0
AnchorPoint: "Anchor-17" 0 0 basechar 0
AnchorPoint: "Anchor-16" 410 689 basechar 0
AnchorPoint: "Anchor-15" 0 0 basechar 0
AnchorPoint: "Anchor-14" 303 0 basechar 0
LayerCount: 2
Fore
SplineSet
638 689 m 1x98
 541 0 l 1
 418 0 l 1
 221 607 l 1xa8
 220 523 213 441 195 313 c 2
 151 0 l 1
 62 0 l 1
 159 689 l 1
 283 689 l 1
 481 81 l 1x58
 481 172 485 232 496 316 c 2
 549 689 l 1
 638 689 l 1x98
EndSplineSet
Validated: 1
Substitution2: "'c2sc' Capitals to Small Capitals lookup 36 subtable" n.sc
Substitution2: "'aalt' Access All Alternates lookup 0 subtable" n.sc
Position2: "'cpsp' Capital Spacing lookup 0 subtable" dx=5 dy=0 dh=10 dv=0
EndChar

StartChar: Nacute
Encoding: 323 323 100
Width: 677
GlyphClass: 2
Flags: MW
HStem: 0 21G<62 151 62 62 418 541 418 418> 0 81<481 481 481 541 418 481> 607 82<221 221> 669 20G<159 283 283 283 549 638 638 638>
VStem: 62 576
AnchorPoint: "Anchor-18" 0 0 basechar 0
AnchorPoint: "Anchor-17" 0 0 basechar 0
AnchorPoint: "Anchor-16" 432 911 basechar 0
AnchorPoint: "Anchor-15" 0 0 basechar 0
AnchorPoint: "Anchor-14" 303 0 basechar 0
LayerCount: 2
Fore
SplineSet
517 908 m 1x98
 547 831 l 1
 327 755 l 1
 308 804 l 1
 517 908 l 1x98
638 689 m 1
 541 0 l 1
 418 0 l 1
 221 607 l 1xa8
 220 523 213 441 195 313 c 2
 151 0 l 1
 62 0 l 1
 159 689 l 1
 283 689 l 1
 481 81 l 1x58
 481 172 485 232 496 316 c 2
 549 689 l 1
 638 689 l 1
EndSplineSet
Validated: 1
Substitution2: "'c2sc' Capitals to Small Capitals lookup 36 subtable" nacute.sc
Substitution2: "'locl' Localized Forms in Latin lookup 14 subtable" Nacute.loclPLK
AlternateSubs2: "'aalt' Access All Alternates lookup 1 subtable" Nacute.loclPLK nacute.sc
Position2: "'cpsp' Capital Spacing lookup 0 subtable" dx=5 dy=0 dh=10 dv=0
EndChar

StartChar: Ncaron
Encoding: 327 327 101
Width: 677
GlyphClass: 2
Flags: MW
HStem: 0 21G<62 151 62 62 418 541 418 418> 0 81<481 481 481 541 418 481> 607 82<221 221> 669 20G<159 283 283 283 549 638 638 638>
VStem: 62 576
AnchorPoint: "Anchor-18" 0 0 basechar 0
AnchorPoint: "Anchor-17" 0 0 basechar 0
AnchorPoint: "Anchor-16" 435 909 basechar 0
AnchorPoint: "Anchor-15" 0 0 basechar 0
AnchorPoint: "Anchor-14" 303 0 basechar 0
LayerCount: 2
Fore
SplineSet
562 909 m 1x98
 597 864 l 1
 449 754 l 1
 389 754 l 1
 269 864 l 1
 312 909 l 1
 425 828 l 1
 562 909 l 1x98
638 689 m 1
 541 0 l 1
 418 0 l 1
 221 607 l 1xa8
 220 523 213 441 195 313 c 2
 151 0 l 1
 62 0 l 1
 159 689 l 1
 283 689 l 1
 481 81 l 1x58
 481 172 485 232 496 316 c 2
 549 689 l 1
 638 689 l 1
EndSplineSet
Validated: 1
Substitution2: "'c2sc' Capitals to Small Capitals lookup 36 subtable" ncaron.sc
Substitution2: "'aalt' Access All Alternates lookup 0 subtable" ncaron.sc
Position2: "'cpsp' Capital Spacing lookup 0 subtable" dx=5 dy=0 dh=10 dv=0
EndChar

StartChar: uni1E4A
Encoding: 7754 7754 102
Width: 677
GlyphClass: 2
Flags: MW
HStem: 0 21G<62 151 62 62 418 541 418 418> 0 81<481 481 481 541 418 481> 607 82<221 221> 669 20G<159 283 283 283 549 638 638 638>
VStem: 62 576
AnchorPoint: "Anchor-18" 0 0 basechar 0
AnchorPoint: "Anchor-17" 0 0 basechar 0
AnchorPoint: "Anchor-16" 410 689 basechar 0
AnchorPoint: "Anchor-15" 0 0 basechar 0
AnchorPoint: "Anchor-14" 274 -226 basechar 0
LayerCount: 2
Fore
SplineSet
638 689 m 1x98
 541 0 l 1
 418 0 l 1
 221 607 l 1xa8
 220 523 213 441 195 313 c 2
 151 0 l 1
 62 0 l 1
 159 689 l 1
 283 689 l 1
 481 81 l 1x58
 481 172 485 232 496 316 c 2
 549 689 l 1
 638 689 l 1x98
150 -226 m 1
 113 -181 l 1
 262 -68 l 1
 322 -68 l 1
 441 -181 l 1
 397 -226 l 1
 284 -142 l 1
 150 -226 l 1
EndSplineSet
Validated: 1
Substitution2: "'c2sc' Capitals to Small Capitals lookup 36 subtable" uni1E4B.sc
Substitution2: "'aalt' Access All Alternates lookup 0 subtable" uni1E4B.sc
Position2: "'cpsp' Capital Spacing lookup 0 subtable" dx=5 dy=0 dh=10 dv=0
EndChar

StartChar: uni0145
Encoding: 325 325 103
Width: 677
GlyphClass: 2
Flags: MW
HStem: 0 21G<62 151 62 62 418 541 418 418> 0 81<481 481 481 541 418 481> 607 82<221 221> 669 20G<159 283 283 283 549 638 638 638>
VStem: 62 576 231 113<-141 -119>
AnchorPoint: "Anchor-18" 0 0 basechar 0
AnchorPoint: "Anchor-17" 0 0 basechar 0
AnchorPoint: "Anchor-16" 410 689 basechar 0
AnchorPoint: "Anchor-15" 0 0 basechar 0
AnchorPoint: "Anchor-14" 303 0 basechar 0
LayerCount: 2
Fore
SplineSet
638 689 m 1x98
 541 0 l 1
 418 0 l 1
 221 607 l 1xa8
 220 523 213 441 195 313 c 2
 151 0 l 1
 62 0 l 1
 159 689 l 1
 283 689 l 1
 481 81 l 1x58
 481 172 485 232 496 316 c 2
 549 689 l 1
 638 689 l 1x98
292 -77 m 0x94
 326 -77 344 -104 344 -129 c 0
 344 -153 335 -171 308 -214 c 2
 256 -296 l 1
 202 -296 l 1
 250 -178 l 1
 240 -168 231 -153 231 -136 c 0
 231 -102 259 -77 292 -77 c 0x94
EndSplineSet
Validated: 1
Substitution2: "'c2sc' Capitals to Small Capitals lookup 36 subtable" uni0146.sc
Substitution2: "'aalt' Access All Alternates lookup 0 subtable" uni0146.sc
Position2: "'cpsp' Capital Spacing lookup 0 subtable" dx=5 dy=0 dh=10 dv=0
EndChar

StartChar: uni1E44
Encoding: 7748 7748 104
Width: 677
GlyphClass: 2
Flags: MW
HStem: 0 21G<62 151 62 62 418 541 418 418> 0 81<481 481 481 541 418 481> 607 82<221 221> 669 20G<159 283 283 283 549 638 638 638> 781 125<420.5 449.5>
VStem: 371 128<829.5 857.5>
AnchorPoint: "Anchor-18" 0 0 basechar 0
AnchorPoint: "Anchor-17" 0 0 basechar 0
AnchorPoint: "Anchor-16" 437 906 basechar 0
AnchorPoint: "Anchor-15" 0 0 basechar 0
AnchorPoint: "Anchor-14" 303 0 basechar 0
LayerCount: 2
Fore
SplineSet
430 781 m 0x9c
 394 781 371 806 371 838 c 0
 371 877 401 906 440 906 c 0
 476 906 499 881 499 849 c 0
 499 810 469 781 430 781 c 0x9c
638 689 m 1
 541 0 l 1
 418 0 l 1
 221 607 l 1xac
 220 523 213 441 195 313 c 2
 151 0 l 1
 62 0 l 1
 159 689 l 1
 283 689 l 1
 481 81 l 1x5c
 481 172 485 232 496 316 c 2
 549 689 l 1
 638 689 l 1
EndSplineSet
Validated: 1
Substitution2: "'c2sc' Capitals to Small Capitals lookup 36 subtable" uni1E45.sc
Substitution2: "'aalt' Access All Alternates lookup 0 subtable" uni1E45.sc
Position2: "'cpsp' Capital Spacing lookup 0 subtable" dx=5 dy=0 dh=10 dv=0
EndChar

StartChar: uni1E46
Encoding: 7750 7750 105
Width: 677
GlyphClass: 2
Flags: MW
HStem: -199 125<270.5 299.5> 0 21G<62 151 62 62 418 541 418 418> 0 81<481 481 481 541 418 481> 607 82<221 221> 669 20G<159 283 283 283 549 638 638 638>
VStem: 221 128<-150.5 -122.5>
AnchorPoint: "Anchor-18" 0 0 basechar 0
AnchorPoint: "Anchor-17" 0 0 basechar 0
AnchorPoint: "Anchor-16" 410 689 basechar 0
AnchorPoint: "Anchor-15" 0 0 basechar 0
AnchorPoint: "Anchor-14" 283 -199 basechar 0
LayerCount: 2
Fore
SplineSet
638 689 m 1xcc
 541 0 l 1
 418 0 l 1
 221 607 l 1xd4
 220 523 213 441 195 313 c 2
 151 0 l 1
 62 0 l 1
 159 689 l 1
 283 689 l 1
 481 81 l 1xac
 481 172 485 232 496 316 c 2
 549 689 l 1
 638 689 l 1xcc
290 -74 m 0
 326 -74 349 -99 349 -131 c 0
 349 -170 319 -199 280 -199 c 0
 244 -199 221 -174 221 -142 c 0
 221 -103 251 -74 290 -74 c 0
EndSplineSet
Validated: 1
Substitution2: "'c2sc' Capitals to Small Capitals lookup 36 subtable" uni1E47.sc
Substitution2: "'aalt' Access All Alternates lookup 0 subtable" uni1E47.sc
Position2: "'cpsp' Capital Spacing lookup 0 subtable" dx=5 dy=0 dh=10 dv=0
EndChar

StartChar: Eng
Encoding: 330 330 106
Width: 677
GlyphClass: 2
Flags: MW
HStem: -213 76<347.5 383.5 347.5 409.5> 0 21G<62 151 62 62 418 447 418 418 541 541> 607 82<221 221> 669 20G<159 283 283 283 549 638 638 638>
VStem: 62 576 443 94
AnchorPoint: "Anchor-18" 0 0 basechar 0
AnchorPoint: "Anchor-17" 0 0 basechar 0
AnchorPoint: "Anchor-16" 410 689 basechar 0
AnchorPoint: "Anchor-15" 0 0 basechar 0
AnchorPoint: "Anchor-14" 303 0 basechar 0
LayerCount: 2
Fore
SplineSet
549 689 m 1xd8
 638 689 l 1
 541 0 l 1
 533 -60 l 2
 518 -165 454 -213 365 -213 c 0
 311 -213 277 -192 254 -173 c 1
 295 -115 l 1
 316 -129 332 -137 363 -137 c 0
 404 -137 431 -112 439 -60 c 2
 447 0 l 1
 418 0 l 1xd4
 221 607 l 1xe8
 220 523 213 441 195 313 c 2
 151 0 l 1
 62 0 l 1
 159 689 l 1
 283 689 l 1
 481 81 l 1
 481 172 485 232 496 316 c 2
 549 689 l 1xd8
EndSplineSet
Validated: 1
Substitution2: "'c2sc' Capitals to Small Capitals lookup 36 subtable" eng.sc
Substitution2: "'ss01' Style Set 1 lookup 35 subtable" Eng.ss01
Substitution2: "'salt' Stylistic Alternatives lookup 34 subtable" Eng.ss01
AlternateSubs2: "'aalt' Access All Alternates lookup 1 subtable" Eng.ss01 eng.sc
Position2: "'cpsp' Capital Spacing lookup 0 subtable" dx=5 dy=0 dh=10 dv=0
EndChar

StartChar: Ntilde
Encoding: 209 209 107
Width: 677
GlyphClass: 2
Flags: MW
HStem: 0 21G<62 151 62 62 418 541 418 418> 0 81<481 481 481 541 418 481> 607 82<221 221> 669 20G<159 283 283 283 549 638 638 638> 782 70<470 497 470 507.5> 830 70<364.5 392.5>
VStem: 62 576
AnchorPoint: "Anchor-18" 0 0 basechar 0
AnchorPoint: "Anchor-17" 0 0 basechar 0
AnchorPoint: "Anchor-16" 434 900 basechar 0
AnchorPoint: "Anchor-15" 0 0 basechar 0
AnchorPoint: "Anchor-14" 303 0 basechar 0
LayerCount: 2
Fore
SplineSet
488 782 m 0x9a
 429 782 408 830 377 830 c 0
 352 830 334 812 314 782 c 1
 262 814 l 1
 292 863 331 900 379 900 c 0x96
 436 900 454 852 486 852 c 0
 508 852 526 868 547 898 c 1
 601 866 l 1
 567 809 527 782 488 782 c 0x9a
638 689 m 1x56
 541 0 l 1
 418 0 l 1
 221 607 l 1xa6
 220 523 213 441 195 313 c 2
 151 0 l 1
 62 0 l 1
 159 689 l 1
 283 689 l 1
 481 81 l 1
 481 172 485 232 496 316 c 2
 549 689 l 1
 638 689 l 1x56
EndSplineSet
Validated: 1
Substitution2: "'c2sc' Capitals to Small Capitals lookup 36 subtable" ntilde.sc
Substitution2: "'aalt' Access All Alternates lookup 0 subtable" ntilde.sc
Position2: "'cpsp' Capital Spacing lookup 0 subtable" dx=5 dy=0 dh=10 dv=0
EndChar

StartChar: O
Encoding: 79 79 108
Width: 686
GlyphClass: 2
Flags: MW
HStem: -12 78<265 405.5 265 435> 623 78<304.5 446>
VStem: 61 98<191 332.5 191 353> 550 98<358 497>
AnchorPoint: "Anchor-18" 0 0 basechar 0
AnchorPoint: "Anchor-17" 603 689 basechar 0
AnchorPoint: "Anchor-16" 407 689 basechar 0
AnchorPoint: "Anchor-15" 405 0 basechar 0
AnchorPoint: "Anchor-14" 303 0 basechar 0
LayerCount: 2
Fore
SplineSet
402 701 m 0
 552 701 648 603 648 421 c 0
 648 239 562 -12 308 -12 c 0
 158 -12 61 85 61 265 c 0
 61 441 147 701 402 701 c 0
398 623 m 0
 211 623 159 403 159 262 c 0
 159 120 219 66 311 66 c 0
 500 66 550 288 550 428 c 0
 550 566 494 623 398 623 c 0
EndSplineSet
Validated: 1
Substitution2: "Single Substitution lookup 51 subtable" ordmasculine
Substitution2: "'c2sc' Capitals to Small Capitals lookup 36 subtable" o.sc
AlternateSubs2: "'aalt' Access All Alternates lookup 1 subtable" ordmasculine o.sc
Position2: "'cpsp' Capital Spacing lookup 0 subtable" dx=5 dy=0 dh=10 dv=0
EndChar

StartChar: Oacute
Encoding: 211 211 109
Width: 686
GlyphClass: 2
Flags: MW
HStem: -12 78<265 405.5 265 435> 623 78<304.5 446>
VStem: 61 98<191 332.5 191 353> 550 98<358 497>
AnchorPoint: "Anchor-18" 0 0 basechar 0
AnchorPoint: "Anchor-17" 603 689 basechar 0
AnchorPoint: "Anchor-16" 429 911 basechar 0
AnchorPoint: "Anchor-15" 405 0 basechar 0
AnchorPoint: "Anchor-14" 303 0 basechar 0
LayerCount: 2
Fore
SplineSet
514 908 m 1
 544 831 l 1
 324 755 l 1
 305 804 l 1
 514 908 l 1
402 701 m 0
 552 701 648 603 648 421 c 0
 648 239 562 -12 308 -12 c 0
 158 -12 61 85 61 265 c 0
 61 441 147 701 402 701 c 0
398 623 m 0
 211 623 159 403 159 262 c 0
 159 120 219 66 311 66 c 0
 500 66 550 288 550 428 c 0
 550 566 494 623 398 623 c 0
EndSplineSet
Validated: 1
Substitution2: "'c2sc' Capitals to Small Capitals lookup 36 subtable" oacute.sc
Substitution2: "'locl' Localized Forms in Latin lookup 14 subtable" Oacute.loclPLK
Substitution2: "'locl' Localized Forms in Latin lookup 8 subtable" Oacute.loclHUN
AlternateSubs2: "'aalt' Access All Alternates lookup 1 subtable" Oacute.loclHUN Oacute.loclPLK oacute.sc
Position2: "'cpsp' Capital Spacing lookup 0 subtable" dx=5 dy=0 dh=10 dv=0
EndChar

StartChar: Obreve
Encoding: 334 334 110
Width: 686
GlyphClass: 2
Flags: MW
HStem: -12 78<265 405.5 265 435> 623 78<304.5 446> 758 70<396.5 443 396.5 456>
VStem: 61 98<191 332.5 191 353> 550 98<358 497>
AnchorPoint: "Anchor-18" 0 0 basechar 0
AnchorPoint: "Anchor-17" 603 689 basechar 0
AnchorPoint: "Anchor-16" 434 896 basechar 0
AnchorPoint: "Anchor-15" 405 0 basechar 0
AnchorPoint: "Anchor-14" 303 0 basechar 0
LayerCount: 2
Fore
SplineSet
417 758 m 0
 336 758 281 810 283 884 c 1
 342 892 l 1
 351 852 374 828 419 828 c 0
 467 828 503 856 522 896 c 1
 582 878 l 1
 564 804 495 758 417 758 c 0
402 701 m 0
 552 701 648 603 648 421 c 0
 648 239 562 -12 308 -12 c 0
 158 -12 61 85 61 265 c 0
 61 441 147 701 402 701 c 0
398 623 m 0
 211 623 159 403 159 262 c 0
 159 120 219 66 311 66 c 0
 500 66 550 288 550 428 c 0
 550 566 494 623 398 623 c 0
EndSplineSet
Validated: 33
Substitution2: "'c2sc' Capitals to Small Capitals lookup 36 subtable" obreve.sc
Substitution2: "'aalt' Access All Alternates lookup 0 subtable" obreve.sc
Position2: "'cpsp' Capital Spacing lookup 0 subtable" dx=5 dy=0 dh=10 dv=0
EndChar

StartChar: Ocircumflex
Encoding: 212 212 111
Width: 686
GlyphClass: 2
Flags: MW
HStem: -12 78<265 405.5 265 435> 623 78<304.5 446>
VStem: 61 98<191 332.5 191 353> 550 98<358 497>
AnchorPoint: "Anchor-18" 0 0 basechar 0
AnchorPoint: "Anchor-17" 534 786 basechar 0
AnchorPoint: "Anchor-16" 434 914 basechar 0
AnchorPoint: "Anchor-15" 405 0 basechar 0
AnchorPoint: "Anchor-14" 303 0 basechar 0
LayerCount: 2
Fore
SplineSet
292 759 m 1
 255 804 l 1
 404 914 l 1
 464 914 l 1
 583 804 l 1
 542 759 l 1
 427 840 l 1
 292 759 l 1
402 701 m 0
 552 701 648 603 648 421 c 0
 648 239 562 -12 308 -12 c 0
 158 -12 61 85 61 265 c 0
 61 441 147 701 402 701 c 0
398 623 m 0
 211 623 159 403 159 262 c 0
 159 120 219 66 311 66 c 0
 500 66 550 288 550 428 c 0
 550 566 494 623 398 623 c 0
EndSplineSet
Validated: 1
Substitution2: "'c2sc' Capitals to Small Capitals lookup 36 subtable" ocircumflex.sc
Substitution2: "'aalt' Access All Alternates lookup 0 subtable" ocircumflex.sc
Position2: "'cpsp' Capital Spacing lookup 0 subtable" dx=5 dy=0 dh=10 dv=0
EndChar

StartChar: uni1ED0
Encoding: 7888 7888 112
Width: 686
GlyphClass: 2
Flags: MW
HStem: -12 78<265 405.5 265 435> 623 78<304.5 446>
VStem: 61 98<191 332.5 191 353> 550 98<358 497>
AnchorPoint: "Anchor-18" 0 0 basechar 0
AnchorPoint: "Anchor-17" 528 743 basechar 0
AnchorPoint: "Anchor-16" 428 871 basechar 0
AnchorPoint: "Anchor-15" 405 0 basechar 0
AnchorPoint: "Anchor-14" 303 0 basechar 0
LayerCount: 2
Fore
SplineSet
650 1019 m 1
 701 965 l 1
 551 839 l 1
 515 874 l 1
 650 1019 l 1
286 716 m 1
 249 761 l 1
 398 871 l 1
 458 871 l 1
 577 761 l 1
 536 716 l 1
 421 797 l 1
 286 716 l 1
402 701 m 0
 552 701 648 603 648 421 c 0
 648 239 562 -12 308 -12 c 0
 158 -12 61 85 61 265 c 0
 61 441 147 701 402 701 c 0
398 623 m 0
 211 623 159 403 159 262 c 0
 159 120 219 66 311 66 c 0
 500 66 550 288 550 428 c 0
 550 566 494 623 398 623 c 0
EndSplineSet
Validated: 1
Substitution2: "'c2sc' Capitals to Small Capitals lookup 36 subtable" uni1ED1.sc
Substitution2: "'aalt' Access All Alternates lookup 0 subtable" uni1ED1.sc
Position2: "'cpsp' Capital Spacing lookup 0 subtable" dx=5 dy=0 dh=10 dv=0
EndChar

StartChar: uni1ED8
Encoding: 7896 7896 113
Width: 686
GlyphClass: 2
Flags: MW
HStem: -199 125<270.5 299.5> -12 78<265 405.5 265 435> 623 78<304.5 446>
VStem: 61 98<191 332.5 191 353> 221 128<-150.5 -122.5> 550 98<358 497>
AnchorPoint: "Anchor-18" 0 0 basechar 0
AnchorPoint: "Anchor-17" 534 786 basechar 0
AnchorPoint: "Anchor-16" 434 914 basechar 0
AnchorPoint: "Anchor-15" 405 0 basechar 0
AnchorPoint: "Anchor-14" 283 -199 basechar 0
LayerCount: 2
Fore
SplineSet
292 759 m 1
 255 804 l 1
 404 914 l 1
 464 914 l 1
 583 804 l 1
 542 759 l 1
 427 840 l 1
 292 759 l 1
402 701 m 0
 552 701 648 603 648 421 c 0
 648 239 562 -12 308 -12 c 0
 158 -12 61 85 61 265 c 0
 61 441 147 701 402 701 c 0
398 623 m 0
 211 623 159 403 159 262 c 0
 159 120 219 66 311 66 c 0
 500 66 550 288 550 428 c 0
 550 566 494 623 398 623 c 0
290 -74 m 0
 326 -74 349 -99 349 -131 c 0
 349 -170 319 -199 280 -199 c 0
 244 -199 221 -174 221 -142 c 0
 221 -103 251 -74 290 -74 c 0
EndSplineSet
Validated: 1
Substitution2: "'c2sc' Capitals to Small Capitals lookup 36 subtable" uni1ED9.sc
Substitution2: "'aalt' Access All Alternates lookup 0 subtable" uni1ED9.sc
Position2: "'cpsp' Capital Spacing lookup 0 subtable" dx=5 dy=0 dh=10 dv=0
EndChar

StartChar: uni1ED2
Encoding: 7890 7890 114
Width: 686
GlyphClass: 2
Flags: MW
HStem: -12 78<265 405.5 265 435> 623 78<304.5 446>
VStem: 61 98<191 332.5 191 353> 550 98<358 497>
AnchorPoint: "Anchor-18" 0 0 basechar 0
AnchorPoint: "Anchor-17" 525 743 basechar 0
AnchorPoint: "Anchor-16" 425 871 basechar 0
AnchorPoint: "Anchor-15" 405 0 basechar 0
AnchorPoint: "Anchor-14" 303 0 basechar 0
LayerCount: 2
Fore
SplineSet
234 1017 m 1
 331 870 l 1
 293 839 l 1
 175 966 l 1
 234 1017 l 1
283 716 m 1
 246 761 l 1
 395 871 l 1
 455 871 l 1
 574 761 l 1
 533 716 l 1
 418 797 l 1
 283 716 l 1
402 701 m 0
 552 701 648 603 648 421 c 0
 648 239 562 -12 308 -12 c 0
 158 -12 61 85 61 265 c 0
 61 441 147 701 402 701 c 0
398 623 m 0
 211 623 159 403 159 262 c 0
 159 120 219 66 311 66 c 0
 500 66 550 288 550 428 c 0
 550 566 494 623 398 623 c 0
EndSplineSet
Validated: 1
Substitution2: "'c2sc' Capitals to Small Capitals lookup 36 subtable" uni1ED3.sc
Substitution2: "'aalt' Access All Alternates lookup 0 subtable" uni1ED3.sc
Position2: "'cpsp' Capital Spacing lookup 0 subtable" dx=5 dy=0 dh=10 dv=0
EndChar

StartChar: uni1ED4
Encoding: 7892 7892 115
Width: 686
GlyphClass: 2
Flags: MW
HStem: -12 78<265 405.5 265 435> 623 78<304.5 446> 817 54 980 62<582.5 597>
VStem: 61 98<191 332.5 191 353> 537.5 67 550 98<358 497> 622 78<934 961.5>
AnchorPoint: "Anchor-18" 0 0 basechar 0
AnchorPoint: "Anchor-17" 526 743 basechar 0
AnchorPoint: "Anchor-16" 602 1042 basechar 0
AnchorPoint: "Anchor-15" 405 0 basechar 0
AnchorPoint: "Anchor-14" 303 0 basechar 0
LayerCount: 2
Fore
SplineSet
533 817 m 1xec
 542 901 l 1
 585 907 622 916 622 952 c 0
 622 971 608 980 586 980 c 0
 563 980 544 974 526 964 c 1
 508 1019 l 1
 534 1033 563 1042 602 1042 c 0
 665 1042 700 1006 700 955 c 0xf9
 700 899 664 874 608 865 c 1
 601 817 l 1
 533 817 l 1xec
284 716 m 1
 247 761 l 1
 396 871 l 1
 456 871 l 1
 575 761 l 1
 534 716 l 1
 419 797 l 1
 284 716 l 1
402 701 m 0xca
 552 701 648 603 648 421 c 0
 648 239 562 -12 308 -12 c 0
 158 -12 61 85 61 265 c 0
 61 441 147 701 402 701 c 0xca
398 623 m 0
 211 623 159 403 159 262 c 0
 159 120 219 66 311 66 c 0
 500 66 550 288 550 428 c 0
 550 566 494 623 398 623 c 0
EndSplineSet
Validated: 1
Substitution2: "'c2sc' Capitals to Small Capitals lookup 36 subtable" uni1ED5.sc
Substitution2: "'aalt' Access All Alternates lookup 0 subtable" uni1ED5.sc
Position2: "'cpsp' Capital Spacing lookup 0 subtable" dx=5 dy=0 dh=10 dv=0
EndChar

StartChar: uni1ED6
Encoding: 7894 7894 116
Width: 686
GlyphClass: 2
Flags: MW
HStem: -12 78<265 405.5 265 435> 623 78<304.5 446> 900 70<482 509 482 519.5> 948 70<376.5 404.5>
VStem: 61 98<191 332.5 191 353> 550 98<358 497>
AnchorPoint: "Anchor-18" 0 0 basechar 0
AnchorPoint: "Anchor-17" 526 743 basechar 0
AnchorPoint: "Anchor-16" 446 1018 basechar 0
AnchorPoint: "Anchor-15" 405 0 basechar 0
AnchorPoint: "Anchor-14" 303 0 basechar 0
LayerCount: 2
Fore
SplineSet
500 900 m 0xec
 441 900 420 948 389 948 c 0
 364 948 346 930 326 900 c 1
 274 932 l 1
 304 981 343 1018 391 1018 c 0xdc
 448 1018 466 970 498 970 c 0
 520 970 538 986 559 1016 c 1
 613 984 l 1
 579 927 539 900 500 900 c 0xec
284 716 m 1
 247 761 l 1
 396 871 l 1
 456 871 l 1
 575 761 l 1
 534 716 l 1
 419 797 l 1
 284 716 l 1
402 701 m 0
 552 701 648 603 648 421 c 0
 648 239 562 -12 308 -12 c 0
 158 -12 61 85 61 265 c 0
 61 441 147 701 402 701 c 0
398 623 m 0
 211 623 159 403 159 262 c 0
 159 120 219 66 311 66 c 0
 500 66 550 288 550 428 c 0
 550 566 494 623 398 623 c 0
EndSplineSet
Validated: 1
Substitution2: "'c2sc' Capitals to Small Capitals lookup 36 subtable" uni1ED7.sc
Substitution2: "'aalt' Access All Alternates lookup 0 subtable" uni1ED7.sc
Position2: "'cpsp' Capital Spacing lookup 0 subtable" dx=5 dy=0 dh=10 dv=0
EndChar

StartChar: Odieresis
Encoding: 214 214 117
Width: 686
GlyphClass: 2
Flags: MW
HStem: -12 78<265 405.5 265 435> 623 78<304.5 446> 780 113<313 339 521 547>
VStem: 61 98<191 332.5 191 353> 268 116<824 849> 476 116<824 849> 550 98<358 497>
AnchorPoint: "Anchor-18" 0 0 basechar 0
AnchorPoint: "Anchor-17" 603 689 basechar 0
AnchorPoint: "Anchor-16" 430 894 basechar 0
AnchorPoint: "Anchor-15" 405 0 basechar 0
AnchorPoint: "Anchor-14" 303 0 basechar 0
LayerCount: 2
Fore
SplineSet
321 780 m 0xfa
 290 780 268 802 268 831 c 0
 268 867 295 893 331 893 c 0
 362 893 384 871 384 842 c 0
 384 806 357 780 321 780 c 0xfa
529 780 m 0xfc
 498 780 476 802 476 831 c 0
 476 867 503 893 539 893 c 0
 570 893 592 871 592 842 c 0
 592 806 565 780 529 780 c 0xfc
402 701 m 0xfa
 552 701 648 603 648 421 c 0
 648 239 562 -12 308 -12 c 0
 158 -12 61 85 61 265 c 0
 61 441 147 701 402 701 c 0xfa
398 623 m 0
 211 623 159 403 159 262 c 0
 159 120 219 66 311 66 c 0
 500 66 550 288 550 428 c 0
 550 566 494 623 398 623 c 0
EndSplineSet
Validated: 1
Substitution2: "'c2sc' Capitals to Small Capitals lookup 36 subtable" odieresis.sc
Substitution2: "'aalt' Access All Alternates lookup 0 subtable" odieresis.sc
Position2: "'cpsp' Capital Spacing lookup 0 subtable" dx=5 dy=0 dh=10 dv=0
EndChar

StartChar: uni1ECC
Encoding: 7884 7884 118
Width: 686
GlyphClass: 2
Flags: MW
HStem: -199 125<270.5 299.5> -12 78<265 405.5 265 435> 623 78<304.5 446>
VStem: 61 98<191 332.5 191 353> 221 128<-150.5 -122.5> 550 98<358 497>
AnchorPoint: "Anchor-18" 0 0 basechar 0
AnchorPoint: "Anchor-17" 603 689 basechar 0
AnchorPoint: "Anchor-16" 407 689 basechar 0
AnchorPoint: "Anchor-15" 405 0 basechar 0
AnchorPoint: "Anchor-14" 283 -199 basechar 0
LayerCount: 2
Fore
SplineSet
402 701 m 0
 552 701 648 603 648 421 c 0
 648 239 562 -12 308 -12 c 0
 158 -12 61 85 61 265 c 0
 61 441 147 701 402 701 c 0
398 623 m 0
 211 623 159 403 159 262 c 0
 159 120 219 66 311 66 c 0
 500 66 550 288 550 428 c 0
 550 566 494 623 398 623 c 0
290 -74 m 0
 326 -74 349 -99 349 -131 c 0
 349 -170 319 -199 280 -199 c 0
 244 -199 221 -174 221 -142 c 0
 221 -103 251 -74 290 -74 c 0
EndSplineSet
Validated: 1
Substitution2: "'c2sc' Capitals to Small Capitals lookup 36 subtable" uni1ECD.sc
Substitution2: "'aalt' Access All Alternates lookup 0 subtable" uni1ECD.sc
Position2: "'cpsp' Capital Spacing lookup 0 subtable" dx=5 dy=0 dh=10 dv=0
EndChar

StartChar: Ograve
Encoding: 210 210 119
Width: 686
GlyphClass: 2
Flags: MW
HStem: -12 78<265 405.5 265 435> 623 78<304.5 446>
VStem: 61 98<191 332.5 191 353> 550 98<358 497>
AnchorPoint: "Anchor-18" 0 0 basechar 0
AnchorPoint: "Anchor-17" 603 689 basechar 0
AnchorPoint: "Anchor-16" 429 911 basechar 0
AnchorPoint: "Anchor-15" 405 0 basechar 0
AnchorPoint: "Anchor-14" 303 0 basechar 0
LayerCount: 2
Fore
SplineSet
357 907 m 1
 543 803 l 1
 514 754 l 1
 315 830 l 1
 357 907 l 1
402 701 m 0
 552 701 648 603 648 421 c 0
 648 239 562 -12 308 -12 c 0
 158 -12 61 85 61 265 c 0
 61 441 147 701 402 701 c 0
398 623 m 0
 211 623 159 403 159 262 c 0
 159 120 219 66 311 66 c 0
 500 66 550 288 550 428 c 0
 550 566 494 623 398 623 c 0
EndSplineSet
Validated: 1
Substitution2: "'c2sc' Capitals to Small Capitals lookup 36 subtable" ograve.sc
Substitution2: "'aalt' Access All Alternates lookup 0 subtable" ograve.sc
Position2: "'cpsp' Capital Spacing lookup 0 subtable" dx=5 dy=0 dh=10 dv=0
EndChar

StartChar: uni1ECE
Encoding: 7886 7886 120
Width: 686
GlyphClass: 2
Flags: MW
HStem: -12 78<265 405.5 265 435> 623 78<304.5 446> 763 84<384 393 393 393 393 452> 926 62<433.5 448>
VStem: 61 98<191 332.5 191 353> 388.5 67 473 78<880 907.5> 550 98<358 497>
AnchorPoint: "Anchor-18" 0 0 basechar 0
AnchorPoint: "Anchor-17" 603 689 basechar 0
AnchorPoint: "Anchor-16" 453 988 basechar 0
AnchorPoint: "Anchor-15" 405 0 basechar 0
AnchorPoint: "Anchor-14" 303 0 basechar 0
LayerCount: 2
Fore
SplineSet
384 763 m 1xed
 393 847 l 1
 436 853 473 862 473 898 c 0
 473 917 459 926 437 926 c 0
 414 926 395 920 377 910 c 1
 359 965 l 1
 385 979 414 988 453 988 c 0
 516 988 551 952 551 901 c 0xfe
 551 845 515 820 459 811 c 1
 452 763 l 1
 384 763 l 1xed
402 701 m 0xed
 552 701 648 603 648 421 c 0
 648 239 562 -12 308 -12 c 0
 158 -12 61 85 61 265 c 0
 61 441 147 701 402 701 c 0xed
398 623 m 0
 211 623 159 403 159 262 c 0
 159 120 219 66 311 66 c 0
 500 66 550 288 550 428 c 0
 550 566 494 623 398 623 c 0
EndSplineSet
Validated: 1
Substitution2: "'c2sc' Capitals to Small Capitals lookup 36 subtable" uni1ECF.sc
Substitution2: "'aalt' Access All Alternates lookup 0 subtable" uni1ECF.sc
Position2: "'cpsp' Capital Spacing lookup 0 subtable" dx=5 dy=0 dh=10 dv=0
EndChar

StartChar: uni1EDA
Encoding: 7898 7898 121
Width: 692
GlyphClass: 2
Flags: MW
HStem: -12 78<265 405.5 265 435> 623 78<304.5 437 274.5 446>
VStem: 61 98<191 332.5 191 353> 550 98<358 454.5 330 497> 639 75<694 725.5>
AnchorPoint: "Anchor-18" 0 0 basechar 0
AnchorPoint: "Anchor-17" 655 689 basechar 0
AnchorPoint: "Anchor-16" 429 911 basechar 0
AnchorPoint: "Anchor-15" 405 0 basechar 0
AnchorPoint: "Anchor-14" 303 0 basechar 0
LayerCount: 2
Fore
SplineSet
544 831 m 1xf0
 324 755 l 1
 305 804 l 1
 514 908 l 1
 544 831 l 1xf0
714 715 m 0xe8
 714 645 678 601 611 587 c 1
 635 544 648 488 648 421 c 0xf0
 648 239 562 -12 308 -12 c 0
 158 -12 61 85 61 265 c 0
 61 441 147 701 402 701 c 0
 472 701 530 680 572 639 c 1
 619 643 639 671 639 717 c 0
 639 734 636 747 633 760 c 1
 705 771 l 1
 710 757 714 738 714 715 c 0xe8
311 66 m 0xf0
 500 66 550 288 550 428 c 0
 550 566 494 623 398 623 c 0
 211 623 159 403 159 262 c 0
 159 120 219 66 311 66 c 0xf0
EndSplineSet
Validated: 1
Substitution2: "'c2sc' Capitals to Small Capitals lookup 36 subtable" uni1EDB.sc
Substitution2: "'aalt' Access All Alternates lookup 0 subtable" uni1EDB.sc
Position2: "'cpsp' Capital Spacing lookup 0 subtable" dx=5 dy=0 dh=10 dv=0
EndChar

StartChar: uni1EE2
Encoding: 7906 7906 122
Width: 692
GlyphClass: 2
Flags: MW
HStem: -199 125<270.5 299.5> -12 78<265 405.5 265 435> 623 78<304.5 437 274.5 446>
VStem: 61 98<191 332.5 191 353> 221 128<-150.5 -122.5> 550 98<358 454.5 330 497> 639 75<694 725.5>
AnchorPoint: "Anchor-18" 0 0 basechar 0
AnchorPoint: "Anchor-17" 655 689 basechar 0
AnchorPoint: "Anchor-16" 407 689 basechar 0
AnchorPoint: "Anchor-15" 405 0 basechar 0
AnchorPoint: "Anchor-14" 283 -199 basechar 0
LayerCount: 2
Fore
SplineSet
714 715 m 0x72
 714 645 678 601 611 587 c 1
 635 544 648 488 648 421 c 0x74
 648 239 562 -12 308 -12 c 0
 158 -12 61 85 61 265 c 0
 61 441 147 701 402 701 c 0
 472 701 530 680 572 639 c 1
 619 643 639 671 639 717 c 0
 639 734 636 747 633 760 c 1
 705 771 l 1
 710 757 714 738 714 715 c 0x72
311 66 m 0xfc
 500 66 550 288 550 428 c 0
 550 566 494 623 398 623 c 0
 211 623 159 403 159 262 c 0
 159 120 219 66 311 66 c 0xfc
290 -74 m 0
 326 -74 349 -99 349 -131 c 0
 349 -170 319 -199 280 -199 c 0
 244 -199 221 -174 221 -142 c 0
 221 -103 251 -74 290 -74 c 0
EndSplineSet
Validated: 1
Substitution2: "'c2sc' Capitals to Small Capitals lookup 36 subtable" uni1EE3.sc
Substitution2: "'aalt' Access All Alternates lookup 0 subtable" uni1EE3.sc
Position2: "'cpsp' Capital Spacing lookup 0 subtable" dx=5 dy=0 dh=10 dv=0
EndChar

StartChar: uni1EDC
Encoding: 7900 7900 123
Width: 692
GlyphClass: 2
Flags: MW
HStem: -12 78<265 405.5 265 435> 623 78<304.5 437 274.5 446>
VStem: 61 98<191 332.5 191 353> 550 98<358 454.5 330 497> 639 75<694 725.5>
AnchorPoint: "Anchor-18" 0 0 basechar 0
AnchorPoint: "Anchor-17" 655 689 basechar 0
AnchorPoint: "Anchor-16" 429 911 basechar 0
AnchorPoint: "Anchor-15" 405 0 basechar 0
AnchorPoint: "Anchor-14" 303 0 basechar 0
LayerCount: 2
Fore
SplineSet
543 803 m 1xf0
 514 754 l 1
 315 830 l 1
 357 907 l 1
 543 803 l 1xf0
714 715 m 0xe8
 714 645 678 601 611 587 c 1
 635 544 648 488 648 421 c 0xf0
 648 239 562 -12 308 -12 c 0
 158 -12 61 85 61 265 c 0
 61 441 147 701 402 701 c 0
 472 701 530 680 572 639 c 1
 619 643 639 671 639 717 c 0
 639 734 636 747 633 760 c 1
 705 771 l 1
 710 757 714 738 714 715 c 0xe8
311 66 m 0xf0
 500 66 550 288 550 428 c 0
 550 566 494 623 398 623 c 0
 211 623 159 403 159 262 c 0
 159 120 219 66 311 66 c 0xf0
EndSplineSet
Validated: 1
Substitution2: "'c2sc' Capitals to Small Capitals lookup 36 subtable" uni1EDD.sc
Substitution2: "'aalt' Access All Alternates lookup 0 subtable" uni1EDD.sc
Position2: "'cpsp' Capital Spacing lookup 0 subtable" dx=5 dy=0 dh=10 dv=0
EndChar

StartChar: uni1EDE
Encoding: 7902 7902 124
Width: 692
GlyphClass: 2
Flags: MW
HStem: -12 78<265 405.5 265 435> 623 78<304.5 437 274.5 446> 763 84<393 393 393 452 384 393> 926 62<433.5 448>
VStem: 61 98<191 332.5 191 353> 388.5 67 473 78<880 907.5> 550 98<358 454.5 330 497> 639 75<694 725.5>
AnchorPoint: "Anchor-18" 0 0 basechar 0
AnchorPoint: "Anchor-17" 655 689 basechar 0
AnchorPoint: "Anchor-16" 453 988 basechar 0
AnchorPoint: "Anchor-15" 405 0 basechar 0
AnchorPoint: "Anchor-14" 303 0 basechar 0
LayerCount: 2
Fore
SplineSet
437 926 m 0xfa
 414 926 395 920 377 910 c 1
 359 965 l 1
 385 979 414 988 453 988 c 0
 516 988 551 952 551 901 c 0xfa
 551 845 515 820 459 811 c 1
 452 763 l 1
 384 763 l 1xed
 393 847 l 1
 436 853 473 862 473 898 c 0
 473 917 459 926 437 926 c 0xfa
714 715 m 0xc880
 714 645 678 601 611 587 c 1
 635 544 648 488 648 421 c 0xc9
 648 239 562 -12 308 -12 c 0
 158 -12 61 85 61 265 c 0
 61 441 147 701 402 701 c 0
 472 701 530 680 572 639 c 1
 619 643 639 671 639 717 c 0
 639 734 636 747 633 760 c 1
 705 771 l 1
 710 757 714 738 714 715 c 0xc880
311 66 m 0xc9
 500 66 550 288 550 428 c 0
 550 566 494 623 398 623 c 0
 211 623 159 403 159 262 c 0
 159 120 219 66 311 66 c 0xc9
EndSplineSet
Validated: 1
Substitution2: "'c2sc' Capitals to Small Capitals lookup 36 subtable" uni1EDF.sc
Substitution2: "'aalt' Access All Alternates lookup 0 subtable" uni1EDF.sc
Position2: "'cpsp' Capital Spacing lookup 0 subtable" dx=5 dy=0 dh=10 dv=0
EndChar

StartChar: uni1EE0
Encoding: 7904 7904 125
Width: 692
GlyphClass: 2
Flags: MW
HStem: -12 78<265 405.5 265 435> 623 78<304.5 437 274.5 446> 782 70<467 494 467 504.5> 830 70<361.5 389.5>
VStem: 61 98<191 332.5 191 353> 550 98<358 454.5 330 497> 639 75<694 725.5>
AnchorPoint: "Anchor-18" 0 0 basechar 0
AnchorPoint: "Anchor-17" 655 689 basechar 0
AnchorPoint: "Anchor-16" 431 900 basechar 0
AnchorPoint: "Anchor-15" 405 0 basechar 0
AnchorPoint: "Anchor-14" 303 0 basechar 0
LayerCount: 2
Fore
SplineSet
374 830 m 0xdc
 349 830 331 812 311 782 c 1
 259 814 l 1
 289 863 328 900 376 900 c 0xdc
 433 900 451 852 483 852 c 0
 505 852 523 868 544 898 c 1
 598 866 l 1
 564 809 524 782 485 782 c 0xec
 426 782 405 830 374 830 c 0xdc
714 715 m 0xda
 714 645 678 601 611 587 c 1
 635 544 648 488 648 421 c 0xdc
 648 239 562 -12 308 -12 c 0
 158 -12 61 85 61 265 c 0
 61 441 147 701 402 701 c 0
 472 701 530 680 572 639 c 1
 619 643 639 671 639 717 c 0
 639 734 636 747 633 760 c 1
 705 771 l 1
 710 757 714 738 714 715 c 0xda
311 66 m 0xdc
 500 66 550 288 550 428 c 0
 550 566 494 623 398 623 c 0
 211 623 159 403 159 262 c 0
 159 120 219 66 311 66 c 0xdc
EndSplineSet
Validated: 1
Substitution2: "'c2sc' Capitals to Small Capitals lookup 36 subtable" uni1EE1.sc
Substitution2: "'aalt' Access All Alternates lookup 0 subtable" uni1EE1.sc
Position2: "'cpsp' Capital Spacing lookup 0 subtable" dx=5 dy=0 dh=10 dv=0
EndChar

StartChar: Ohungarumlaut
Encoding: 336 336 126
Width: 686
GlyphClass: 2
Flags: MW
HStem: -12 78<265 405.5 265 435> 623 78<304.5 446>
VStem: 61 98<191 332.5 191 353> 550 98<358 497>
AnchorPoint: "Anchor-18" 0 0 basechar 0
AnchorPoint: "Anchor-17" 603 689 basechar 0
AnchorPoint: "Anchor-16" 407 689 basechar 0
AnchorPoint: "Anchor-15" 405 0 basechar 0
AnchorPoint: "Anchor-14" 303 0 basechar 0
LayerCount: 2
Fore
SplineSet
436 926 m 1
 497 882 l 1
 352 734 l 1
 310 762 l 1
 436 926 l 1
583 916 m 1
 642 869 l 1
 489 729 l 1
 449 759 l 1
 583 916 l 1
402 701 m 0
 552 701 648 603 648 421 c 0
 648 239 562 -12 308 -12 c 0
 158 -12 61 85 61 265 c 0
 61 441 147 701 402 701 c 0
398 623 m 0
 211 623 159 403 159 262 c 0
 159 120 219 66 311 66 c 0
 500 66 550 288 550 428 c 0
 550 566 494 623 398 623 c 0
EndSplineSet
Validated: 1
Substitution2: "'c2sc' Capitals to Small Capitals lookup 36 subtable" ohungarumlaut.sc
Substitution2: "'aalt' Access All Alternates lookup 0 subtable" ohungarumlaut.sc
Position2: "'cpsp' Capital Spacing lookup 0 subtable" dx=5 dy=0 dh=10 dv=0
EndChar

StartChar: Omacron
Encoding: 332 332 127
Width: 686
GlyphClass: 2
Flags: MW
HStem: -12 78<265 405.5 265 435> 623 78<304.5 446> 793 69<297 559 288 568>
VStem: 61 98<191 332.5 191 353> 550 98<358 497>
AnchorPoint: "Anchor-18" 0 0 basechar 0
AnchorPoint: "Anchor-17" 603 689 basechar 0
AnchorPoint: "Anchor-16" 428 862 basechar 0
AnchorPoint: "Anchor-15" 405 0 basechar 0
AnchorPoint: "Anchor-14" 303 0 basechar 0
LayerCount: 2
Fore
SplineSet
559 793 m 1
 288 793 l 1
 297 862 l 1
 568 862 l 1
 559 793 l 1
402 701 m 0
 552 701 648 603 648 421 c 0
 648 239 562 -12 308 -12 c 0
 158 -12 61 85 61 265 c 0
 61 441 147 701 402 701 c 0
398 623 m 0
 211 623 159 403 159 262 c 0
 159 120 219 66 311 66 c 0
 500 66 550 288 550 428 c 0
 550 566 494 623 398 623 c 0
EndSplineSet
Validated: 1
Substitution2: "'c2sc' Capitals to Small Capitals lookup 36 subtable" omacron.sc
Substitution2: "'aalt' Access All Alternates lookup 0 subtable" omacron.sc
Position2: "'cpsp' Capital Spacing lookup 0 subtable" dx=5 dy=0 dh=10 dv=0
EndChar

StartChar: uni1E52
Encoding: 7762 7762 128
Width: 686
GlyphClass: 2
Flags: MW
HStem: -12 78<265 405.5 265 435> 623 78<304.5 446> 759 69<292 554 283 563>
VStem: 61 98<191 332.5 191 353> 550 98<358 497>
AnchorPoint: "Anchor-18" 0 0 basechar 0
AnchorPoint: "Anchor-17" 603 689 basechar 0
AnchorPoint: "Anchor-16" 438 1030 basechar 0
AnchorPoint: "Anchor-15" 405 0 basechar 0
AnchorPoint: "Anchor-14" 303 0 basechar 0
LayerCount: 2
Fore
SplineSet
523 1027 m 1
 553 950 l 1
 333 874 l 1
 314 923 l 1
 523 1027 l 1
554 759 m 1
 283 759 l 1
 292 828 l 1
 563 828 l 1
 554 759 l 1
402 701 m 0
 552 701 648 603 648 421 c 0
 648 239 562 -12 308 -12 c 0
 158 -12 61 85 61 265 c 0
 61 441 147 701 402 701 c 0
398 623 m 0
 211 623 159 403 159 262 c 0
 159 120 219 66 311 66 c 0
 500 66 550 288 550 428 c 0
 550 566 494 623 398 623 c 0
EndSplineSet
Validated: 1
Substitution2: "'c2sc' Capitals to Small Capitals lookup 36 subtable" uni1E53.sc
Substitution2: "'aalt' Access All Alternates lookup 0 subtable" uni1E53.sc
Position2: "'cpsp' Capital Spacing lookup 0 subtable" dx=5 dy=0 dh=10 dv=0
EndChar

StartChar: uni1E50
Encoding: 7760 7760 129
Width: 686
GlyphClass: 2
Flags: MW
HStem: -12 78<265 405.5 265 435> 623 78<304.5 446> 759 69<292 554 283 563>
VStem: 61 98<191 332.5 191 353> 550 98<358 497>
AnchorPoint: "Anchor-18" 0 0 basechar 0
AnchorPoint: "Anchor-17" 603 689 basechar 0
AnchorPoint: "Anchor-16" 442 1030 basechar 0
AnchorPoint: "Anchor-15" 405 0 basechar 0
AnchorPoint: "Anchor-14" 303 0 basechar 0
LayerCount: 2
Fore
SplineSet
370 1026 m 1
 556 922 l 1
 527 873 l 1
 328 949 l 1
 370 1026 l 1
554 759 m 1
 283 759 l 1
 292 828 l 1
 563 828 l 1
 554 759 l 1
402 701 m 0
 552 701 648 603 648 421 c 0
 648 239 562 -12 308 -12 c 0
 158 -12 61 85 61 265 c 0
 61 441 147 701 402 701 c 0
398 623 m 0
 211 623 159 403 159 262 c 0
 159 120 219 66 311 66 c 0
 500 66 550 288 550 428 c 0
 550 566 494 623 398 623 c 0
EndSplineSet
Validated: 1
Substitution2: "'c2sc' Capitals to Small Capitals lookup 36 subtable" uni1E51.sc
Substitution2: "'aalt' Access All Alternates lookup 0 subtable" uni1E51.sc
Position2: "'cpsp' Capital Spacing lookup 0 subtable" dx=5 dy=0 dh=10 dv=0
EndChar

StartChar: Oslash
Encoding: 216 216 130
Width: 686
GlyphClass: 2
Flags: MW
HStem: -12 78<303 405.5 303 435> -5 21G<241 241> 623 78<304.5 406> 674 20G<467 467>
VStem: 61 98<214 329 214 353> 550 98<363 478>
AnchorPoint: "Anchor-18" 0 0 basechar 0
AnchorPoint: "Anchor-17" 0 0 basechar 0
AnchorPoint: "Anchor-16" 402 704 basechar 0
AnchorPoint: "Anchor-15" 0 0 basechar 0
AnchorPoint: "Anchor-14" 306 0 basechar 0
LayerCount: 2
Fore
SplineSet
539 665 m 1xac
 608 621 648 539 648 421 c 0
 648 239 562 -12 308 -12 c 0xac
 284 -12 262 -10 241 -5 c 1
 188 -127 l 1
 111 -106 l 1
 169 25 l 1
 101 68 61 150 61 265 c 0
 61 441 147 701 402 701 c 0x6c
 425 701 447 699 467 694 c 1x9c
 522 819 l 1
 599 798 l 1
 539 665 l 1xac
398 623 m 0
 211 623 159 403 159 255 c 0
 159 173 178 124 211 96 c 1
 442 619 l 1
 428 622 414 623 398 623 c 0
311 66 m 0
 500 66 550 288 550 438 c 0
 550 518 531 568 496 595 c 1
 266 70 l 1
 280 67 295 66 311 66 c 0
EndSplineSet
Validated: 1
Substitution2: "'c2sc' Capitals to Small Capitals lookup 36 subtable" oslash.sc
Substitution2: "'aalt' Access All Alternates lookup 0 subtable" oslash.sc
Position2: "'cpsp' Capital Spacing lookup 0 subtable" dx=5 dy=0 dh=10 dv=0
EndChar

StartChar: Otilde
Encoding: 213 213 131
Width: 686
GlyphClass: 2
Flags: MW
HStem: -12 78<265 405.5 265 435> 623 78<304.5 446> 782 70<467 494 467 504.5> 830 70<361.5 389.5>
VStem: 61 98<191 332.5 191 353> 550 98<358 497>
AnchorPoint: "Anchor-18" 0 0 basechar 0
AnchorPoint: "Anchor-17" 603 689 basechar 0
AnchorPoint: "Anchor-16" 431 900 basechar 0
AnchorPoint: "Anchor-15" 405 0 basechar 0
AnchorPoint: "Anchor-14" 303 0 basechar 0
LayerCount: 2
Fore
SplineSet
485 782 m 0xec
 426 782 405 830 374 830 c 0
 349 830 331 812 311 782 c 1
 259 814 l 1
 289 863 328 900 376 900 c 0xdc
 433 900 451 852 483 852 c 0
 505 852 523 868 544 898 c 1
 598 866 l 1
 564 809 524 782 485 782 c 0xec
402 701 m 0
 552 701 648 603 648 421 c 0
 648 239 562 -12 308 -12 c 0
 158 -12 61 85 61 265 c 0
 61 441 147 701 402 701 c 0
398 623 m 0
 211 623 159 403 159 262 c 0
 159 120 219 66 311 66 c 0
 500 66 550 288 550 428 c 0
 550 566 494 623 398 623 c 0
EndSplineSet
Validated: 1
Substitution2: "'c2sc' Capitals to Small Capitals lookup 36 subtable" otilde.sc
Substitution2: "'aalt' Access All Alternates lookup 0 subtable" otilde.sc
Position2: "'cpsp' Capital Spacing lookup 0 subtable" dx=5 dy=0 dh=10 dv=0
EndChar

StartChar: uni1E4C
Encoding: 7756 7756 132
Width: 686
GlyphClass: 2
Flags: MW
HStem: -12 78<265 405.5 265 435> 623 78<304.5 446> 758 70<468 495 468 505.5> 806 70<362.5 390.5>
VStem: 61 98<191 332.5 191 353> 550 98<358 497>
AnchorPoint: "Anchor-18" 0 0 basechar 0
AnchorPoint: "Anchor-17" 603 689 basechar 0
AnchorPoint: "Anchor-16" 447 1058 basechar 0
AnchorPoint: "Anchor-15" 405 0 basechar 0
AnchorPoint: "Anchor-14" 303 0 basechar 0
LayerCount: 2
Fore
SplineSet
532 1055 m 1xec
 562 978 l 1
 342 902 l 1
 323 951 l 1
 532 1055 l 1xec
486 758 m 0
 427 758 406 806 375 806 c 0
 350 806 332 788 312 758 c 1
 260 790 l 1
 290 839 329 876 377 876 c 0xdc
 434 876 452 828 484 828 c 0
 506 828 524 844 545 874 c 1
 599 842 l 1
 565 785 525 758 486 758 c 0
402 701 m 0
 552 701 648 603 648 421 c 0
 648 239 562 -12 308 -12 c 0
 158 -12 61 85 61 265 c 0
 61 441 147 701 402 701 c 0
398 623 m 0
 211 623 159 403 159 262 c 0
 159 120 219 66 311 66 c 0
 500 66 550 288 550 428 c 0
 550 566 494 623 398 623 c 0
EndSplineSet
Validated: 1
Substitution2: "'c2sc' Capitals to Small Capitals lookup 36 subtable" uni1E4D.sc
Substitution2: "'aalt' Access All Alternates lookup 0 subtable" uni1E4D.sc
Position2: "'cpsp' Capital Spacing lookup 0 subtable" dx=5 dy=0 dh=10 dv=0
EndChar

StartChar: OE
Encoding: 338 338 133
Width: 888
GlyphClass: 2
Flags: MW
HStem: -12 78<259 307.5> 0 66<371 390 259 798 371 371> 0 76<493 798> 312 76<626 789 617 799> 613 76<565 866 565 565> 623 66<300 887> 623 78<300 401 269 431.5>
VStem: 61 98<187 324.5 187 351.5> 530 97<411.5 458 411.5 504>
AnchorPoint: "Anchor-18" 0 0 basechar 0
AnchorPoint: "Anchor-17" 0 0 basechar 0
AnchorPoint: "Anchor-16" 510 689 basechar 0
AnchorPoint: "Anchor-15" 0 0 basechar 0
AnchorPoint: "Anchor-14" 413 0 basechar 0
LayerCount: 2
Fore
SplineSet
887 689 m 1x3980
 866 613 l 1
 565 613 l 1
 606 568 627 500 627 416 c 0
 627 407 627 398 626 388 c 1
 799 388 l 1
 789 312 l 1
 617 312 l 1
 601 227 564 139 493 76 c 1
 809 76 l 1
 798 0 l 1
 371 0 l 1x3980
 346 -8 320 -12 295 -12 c 0
 156 -12 61 85 61 264 c 0
 61 439 151 701 387 701 c 0x9380
 415 701 441 697 465 688 c 1
 463 689 l 1
 887 689 l 1x3980
301 66 m 0x5580
 479 66 530 291 530 439 c 0
 530 569 475 623 388 623 c 0
 212 623 159 394 159 255 c 0
 159 119 217 66 301 66 c 0x5580
EndSplineSet
Validated: 1
Substitution2: "'c2sc' Capitals to Small Capitals lookup 36 subtable" oe.sc
Substitution2: "'aalt' Access All Alternates lookup 0 subtable" oe.sc
Position2: "'cpsp' Capital Spacing lookup 0 subtable" dx=5 dy=0 dh=10 dv=0
EndChar

StartChar: P
Encoding: 80 80 134
Width: 575
GlyphClass: 2
Flags: MW
HStem: 0 21G<62 156 62 62> 253 75<202 280 191 282> 615 74<242 329 242 242>
VStem: 476 100<462.5 547.5>
AnchorPoint: "Anchor-18" 0 0 basechar 0
AnchorPoint: "Anchor-17" 0 0 basechar 0
AnchorPoint: "Anchor-16" 348 689 basechar 0
AnchorPoint: "Anchor-15" 0 0 basechar 0
AnchorPoint: "Anchor-14" 251 0 basechar 0
LayerCount: 2
Fore
SplineSet
336 689 m 2
 486 689 576 631 576 507 c 0
 576 379 500 253 280 253 c 2
 191 253 l 1
 156 0 l 1
 62 0 l 1
 159 689 l 1
 336 689 l 2
282 328 m 2
 438 328 476 418 476 507 c 0
 476 588 419 615 329 615 c 2
 242 615 l 1
 202 328 l 1
 282 328 l 2
EndSplineSet
Validated: 1
Substitution2: "'c2sc' Capitals to Small Capitals lookup 36 subtable" p.sc
Substitution2: "'aalt' Access All Alternates lookup 0 subtable" p.sc
Position2: "'cpsp' Capital Spacing lookup 0 subtable" dx=5 dy=0 dh=10 dv=0
EndChar

StartChar: uni1E54
Encoding: 7764 7764 135
Width: 575
GlyphClass: 2
Flags: MW
HStem: 0 21G<62 156 62 62> 253 75<202 280 191 282> 615 74<242 329 242 242>
VStem: 476 100<462.5 547.5>
AnchorPoint: "Anchor-18" 0 0 basechar 0
AnchorPoint: "Anchor-17" 0 0 basechar 0
AnchorPoint: "Anchor-16" 370 911 basechar 0
AnchorPoint: "Anchor-15" 0 0 basechar 0
AnchorPoint: "Anchor-14" 251 0 basechar 0
LayerCount: 2
Fore
SplineSet
485 831 m 1
 265 755 l 1
 246 804 l 1
 455 908 l 1
 485 831 l 1
336 689 m 2
 486 689 576 631 576 507 c 0
 576 379 500 253 280 253 c 2
 191 253 l 1
 156 0 l 1
 62 0 l 1
 159 689 l 1
 336 689 l 2
282 328 m 2
 438 328 476 418 476 507 c 0
 476 588 419 615 329 615 c 2
 242 615 l 1
 202 328 l 1
 282 328 l 2
EndSplineSet
Validated: 1
Substitution2: "'c2sc' Capitals to Small Capitals lookup 36 subtable" uni1E55.sc
Substitution2: "'aalt' Access All Alternates lookup 0 subtable" uni1E55.sc
Position2: "'cpsp' Capital Spacing lookup 0 subtable" dx=5 dy=0 dh=10 dv=0
EndChar

StartChar: uni1E56
Encoding: 7766 7766 136
Width: 575
GlyphClass: 2
Flags: MW
HStem: 0 21G<62 156 62 62> 253 75<202 280 191 282> 615 74<242 329 242 242> 781 125<358.5 387.5>
VStem: 309 128<829.5 857.5> 476 100<462.5 547.5>
AnchorPoint: "Anchor-18" 0 0 basechar 0
AnchorPoint: "Anchor-17" 0 0 basechar 0
AnchorPoint: "Anchor-16" 375 906 basechar 0
AnchorPoint: "Anchor-15" 0 0 basechar 0
AnchorPoint: "Anchor-14" 251 0 basechar 0
LayerCount: 2
Fore
SplineSet
368 781 m 0
 332 781 309 806 309 838 c 0
 309 877 339 906 378 906 c 0
 414 906 437 881 437 849 c 0
 437 810 407 781 368 781 c 0
336 689 m 2
 486 689 576 631 576 507 c 0
 576 379 500 253 280 253 c 2
 191 253 l 1
 156 0 l 1
 62 0 l 1
 159 689 l 1
 336 689 l 2
282 328 m 2
 438 328 476 418 476 507 c 0
 476 588 419 615 329 615 c 2
 242 615 l 1
 202 328 l 1
 282 328 l 2
EndSplineSet
Validated: 1
Substitution2: "'c2sc' Capitals to Small Capitals lookup 36 subtable" uni1E57.sc
Substitution2: "'aalt' Access All Alternates lookup 0 subtable" uni1E57.sc
Position2: "'cpsp' Capital Spacing lookup 0 subtable" dx=5 dy=0 dh=10 dv=0
EndChar

StartChar: Thorn
Encoding: 222 222 137
Width: 575
GlyphClass: 2
Flags: MW
HStem: 0 21G<62 156 62 62> 127 75<184 262 174 264> 497 74<236 313 226 319> 669 20G<159 253 253 253>
VStem: 459 100<339.5 427.5>
AnchorPoint: "Anchor-18" 0 0 basechar 0
AnchorPoint: "Anchor-17" 0 0 basechar 0
AnchorPoint: "Anchor-16" 347 689 basechar 0
AnchorPoint: "Anchor-15" 0 0 basechar 0
AnchorPoint: "Anchor-14" 250 0 basechar 0
LayerCount: 2
Fore
SplineSet
319 571 m 2
 469 571 559 513 559 385 c 0
 559 265 490 127 262 127 c 2
 174 127 l 1
 156 0 l 1
 62 0 l 1
 159 689 l 1
 253 689 l 1
 236 571 l 1
 319 571 l 2
264 202 m 2
 417 202 459 294 459 385 c 0
 459 470 403 497 313 497 c 2
 226 497 l 1
 184 202 l 1
 264 202 l 2
EndSplineSet
Validated: 1
Substitution2: "'c2sc' Capitals to Small Capitals lookup 36 subtable" thorn.sc
Substitution2: "'aalt' Access All Alternates lookup 0 subtable" thorn.sc
Position2: "'cpsp' Capital Spacing lookup 0 subtable" dx=5 dy=0 dh=10 dv=0
EndChar

StartChar: Q
Encoding: 81 81 138
Width: 683
GlyphClass: 2
Flags: MW
HStem: -12 49 -12 78<265 370> 623 78<304.5 446>
VStem: 61 98<187.5 329 187.5 353> 550 98<363 502>
AnchorPoint: "Anchor-18" 0 0 basechar 0
AnchorPoint: "Anchor-17" 0 0 basechar 0
AnchorPoint: "Anchor-16" 401 689 basechar 0
AnchorPoint: "Anchor-15" 0 0 basechar 0
AnchorPoint: "Anchor-14" 304 0 basechar 0
LayerCount: 2
Fore
SplineSet
648 421 m 0x78
 648 281 597 100 452 37 c 1
 526 35 578 7 622 -26 c 1xb8
 552 -103 l 1
 485 -33 432 -12 308 -12 c 0
 158 -12 61 85 61 265 c 0
 61 441 147 701 402 701 c 0
 552 701 648 603 648 421 c 0x78
159 255 m 0
 159 120 219 66 311 66 c 0
 500 66 550 288 550 438 c 0
 550 566 494 623 398 623 c 0
 211 623 159 403 159 255 c 0
EndSplineSet
Validated: 1
Substitution2: "'c2sc' Capitals to Small Capitals lookup 36 subtable" q.sc
Substitution2: "'aalt' Access All Alternates lookup 0 subtable" q.sc
Position2: "'cpsp' Capital Spacing lookup 0 subtable" dx=5 dy=0 dh=10 dv=0
EndChar

StartChar: R
Encoding: 82 82 139
Width: 599
GlyphClass: 2
Flags: MW
HStem: 0 21G<62 156 62 62 433 537 433 433> 292 73<207 306 197 308> 615 74<242 242 242 331>
VStem: 473 99<483 552.5>
AnchorPoint: "Anchor-18" 0 0 basechar 0
AnchorPoint: "Anchor-17" 0 0 basechar 0
AnchorPoint: "Anchor-16" 356 689 basechar 0
AnchorPoint: "Anchor-15" 0 0 basechar 0
AnchorPoint: "Anchor-14" 269 0 basechar 0
LayerCount: 2
Fore
SplineSet
572 518 m 0
 572 434 528 343 398 306 c 1
 537 0 l 1
 433 0 l 1
 306 292 l 1
 197 292 l 1
 156 0 l 1
 62 0 l 1
 159 689 l 1
 336 689 l 2
 494 689 572 632 572 518 c 0
242 615 m 1
 207 365 l 1
 308 365 l 2
 438 365 473 449 473 517 c 0
 473 588 429 615 331 615 c 2
 242 615 l 1
EndSplineSet
Validated: 1
Substitution2: "'c2sc' Capitals to Small Capitals lookup 36 subtable" r.sc
Substitution2: "'aalt' Access All Alternates lookup 0 subtable" r.sc
Position2: "'cpsp' Capital Spacing lookup 0 subtable" dx=5 dy=0 dh=10 dv=0
EndChar

StartChar: Racute
Encoding: 340 340 140
Width: 599
GlyphClass: 2
Flags: MW
HStem: 0 21G<62 156 62 62 433 537 433 433> 292 73<207 306 197 308> 615 74<242 242 242 331>
VStem: 473 99<483 552.5>
AnchorPoint: "Anchor-18" 0 0 basechar 0
AnchorPoint: "Anchor-17" 0 0 basechar 0
AnchorPoint: "Anchor-16" 378 911 basechar 0
AnchorPoint: "Anchor-15" 0 0 basechar 0
AnchorPoint: "Anchor-14" 269 0 basechar 0
LayerCount: 2
Fore
SplineSet
493 831 m 1
 273 755 l 1
 254 804 l 1
 463 908 l 1
 493 831 l 1
572 518 m 0
 572 434 528 343 398 306 c 1
 537 0 l 1
 433 0 l 1
 306 292 l 1
 197 292 l 1
 156 0 l 1
 62 0 l 1
 159 689 l 1
 336 689 l 2
 494 689 572 632 572 518 c 0
242 615 m 1
 207 365 l 1
 308 365 l 2
 438 365 473 449 473 517 c 0
 473 588 429 615 331 615 c 2
 242 615 l 1
EndSplineSet
Validated: 1
Substitution2: "'c2sc' Capitals to Small Capitals lookup 36 subtable" racute.sc
Substitution2: "'aalt' Access All Alternates lookup 0 subtable" racute.sc
Position2: "'cpsp' Capital Spacing lookup 0 subtable" dx=5 dy=0 dh=10 dv=0
EndChar

StartChar: Rcaron
Encoding: 344 344 141
Width: 599
GlyphClass: 2
Flags: MW
HStem: 0 21G<62 156 62 62 433 537 433 433> 292 73<207 306 197 308> 615 74<242 242 242 331>
VStem: 473 99<483 552.5>
AnchorPoint: "Anchor-18" 0 0 basechar 0
AnchorPoint: "Anchor-17" 0 0 basechar 0
AnchorPoint: "Anchor-16" 381 909 basechar 0
AnchorPoint: "Anchor-15" 0 0 basechar 0
AnchorPoint: "Anchor-14" 269 0 basechar 0
LayerCount: 2
Fore
SplineSet
395 754 m 1
 335 754 l 1
 215 864 l 1
 258 909 l 1
 371 828 l 1
 508 909 l 1
 543 864 l 1
 395 754 l 1
572 518 m 0
 572 434 528 343 398 306 c 1
 537 0 l 1
 433 0 l 1
 306 292 l 1
 197 292 l 1
 156 0 l 1
 62 0 l 1
 159 689 l 1
 336 689 l 2
 494 689 572 632 572 518 c 0
242 615 m 1
 207 365 l 1
 308 365 l 2
 438 365 473 449 473 517 c 0
 473 588 429 615 331 615 c 2
 242 615 l 1
EndSplineSet
Validated: 1
Substitution2: "'c2sc' Capitals to Small Capitals lookup 36 subtable" rcaron.sc
Substitution2: "'aalt' Access All Alternates lookup 0 subtable" rcaron.sc
Position2: "'cpsp' Capital Spacing lookup 0 subtable" dx=5 dy=0 dh=10 dv=0
EndChar

StartChar: uni0156
Encoding: 342 342 142
Width: 599
GlyphClass: 2
Flags: MW
HStem: 0 21G<62 156 62 62 433 537 433 433> 292 73<207 306 197 308> 615 74<242 242 242 331>
VStem: 197 113<-141 -119> 473 99<483 552.5>
AnchorPoint: "Anchor-18" 0 0 basechar 0
AnchorPoint: "Anchor-17" 0 0 basechar 0
AnchorPoint: "Anchor-16" 356 689 basechar 0
AnchorPoint: "Anchor-15" 0 0 basechar 0
AnchorPoint: "Anchor-14" 269 0 basechar 0
LayerCount: 2
Fore
SplineSet
572 518 m 0
 572 434 528 343 398 306 c 1
 537 0 l 1
 433 0 l 1
 306 292 l 1
 197 292 l 1
 156 0 l 1
 62 0 l 1
 159 689 l 1
 336 689 l 2
 494 689 572 632 572 518 c 0
242 615 m 1
 207 365 l 1
 308 365 l 2
 438 365 473 449 473 517 c 0
 473 588 429 615 331 615 c 2
 242 615 l 1
258 -77 m 0
 292 -77 310 -104 310 -129 c 0
 310 -153 301 -171 274 -214 c 2
 222 -296 l 1
 168 -296 l 1
 216 -178 l 1
 206 -168 197 -153 197 -136 c 0
 197 -102 225 -77 258 -77 c 0
EndSplineSet
Validated: 1
Substitution2: "'c2sc' Capitals to Small Capitals lookup 36 subtable" uni0157.sc
Substitution2: "'aalt' Access All Alternates lookup 0 subtable" uni0157.sc
Position2: "'cpsp' Capital Spacing lookup 0 subtable" dx=5 dy=0 dh=10 dv=0
EndChar

StartChar: uni1E5A
Encoding: 7770 7770 143
Width: 599
GlyphClass: 2
Flags: MW
HStem: -199 125<236.5 265.5> 0 21G<62 156 62 62 433 537 433 433> 292 73<207 306 197 308> 615 74<242 242 242 331>
VStem: 187 128<-150.5 -122.5> 473 99<483 552.5>
AnchorPoint: "Anchor-18" 0 0 basechar 0
AnchorPoint: "Anchor-17" 0 0 basechar 0
AnchorPoint: "Anchor-16" 356 689 basechar 0
AnchorPoint: "Anchor-15" 0 0 basechar 0
AnchorPoint: "Anchor-14" 249 -199 basechar 0
LayerCount: 2
Fore
SplineSet
572 518 m 0
 572 434 528 343 398 306 c 1
 537 0 l 1
 433 0 l 1
 306 292 l 1
 197 292 l 1
 156 0 l 1
 62 0 l 1
 159 689 l 1
 336 689 l 2
 494 689 572 632 572 518 c 0
242 615 m 1
 207 365 l 1
 308 365 l 2
 438 365 473 449 473 517 c 0
 473 588 429 615 331 615 c 2
 242 615 l 1
256 -74 m 0
 292 -74 315 -99 315 -131 c 0
 315 -170 285 -199 246 -199 c 0
 210 -199 187 -174 187 -142 c 0
 187 -103 217 -74 256 -74 c 0
EndSplineSet
Validated: 1
Substitution2: "'c2sc' Capitals to Small Capitals lookup 36 subtable" uni1E5B.sc
Substitution2: "'aalt' Access All Alternates lookup 0 subtable" uni1E5B.sc
Position2: "'cpsp' Capital Spacing lookup 0 subtable" dx=5 dy=0 dh=10 dv=0
EndChar

StartChar: S
Encoding: 83 83 144
Width: 539
GlyphClass: 2
Flags: MW
HStem: -12 78<187.5 275 187.5 316.5> 623 78<285 351.5>
VStem: 87 96<485 547 485 551.5> 394 98<161.5 234>
AnchorPoint: "Anchor-18" 0 0 basechar 0
AnchorPoint: "Anchor-17" 0 0 basechar 0
AnchorPoint: "Anchor-16" 333 689 basechar 0
AnchorPoint: "Anchor-15" 0 0 basechar 0
AnchorPoint: "Anchor-14" 227 0 basechar 0
LayerCount: 2
Fore
SplineSet
324 701 m 0
 414 701 476 671 527 618 c 1
 468 563 l 1
 424 607 379 623 324 623 c 0
 246 623 183 583 183 511 c 0
 183 459 211 432 312 398 c 0
 408 368 492 327 492 209 c 0
 492 103 411 -12 222 -12 c 0
 121 -12 48 24 -1 80 c 1
 59 136 l 1
 100 91 151 66 224 66 c 0
 326 66 394 119 394 204 c 0
 394 264 362 291 267 324 c 0
 150 365 87 408 87 506 c 0
 87 597 169 701 324 701 c 0
EndSplineSet
Validated: 1
Substitution2: "'c2sc' Capitals to Small Capitals lookup 36 subtable" s.sc
Substitution2: "'aalt' Access All Alternates lookup 0 subtable" s.sc
Position2: "'cpsp' Capital Spacing lookup 0 subtable" dx=5 dy=0 dh=10 dv=0
EndChar

StartChar: Sacute
Encoding: 346 346 145
Width: 539
GlyphClass: 2
Flags: MW
HStem: -12 78<187.5 275 187.5 316.5> 623 78<285 351.5>
VStem: 87 96<485 547 485 551.5> 394 98<161.5 234>
AnchorPoint: "Anchor-18" 0 0 basechar 0
AnchorPoint: "Anchor-17" 0 0 basechar 0
AnchorPoint: "Anchor-16" 355 911 basechar 0
AnchorPoint: "Anchor-15" 0 0 basechar 0
AnchorPoint: "Anchor-14" 227 0 basechar 0
LayerCount: 2
Fore
SplineSet
440 908 m 1
 470 831 l 1
 250 755 l 1
 231 804 l 1
 440 908 l 1
324 701 m 0
 414 701 476 671 527 618 c 1
 468 563 l 1
 424 607 379 623 324 623 c 0
 246 623 183 583 183 511 c 0
 183 459 211 432 312 398 c 0
 408 368 492 327 492 209 c 0
 492 103 411 -12 222 -12 c 0
 121 -12 48 24 -1 80 c 1
 59 136 l 1
 100 91 151 66 224 66 c 0
 326 66 394 119 394 204 c 0
 394 264 362 291 267 324 c 0
 150 365 87 408 87 506 c 0
 87 597 169 701 324 701 c 0
EndSplineSet
Validated: 1
Substitution2: "'c2sc' Capitals to Small Capitals lookup 36 subtable" sacute.sc
Substitution2: "'locl' Localized Forms in Latin lookup 14 subtable" Sacute.loclPLK
AlternateSubs2: "'aalt' Access All Alternates lookup 1 subtable" Sacute.loclPLK sacute.sc
Position2: "'cpsp' Capital Spacing lookup 0 subtable" dx=5 dy=0 dh=10 dv=0
EndChar

StartChar: Scaron
Encoding: 352 352 146
Width: 539
GlyphClass: 2
Flags: MW
HStem: -12 78<187.5 275 187.5 316.5> 623 78<285 351.5>
VStem: 87 96<485 547 485 551.5> 394 98<161.5 234>
AnchorPoint: "Anchor-18" 0 0 basechar 0
AnchorPoint: "Anchor-17" 0 0 basechar 0
AnchorPoint: "Anchor-16" 358 909 basechar 0
AnchorPoint: "Anchor-15" 0 0 basechar 0
AnchorPoint: "Anchor-14" 227 0 basechar 0
LayerCount: 2
Fore
SplineSet
485 909 m 1
 520 864 l 1
 372 754 l 1
 312 754 l 1
 192 864 l 1
 235 909 l 1
 348 828 l 1
 485 909 l 1
324 701 m 0
 414 701 476 671 527 618 c 1
 468 563 l 1
 424 607 379 623 324 623 c 0
 246 623 183 583 183 511 c 0
 183 459 211 432 312 398 c 0
 408 368 492 327 492 209 c 0
 492 103 411 -12 222 -12 c 0
 121 -12 48 24 -1 80 c 1
 59 136 l 1
 100 91 151 66 224 66 c 0
 326 66 394 119 394 204 c 0
 394 264 362 291 267 324 c 0
 150 365 87 408 87 506 c 0
 87 597 169 701 324 701 c 0
EndSplineSet
Validated: 1
Substitution2: "'c2sc' Capitals to Small Capitals lookup 36 subtable" scaron.sc
Substitution2: "'aalt' Access All Alternates lookup 0 subtable" scaron.sc
Position2: "'cpsp' Capital Spacing lookup 0 subtable" dx=5 dy=0 dh=10 dv=0
EndChar

StartChar: Scedilla
Encoding: 350 350 147
Width: 539
GlyphClass: 2
Flags: MW
HStem: -241 60<186 216.5 186 242.5> -214 21G<108 108> -99 43 -11 77<194 194 256 256> 623 78<285 351.5>
VStem: 87 96<485 547 485 551.5> 255 75<-152 -123.5> 394 98<161.5 234>
AnchorPoint: "Anchor-18" 0 0 basechar 0
AnchorPoint: "Anchor-17" 0 0 basechar 0
AnchorPoint: "Anchor-16" 333 689 basechar 0
AnchorPoint: "Anchor-15" 0 0 basechar 0
AnchorPoint: "Anchor-14" 220 -241 basechar 0
LayerCount: 2
Fore
SplineSet
312 398 m 0x7f
 408 368 492 327 492 209 c 0
 492 109 421 2 256 -11 c 1
 248 -56 l 1
 304 -61 330 -95 330 -137 c 0
 330 -193 284 -241 201 -241 c 0xbf
 158 -241 128 -229 108 -214 c 1x7f
 139 -165 l 1
 155 -174 171 -181 201 -181 c 0xbf
 232 -181 255 -166 255 -138 c 0
 255 -109 237 -99 173 -99 c 1
 194 -11 l 1
 108 -5 43 29 -1 80 c 1
 59 136 l 1
 100 91 151 66 224 66 c 0
 326 66 394 119 394 204 c 0
 394 264 362 291 267 324 c 0
 150 365 87 408 87 506 c 0
 87 597 169 701 324 701 c 0
 414 701 476 671 527 618 c 1
 468 563 l 1
 424 607 379 623 324 623 c 0
 246 623 183 583 183 511 c 0
 183 459 211 432 312 398 c 0x7f
EndSplineSet
Validated: 513
Substitution2: "'c2sc' Capitals to Small Capitals lookup 36 subtable" scedilla.sc
Substitution2: "'locl' Localized Forms in Latin lookup 13 subtable" uni0218
Substitution2: "'locl' Localized Forms in Latin lookup 12 subtable" uni0218
AlternateSubs2: "'aalt' Access All Alternates lookup 1 subtable" uni0218 scedilla.sc
Position2: "'cpsp' Capital Spacing lookup 0 subtable" dx=5 dy=0 dh=10 dv=0
EndChar

StartChar: Scircumflex
Encoding: 348 348 148
Width: 539
GlyphClass: 2
Flags: MW
HStem: -12 78<187.5 275 187.5 316.5> 623 78<285 351.5>
VStem: 87 96<485 547 485 551.5> 394 98<161.5 234>
AnchorPoint: "Anchor-18" 0 0 basechar 0
AnchorPoint: "Anchor-17" 460 786 basechar 0
AnchorPoint: "Anchor-16" 360 914 basechar 0
AnchorPoint: "Anchor-15" 0 0 basechar 0
AnchorPoint: "Anchor-14" 227 0 basechar 0
LayerCount: 2
Fore
SplineSet
218 759 m 1
 181 804 l 1
 330 914 l 1
 390 914 l 1
 509 804 l 1
 468 759 l 1
 353 840 l 1
 218 759 l 1
324 701 m 0
 414 701 476 671 527 618 c 1
 468 563 l 1
 424 607 379 623 324 623 c 0
 246 623 183 583 183 511 c 0
 183 459 211 432 312 398 c 0
 408 368 492 327 492 209 c 0
 492 103 411 -12 222 -12 c 0
 121 -12 48 24 -1 80 c 1
 59 136 l 1
 100 91 151 66 224 66 c 0
 326 66 394 119 394 204 c 0
 394 264 362 291 267 324 c 0
 150 365 87 408 87 506 c 0
 87 597 169 701 324 701 c 0
EndSplineSet
Validated: 1
Substitution2: "'c2sc' Capitals to Small Capitals lookup 36 subtable" scircumflex.sc
Substitution2: "'aalt' Access All Alternates lookup 0 subtable" scircumflex.sc
Position2: "'cpsp' Capital Spacing lookup 0 subtable" dx=5 dy=0 dh=10 dv=0
EndChar

StartChar: uni1E60
Encoding: 7776 7776 149
Width: 539
GlyphClass: 2
Flags: MW
HStem: -12 78<187.5 275 187.5 316.5> 623 78<285 351.5> 781 125<343.5 372.5>
VStem: 87 96<485 547 485 551.5> 294 128<829.5 857.5> 394 98<161.5 234>
AnchorPoint: "Anchor-18" 0 0 basechar 0
AnchorPoint: "Anchor-17" 0 0 basechar 0
AnchorPoint: "Anchor-16" 360 906 basechar 0
AnchorPoint: "Anchor-15" 0 0 basechar 0
AnchorPoint: "Anchor-14" 227 0 basechar 0
LayerCount: 2
Fore
SplineSet
353 781 m 0xf8
 317 781 294 806 294 838 c 0
 294 877 324 906 363 906 c 0
 399 906 422 881 422 849 c 0
 422 810 392 781 353 781 c 0xf8
324 701 m 0
 414 701 476 671 527 618 c 1
 468 563 l 1
 424 607 379 623 324 623 c 0
 246 623 183 583 183 511 c 0
 183 459 211 432 312 398 c 0
 408 368 492 327 492 209 c 0
 492 103 411 -12 222 -12 c 0
 121 -12 48 24 -1 80 c 1
 59 136 l 1
 100 91 151 66 224 66 c 0
 326 66 394 119 394 204 c 0xd4
 394 264 362 291 267 324 c 0
 150 365 87 408 87 506 c 0
 87 597 169 701 324 701 c 0
EndSplineSet
Validated: 1
Substitution2: "'c2sc' Capitals to Small Capitals lookup 36 subtable" uni1E61.sc
Substitution2: "'aalt' Access All Alternates lookup 0 subtable" uni1E61.sc
Position2: "'cpsp' Capital Spacing lookup 0 subtable" dx=5 dy=0 dh=10 dv=0
EndChar

StartChar: uni1E62
Encoding: 7778 7778 150
Width: 539
GlyphClass: 2
Flags: MW
HStem: -199 125<194.5 223.5> -12 78<187.5 275 187.5 316.5> 623 78<285 351.5>
VStem: 87 96<485 547 485 551.5> 145 128<-150.5 -122.5> 394 98<161.5 234>
AnchorPoint: "Anchor-18" 0 0 basechar 0
AnchorPoint: "Anchor-17" 0 0 basechar 0
AnchorPoint: "Anchor-16" 333 689 basechar 0
AnchorPoint: "Anchor-15" 0 0 basechar 0
AnchorPoint: "Anchor-14" 207 -199 basechar 0
LayerCount: 2
Fore
SplineSet
324 701 m 0x74
 414 701 476 671 527 618 c 1
 468 563 l 1
 424 607 379 623 324 623 c 0
 246 623 183 583 183 511 c 0
 183 459 211 432 312 398 c 0
 408 368 492 327 492 209 c 0
 492 103 411 -12 222 -12 c 0
 121 -12 48 24 -1 80 c 1
 59 136 l 1
 100 91 151 66 224 66 c 0
 326 66 394 119 394 204 c 0
 394 264 362 291 267 324 c 0
 150 365 87 408 87 506 c 0
 87 597 169 701 324 701 c 0x74
214 -74 m 0xec
 250 -74 273 -99 273 -131 c 0
 273 -170 243 -199 204 -199 c 0
 168 -199 145 -174 145 -142 c 0
 145 -103 175 -74 214 -74 c 0xec
EndSplineSet
Validated: 1
Substitution2: "'c2sc' Capitals to Small Capitals lookup 36 subtable" uni1E63.sc
Substitution2: "'aalt' Access All Alternates lookup 0 subtable" uni1E63.sc
Position2: "'cpsp' Capital Spacing lookup 0 subtable" dx=5 dy=0 dh=10 dv=0
EndChar

StartChar: uni1E9E
Encoding: 7838 7838 151
Width: 649
GlyphClass: 1
Flags: MW
HStem: -12 78<324.5 392.5 324.5 419> 0 21G<62 156 62 62> 623 78<328 396.5>
VStem: 499 98<173.5 256>
LayerCount: 2
Fore
SplineSet
369 701 m 0xb0
 461 701 546 666 611 628 c 1
 606 565 l 1
 409 388 l 1
 531 375 597 316 597 219 c 0
 597 79 492 -12 346 -12 c 0
 294 -12 255 -2 231 12 c 1
 266 78 l 1
 283 71 306 66 343 66 c 0xb0
 442 66 499 130 499 217 c 0
 499 295 431 325 310 325 c 1
 317 400 l 1
 521 591 l 1
 474 611 424 623 369 623 c 0
 287 623 237 576 224 486 c 2
 156 0 l 1
 62 0 l 1x70
 131 492 l 2
 150 626 235 701 369 701 c 0xb0
EndSplineSet
Validated: 1
Substitution2: "'c2sc' Capitals to Small Capitals lookup 36 subtable" germandbls.sc
Substitution2: "'aalt' Access All Alternates lookup 0 subtable" germandbls.sc
Position2: "'cpsp' Capital Spacing lookup 0 subtable" dx=5 dy=0 dh=10 dv=0
EndChar

StartChar: T
Encoding: 84 84 152
Width: 511
GlyphClass: 2
Flags: MW
HStem: 0 21G<171 265 171 171> 608 81<74 256 62 562 350 540 350 350>
VStem: 62 500<608 689>
AnchorPoint: "Anchor-18" 267 345 basechar 0
AnchorPoint: "Anchor-17" 0 0 basechar 0
AnchorPoint: "Anchor-16" 314 689 basechar 0
AnchorPoint: "Anchor-15" 0 0 basechar 0
AnchorPoint: "Anchor-14" 219 0 basechar 0
LayerCount: 2
Fore
SplineSet
562 689 m 1
 540 608 l 1
 350 608 l 1
 265 0 l 1
 171 0 l 1
 256 608 l 1
 62 608 l 1
 74 689 l 1
 562 689 l 1
EndSplineSet
Validated: 1
Substitution2: "'c2sc' Capitals to Small Capitals lookup 36 subtable" t.sc
Substitution2: "'aalt' Access All Alternates lookup 0 subtable" t.sc
Position2: "'cpsp' Capital Spacing lookup 0 subtable" dx=5 dy=0 dh=10 dv=0
EndChar

StartChar: Tbar
Encoding: 358 358 153
Width: 511
GlyphClass: 2
Flags: MW
HStem: 0 21G<171 265 171 171> 319 70<104 216 95 225 319 431> 608 81<74 256 62 562 350 540 350 350>
VStem: 62 500<608 689>
AnchorPoint: "Anchor-18" 267 345 basechar 0
AnchorPoint: "Anchor-17" 0 0 basechar 0
AnchorPoint: "Anchor-16" 314 689 basechar 0
AnchorPoint: "Anchor-15" 0 0 basechar 0
AnchorPoint: "Anchor-14" 219 0 basechar 0
LayerCount: 2
Fore
SplineSet
540 608 m 1
 350 608 l 1
 319 389 l 1
 440 389 l 1
 431 319 l 1
 310 319 l 1
 265 0 l 1
 171 0 l 1
 216 319 l 1
 95 319 l 1
 104 389 l 1
 225 389 l 1
 256 608 l 1
 62 608 l 1
 74 689 l 1
 562 689 l 1
 540 608 l 1
EndSplineSet
Validated: 1
Substitution2: "'c2sc' Capitals to Small Capitals lookup 36 subtable" tbar.sc
Substitution2: "'aalt' Access All Alternates lookup 0 subtable" tbar.sc
Position2: "'cpsp' Capital Spacing lookup 0 subtable" dx=5 dy=0 dh=10 dv=0
EndChar

StartChar: Tcaron
Encoding: 356 356 154
Width: 511
GlyphClass: 2
Flags: MW
HStem: 0 21G<171 265 171 171> 608 81<74 256 62 562 350 540 350 350>
VStem: 62 500<608 689>
AnchorPoint: "Anchor-18" 267 345 basechar 0
AnchorPoint: "Anchor-17" 0 0 basechar 0
AnchorPoint: "Anchor-16" 339 909 basechar 0
AnchorPoint: "Anchor-15" 0 0 basechar 0
AnchorPoint: "Anchor-14" 219 0 basechar 0
LayerCount: 2
Fore
SplineSet
466 909 m 1
 501 864 l 1
 353 754 l 1
 293 754 l 1
 173 864 l 1
 216 909 l 1
 329 828 l 1
 466 909 l 1
562 689 m 1
 540 608 l 1
 350 608 l 1
 265 0 l 1
 171 0 l 1
 256 608 l 1
 62 608 l 1
 74 689 l 1
 562 689 l 1
EndSplineSet
Validated: 1
Substitution2: "'c2sc' Capitals to Small Capitals lookup 36 subtable" tcaron.sc
Substitution2: "'aalt' Access All Alternates lookup 0 subtable" tcaron.sc
Position2: "'cpsp' Capital Spacing lookup 0 subtable" dx=5 dy=0 dh=10 dv=0
EndChar

StartChar: uni0162
Encoding: 354 354 155
Width: 511
GlyphClass: 2
Flags: MW
HStem: -241 60<191 218 191 251.5> -214 21G<116 116> -99 43 0 21G<171 205 171 171 265 265> 608 81<74 256 62 562 350 540 350 350>
VStem: 263 75
AnchorPoint: "Anchor-18" 267 345 basechar 0
AnchorPoint: "Anchor-17" 0 0 basechar 0
AnchorPoint: "Anchor-16" 314 689 basechar 0
AnchorPoint: "Anchor-15" 0 0 basechar 0
AnchorPoint: "Anchor-14" 219 0 basechar 0
LayerCount: 2
Fore
SplineSet
74 689 m 1x7c
 562 689 l 1
 540 608 l 1
 350 608 l 1
 265 0 l 1
 256 -56 l 1
 315 -61 338 -95 338 -132 c 0
 338 -185 298 -241 205 -241 c 0xbc
 166 -241 135 -229 116 -214 c 1x7c
 147 -165 l 1
 162 -175 179 -181 203 -181 c 0xbc
 233 -181 262 -166 263 -138 c 0
 264 -109 245 -99 181 -99 c 1
 205 0 l 1
 171 0 l 1
 256 608 l 1
 62 608 l 1
 74 689 l 1x7c
EndSplineSet
Validated: 545
Substitution2: "'c2sc' Capitals to Small Capitals lookup 36 subtable" uni0163.sc
Substitution2: "'locl' Localized Forms in Latin lookup 13 subtable" uni021A
Substitution2: "'locl' Localized Forms in Latin lookup 12 subtable" uni021A
AlternateSubs2: "'aalt' Access All Alternates lookup 1 subtable" uni021A uni0163.sc
Position2: "'cpsp' Capital Spacing lookup 0 subtable" dx=5 dy=0 dh=10 dv=0
EndChar

StartChar: uni1E70
Encoding: 7792 7792 156
Width: 511
GlyphClass: 2
Flags: MW
HStem: 0 21G<171 265 171 171> 608 81<74 256 62 562 350 540 350 350>
VStem: 29 533
AnchorPoint: "Anchor-18" 267 345 basechar 0
AnchorPoint: "Anchor-17" 0 0 basechar 0
AnchorPoint: "Anchor-16" 314 689 basechar 0
AnchorPoint: "Anchor-15" 0 0 basechar 0
AnchorPoint: "Anchor-14" 190 -226 basechar 0
LayerCount: 2
Fore
SplineSet
562 689 m 1
 540 608 l 1
 350 608 l 1
 265 0 l 1
 171 0 l 1
 256 608 l 1
 62 608 l 1
 74 689 l 1
 562 689 l 1
66 -226 m 1
 29 -181 l 1
 178 -68 l 1
 238 -68 l 1
 357 -181 l 1
 313 -226 l 1
 200 -142 l 1
 66 -226 l 1
EndSplineSet
Validated: 1
Substitution2: "'c2sc' Capitals to Small Capitals lookup 36 subtable" uni1E71.sc
Substitution2: "'aalt' Access All Alternates lookup 0 subtable" uni1E71.sc
Position2: "'cpsp' Capital Spacing lookup 0 subtable" dx=5 dy=0 dh=10 dv=0
EndChar

StartChar: uni1E6A
Encoding: 7786 7786 157
Width: 511
GlyphClass: 2
Flags: MW
HStem: 0 21G<171 265 171 171> 608 81<74 256 62 562 350 540 350 350> 781 125<324.5 353.5>
VStem: 275 128<829.5 857.5>
AnchorPoint: "Anchor-18" 267 345 basechar 0
AnchorPoint: "Anchor-17" 0 0 basechar 0
AnchorPoint: "Anchor-16" 341 906 basechar 0
AnchorPoint: "Anchor-15" 0 0 basechar 0
AnchorPoint: "Anchor-14" 219 0 basechar 0
LayerCount: 2
Fore
SplineSet
334 781 m 0
 298 781 275 806 275 838 c 0
 275 877 305 906 344 906 c 0
 380 906 403 881 403 849 c 0
 403 810 373 781 334 781 c 0
562 689 m 1
 540 608 l 1
 350 608 l 1
 265 0 l 1
 171 0 l 1
 256 608 l 1
 62 608 l 1
 74 689 l 1
 562 689 l 1
EndSplineSet
Validated: 1
Substitution2: "'c2sc' Capitals to Small Capitals lookup 36 subtable" uni1E6B.sc
Substitution2: "'aalt' Access All Alternates lookup 0 subtable" uni1E6B.sc
Position2: "'cpsp' Capital Spacing lookup 0 subtable" dx=5 dy=0 dh=10 dv=0
EndChar

StartChar: uni1E6C
Encoding: 7788 7788 158
Width: 511
GlyphClass: 2
Flags: MW
HStem: -199 125<186.5 215.5> 0 21G<171 265 171 171> 608 81<74 256 62 562 350 540 350 350>
VStem: 137 128<-150.5 -122.5>
AnchorPoint: "Anchor-18" 267 345 basechar 0
AnchorPoint: "Anchor-17" 0 0 basechar 0
AnchorPoint: "Anchor-16" 314 689 basechar 0
AnchorPoint: "Anchor-15" 0 0 basechar 0
AnchorPoint: "Anchor-14" 199 -199 basechar 0
LayerCount: 2
Fore
SplineSet
562 689 m 1
 540 608 l 1
 350 608 l 1
 265 0 l 1
 171 0 l 1
 256 608 l 1
 62 608 l 1
 74 689 l 1
 562 689 l 1
206 -74 m 0
 242 -74 265 -99 265 -131 c 0
 265 -170 235 -199 196 -199 c 0
 160 -199 137 -174 137 -142 c 0
 137 -103 167 -74 206 -74 c 0
EndSplineSet
Validated: 1
Substitution2: "'c2sc' Capitals to Small Capitals lookup 36 subtable" uni1E6D.sc
Substitution2: "'aalt' Access All Alternates lookup 0 subtable" uni1E6D.sc
Position2: "'cpsp' Capital Spacing lookup 0 subtable" dx=5 dy=0 dh=10 dv=0
EndChar

StartChar: uni1E6E
Encoding: 7790 7790 159
Width: 511
GlyphClass: 2
Flags: MW
HStem: -173 69<74 336 65 345> 0 21G<171 265 171 171> 608 81<74 256 62 562 350 540 350 350>
VStem: 62 500<608 689>
AnchorPoint: "Anchor-18" 267 345 basechar 0
AnchorPoint: "Anchor-17" 0 0 basechar 0
AnchorPoint: "Anchor-16" 314 689 basechar 0
AnchorPoint: "Anchor-15" 0 0 basechar 0
AnchorPoint: "Anchor-14" 201 -173 basechar 0
LayerCount: 2
Fore
SplineSet
562 689 m 1
 540 608 l 1
 350 608 l 1
 265 0 l 1
 171 0 l 1
 256 608 l 1
 62 608 l 1
 74 689 l 1
 562 689 l 1
74 -104 m 1
 345 -104 l 1
 336 -173 l 1
 65 -173 l 1
 74 -104 l 1
EndSplineSet
Validated: 1
Substitution2: "'c2sc' Capitals to Small Capitals lookup 36 subtable" uni1E6F.sc
Substitution2: "'aalt' Access All Alternates lookup 0 subtable" uni1E6F.sc
Position2: "'cpsp' Capital Spacing lookup 0 subtable" dx=5 dy=0 dh=10 dv=0
EndChar

StartChar: U
Encoding: 85 85 160
Width: 656
GlyphClass: 2
Flags: MW
HStem: -12 80<248.5 346.5 248.5 368> 669 20G<149 243 243 243 533 627 627 627>
VStem: 80.08 94.78
AnchorPoint: "Anchor-18" 0 0 basechar 0
AnchorPoint: "Anchor-17" 637 689 basechar 0
AnchorPoint: "Anchor-16" 388 689 basechar 0
AnchorPoint: "Anchor-15" 387 0 basechar 0
AnchorPoint: "Anchor-14" 291 0 basechar 0
LayerCount: 2
Fore
SplineSet
627 689 m 1
 561 218 l 2
 542 81 444 -12 292 -12 c 0
 135 -12 64 87 83 224 c 2
 149 689 l 1
 243 689 l 1
 178 225 l 2
 163 118 201 68 296 68 c 0
 397 68 453 124 468 231 c 2
 533 689 l 1
 627 689 l 1
EndSplineSet
Validated: 33
Substitution2: "'c2sc' Capitals to Small Capitals lookup 36 subtable" u.sc
Substitution2: "'aalt' Access All Alternates lookup 0 subtable" u.sc
Position2: "'cpsp' Capital Spacing lookup 0 subtable" dx=5 dy=0 dh=10 dv=0
EndChar

StartChar: Uacute
Encoding: 218 218 161
Width: 656
GlyphClass: 2
Flags: MW
HStem: -12 80<248.5 346.5 248.5 368> 669 20G<149 243 243 243 533 627 627 627>
VStem: 80.08 94.78
AnchorPoint: "Anchor-18" 0 0 basechar 0
AnchorPoint: "Anchor-17" 637 689 basechar 0
AnchorPoint: "Anchor-16" 410 911 basechar 0
AnchorPoint: "Anchor-15" 387 0 basechar 0
AnchorPoint: "Anchor-14" 291 0 basechar 0
LayerCount: 2
Fore
SplineSet
495 908 m 1
 525 831 l 1
 305 755 l 1
 286 804 l 1
 495 908 l 1
627 689 m 1
 561 218 l 2
 542 81 444 -12 292 -12 c 0
 135 -12 64 87 83 224 c 2
 149 689 l 1
 243 689 l 1
 178 225 l 2
 163 118 201 68 296 68 c 0
 397 68 453 124 468 231 c 2
 533 689 l 1
 627 689 l 1
EndSplineSet
Validated: 33
Substitution2: "'c2sc' Capitals to Small Capitals lookup 36 subtable" uacute.sc
Substitution2: "'locl' Localized Forms in Latin lookup 8 subtable" Uacute.loclHUN
AlternateSubs2: "'aalt' Access All Alternates lookup 1 subtable" Uacute.loclHUN uacute.sc
Position2: "'cpsp' Capital Spacing lookup 0 subtable" dx=5 dy=0 dh=10 dv=0
EndChar

StartChar: Ubreve
Encoding: 364 364 162
Width: 656
GlyphClass: 2
Flags: MW
HStem: -12 80<248.5 346.5 248.5 368> 669 20G<149 243 243 243 533 627 627 627> 758 70<377.5 424 377.5 437>
VStem: 80.08 94.78
AnchorPoint: "Anchor-18" 0 0 basechar 0
AnchorPoint: "Anchor-17" 637 689 basechar 0
AnchorPoint: "Anchor-16" 415 896 basechar 0
AnchorPoint: "Anchor-15" 387 0 basechar 0
AnchorPoint: "Anchor-14" 291 0 basechar 0
LayerCount: 2
Fore
SplineSet
398 758 m 0
 317 758 262 810 264 884 c 1
 323 892 l 1
 332 852 355 828 400 828 c 0
 448 828 484 856 503 896 c 1
 563 878 l 1
 545 804 476 758 398 758 c 0
627 689 m 1
 561 218 l 2
 542 81 444 -12 292 -12 c 0
 135 -12 64 87 83 224 c 2
 149 689 l 1
 243 689 l 1
 178 225 l 2
 163 118 201 68 296 68 c 0
 397 68 453 124 468 231 c 2
 533 689 l 1
 627 689 l 1
EndSplineSet
Validated: 33
Substitution2: "'c2sc' Capitals to Small Capitals lookup 36 subtable" ubreve.sc
Substitution2: "'aalt' Access All Alternates lookup 0 subtable" ubreve.sc
Position2: "'cpsp' Capital Spacing lookup 0 subtable" dx=5 dy=0 dh=10 dv=0
EndChar

StartChar: Ucircumflex
Encoding: 219 219 163
Width: 656
GlyphClass: 2
Flags: MW
HStem: -12 80<248.5 346.5 248.5 368> 669 20G<149 243 243 243 533 627 627 627>
VStem: 80.08 94.78
AnchorPoint: "Anchor-18" 0 0 basechar 0
AnchorPoint: "Anchor-17" 515 786 basechar 0
AnchorPoint: "Anchor-16" 415 914 basechar 0
AnchorPoint: "Anchor-15" 387 0 basechar 0
AnchorPoint: "Anchor-14" 291 0 basechar 0
LayerCount: 2
Fore
SplineSet
273 759 m 1
 236 804 l 1
 385 914 l 1
 445 914 l 1
 564 804 l 1
 523 759 l 1
 408 840 l 1
 273 759 l 1
627 689 m 1
 561 218 l 2
 542 81 444 -12 292 -12 c 0
 135 -12 64 87 83 224 c 2
 149 689 l 1
 243 689 l 1
 178 225 l 2
 163 118 201 68 296 68 c 0
 397 68 453 124 468 231 c 2
 533 689 l 1
 627 689 l 1
EndSplineSet
Validated: 33
Substitution2: "'c2sc' Capitals to Small Capitals lookup 36 subtable" ucircumflex.sc
Substitution2: "'aalt' Access All Alternates lookup 0 subtable" ucircumflex.sc
Position2: "'cpsp' Capital Spacing lookup 0 subtable" dx=5 dy=0 dh=10 dv=0
EndChar

StartChar: Udieresis
Encoding: 220 220 164
Width: 656
GlyphClass: 2
Flags: MW
HStem: -12 80<248.5 346.5 248.5 368> 669 20G<149 243 243 243 533 627 627 627> 780 113<294 320 502 528>
VStem: 80.08 94.78 249 116<824 849> 457 116<824 849>
AnchorPoint: "Anchor-18" 0 0 basechar 0
AnchorPoint: "Anchor-17" 637 689 basechar 0
AnchorPoint: "Anchor-16" 411 894 basechar 0
AnchorPoint: "Anchor-15" 387 0 basechar 0
AnchorPoint: "Anchor-14" 291 0 basechar 0
LayerCount: 2
Fore
SplineSet
302 780 m 0
 271 780 249 802 249 831 c 0
 249 867 276 893 312 893 c 0
 343 893 365 871 365 842 c 0
 365 806 338 780 302 780 c 0
510 780 m 0
 479 780 457 802 457 831 c 0
 457 867 484 893 520 893 c 0
 551 893 573 871 573 842 c 0
 573 806 546 780 510 780 c 0
627 689 m 1
 561 218 l 2
 542 81 444 -12 292 -12 c 0
 135 -12 64 87 83 224 c 2
 149 689 l 1
 243 689 l 1
 178 225 l 2
 163 118 201 68 296 68 c 0
 397 68 453 124 468 231 c 2
 533 689 l 1
 627 689 l 1
EndSplineSet
Validated: 33
Substitution2: "'c2sc' Capitals to Small Capitals lookup 36 subtable" udieresis.sc
Substitution2: "'aalt' Access All Alternates lookup 0 subtable" udieresis.sc
Position2: "'cpsp' Capital Spacing lookup 0 subtable" dx=5 dy=0 dh=10 dv=0
EndChar

StartChar: uni1EE4
Encoding: 7908 7908 165
Width: 656
GlyphClass: 2
Flags: MW
HStem: -199 125<258.5 287.5> -12 80<248.5 346.5 248.5 368> 669 20G<149 243 243 243 533 627 627 627>
VStem: 80.08 94.78 209 128<-150.5 -122.5>
AnchorPoint: "Anchor-18" 0 0 basechar 0
AnchorPoint: "Anchor-17" 637 689 basechar 0
AnchorPoint: "Anchor-16" 388 689 basechar 0
AnchorPoint: "Anchor-15" 387 0 basechar 0
AnchorPoint: "Anchor-14" 271 -199 basechar 0
LayerCount: 2
Fore
SplineSet
627 689 m 1
 561 218 l 2
 542 81 444 -12 292 -12 c 0
 135 -12 64 87 83 224 c 2
 149 689 l 1
 243 689 l 1
 178 225 l 2
 163 118 201 68 296 68 c 0
 397 68 453 124 468 231 c 2
 533 689 l 1
 627 689 l 1
278 -74 m 0
 314 -74 337 -99 337 -131 c 0
 337 -170 307 -199 268 -199 c 0
 232 -199 209 -174 209 -142 c 0
 209 -103 239 -74 278 -74 c 0
EndSplineSet
Validated: 33
Substitution2: "'c2sc' Capitals to Small Capitals lookup 36 subtable" uni1EE5.sc
Substitution2: "'aalt' Access All Alternates lookup 0 subtable" uni1EE5.sc
Position2: "'cpsp' Capital Spacing lookup 0 subtable" dx=5 dy=0 dh=10 dv=0
EndChar

StartChar: Ugrave
Encoding: 217 217 166
Width: 656
GlyphClass: 2
Flags: MW
HStem: -12 80<248.5 346.5 248.5 368> 669 20G<149 243 243 243 533 627 627 627>
VStem: 80.08 94.78
AnchorPoint: "Anchor-18" 0 0 basechar 0
AnchorPoint: "Anchor-17" 637 689 basechar 0
AnchorPoint: "Anchor-16" 410 911 basechar 0
AnchorPoint: "Anchor-15" 387 0 basechar 0
AnchorPoint: "Anchor-14" 291 0 basechar 0
LayerCount: 2
Fore
SplineSet
338 907 m 1
 524 803 l 1
 495 754 l 1
 296 830 l 1
 338 907 l 1
627 689 m 1
 561 218 l 2
 542 81 444 -12 292 -12 c 0
 135 -12 64 87 83 224 c 2
 149 689 l 1
 243 689 l 1
 178 225 l 2
 163 118 201 68 296 68 c 0
 397 68 453 124 468 231 c 2
 533 689 l 1
 627 689 l 1
EndSplineSet
Validated: 33
Substitution2: "'c2sc' Capitals to Small Capitals lookup 36 subtable" ugrave.sc
Substitution2: "'aalt' Access All Alternates lookup 0 subtable" ugrave.sc
Position2: "'cpsp' Capital Spacing lookup 0 subtable" dx=5 dy=0 dh=10 dv=0
EndChar

StartChar: uni1EE6
Encoding: 7910 7910 167
Width: 656
GlyphClass: 2
Flags: MW
HStem: -12 80<248.5 346.5 248.5 368> 669 20G<149 243 243 243 533 627 627 627> 763 84<365 374 374 374 374 433> 926 62<414.5 429>
VStem: 80.08 94.78 369.5 67 454 78<880 907.5>
AnchorPoint: "Anchor-18" 0 0 basechar 0
AnchorPoint: "Anchor-17" 637 689 basechar 0
AnchorPoint: "Anchor-16" 434 988 basechar 0
AnchorPoint: "Anchor-15" 387 0 basechar 0
AnchorPoint: "Anchor-14" 291 0 basechar 0
LayerCount: 2
Fore
SplineSet
365 763 m 1
 374 847 l 1
 417 853 454 862 454 898 c 0
 454 917 440 926 418 926 c 0
 395 926 376 920 358 910 c 1
 340 965 l 1
 366 979 395 988 434 988 c 0
 497 988 532 952 532 901 c 0xfe
 532 845 496 820 440 811 c 1
 433 763 l 1
 365 763 l 1
627 689 m 1
 561 218 l 2
 542 81 444 -12 292 -12 c 0
 135 -12 64 87 83 224 c 2
 149 689 l 1
 243 689 l 1
 178 225 l 2
 163 118 201 68 296 68 c 0
 397 68 453 124 468 231 c 2
 533 689 l 1
 627 689 l 1
EndSplineSet
Validated: 33
Substitution2: "'c2sc' Capitals to Small Capitals lookup 36 subtable" uni1EE7.sc
Substitution2: "'aalt' Access All Alternates lookup 0 subtable" uni1EE7.sc
Position2: "'cpsp' Capital Spacing lookup 0 subtable" dx=5 dy=0 dh=10 dv=0
EndChar

StartChar: uni1EE8
Encoding: 7912 7912 168
Width: 666
GlyphClass: 2
Flags: MW
HStem: -12 80<248.5 346.5 248.5 368> 669 20G<149 243 243 243 533 627 627 627>
VStem: 80.08 94.78 673 75<696.5 725.5>
AnchorPoint: "Anchor-18" 0 0 basechar 0
AnchorPoint: "Anchor-17" 689 689 basechar 0
AnchorPoint: "Anchor-16" 410 911 basechar 0
AnchorPoint: "Anchor-15" 387 0 basechar 0
AnchorPoint: "Anchor-14" 291 0 basechar 0
LayerCount: 2
Fore
SplineSet
525 831 m 1
 305 755 l 1
 286 804 l 1
 495 908 l 1
 525 831 l 1
748 715 m 0
 748 634 700 588 612 583 c 1
 561 218 l 2
 542 81 444 -12 292 -12 c 0
 135 -12 64 87 83 224 c 2
 149 689 l 1
 243 689 l 1
 178 225 l 2
 163 118 201 68 296 68 c 0
 397 68 453 124 468 231 c 2
 533 689 l 1
 627 689 l 1
 620 641 l 1
 657 649 673 676 673 717 c 0
 673 734 670 747 667 760 c 1
 739 771 l 1
 744 757 748 738 748 715 c 0
EndSplineSet
Validated: 33
Substitution2: "'c2sc' Capitals to Small Capitals lookup 36 subtable" uni1EE9.sc
Substitution2: "'aalt' Access All Alternates lookup 0 subtable" uni1EE9.sc
Position2: "'cpsp' Capital Spacing lookup 0 subtable" dx=5 dy=0 dh=10 dv=0
EndChar

StartChar: uni1EF0
Encoding: 7920 7920 169
Width: 666
GlyphClass: 2
Flags: MW
HStem: -199 125<258.5 287.5> -12 80<248.5 346.5 248.5 368> 669 20G<149 243 243 243 533 627 627 627>
VStem: 80.08 94.78 209 128<-150.5 -122.5> 673 75<696.5 725.5>
AnchorPoint: "Anchor-18" 0 0 basechar 0
AnchorPoint: "Anchor-17" 689 689 basechar 0
AnchorPoint: "Anchor-16" 388 689 basechar 0
AnchorPoint: "Anchor-15" 387 0 basechar 0
AnchorPoint: "Anchor-14" 271 -199 basechar 0
LayerCount: 2
Fore
SplineSet
748 715 m 0
 748 634 700 588 612 583 c 1
 561 218 l 2
 542 81 444 -12 292 -12 c 0
 135 -12 64 87 83 224 c 2
 149 689 l 1
 243 689 l 1
 178 225 l 2
 163 118 201 68 296 68 c 0
 397 68 453 124 468 231 c 2
 533 689 l 1
 627 689 l 1
 620 641 l 1
 657 649 673 676 673 717 c 0
 673 734 670 747 667 760 c 1
 739 771 l 1
 744 757 748 738 748 715 c 0
278 -74 m 0
 314 -74 337 -99 337 -131 c 0
 337 -170 307 -199 268 -199 c 0
 232 -199 209 -174 209 -142 c 0
 209 -103 239 -74 278 -74 c 0
EndSplineSet
Validated: 33
Substitution2: "'c2sc' Capitals to Small Capitals lookup 36 subtable" uni1EF1.sc
Substitution2: "'aalt' Access All Alternates lookup 0 subtable" uni1EF1.sc
Position2: "'cpsp' Capital Spacing lookup 0 subtable" dx=5 dy=0 dh=10 dv=0
EndChar

StartChar: uni1EEA
Encoding: 7914 7914 170
Width: 666
GlyphClass: 2
Flags: MW
HStem: -12 80<248.5 346.5 248.5 368> 669 20G<149 243 243 243 533 627 627 627>
VStem: 80.08 94.78 673 75<696.5 725.5>
AnchorPoint: "Anchor-18" 0 0 basechar 0
AnchorPoint: "Anchor-17" 689 689 basechar 0
AnchorPoint: "Anchor-16" 410 911 basechar 0
AnchorPoint: "Anchor-15" 387 0 basechar 0
AnchorPoint: "Anchor-14" 291 0 basechar 0
LayerCount: 2
Fore
SplineSet
524 803 m 1
 495 754 l 1
 296 830 l 1
 338 907 l 1
 524 803 l 1
748 715 m 0
 748 634 700 588 612 583 c 1
 561 218 l 2
 542 81 444 -12 292 -12 c 0
 135 -12 64 87 83 224 c 2
 149 689 l 1
 243 689 l 1
 178 225 l 2
 163 118 201 68 296 68 c 0
 397 68 453 124 468 231 c 2
 533 689 l 1
 627 689 l 1
 620 641 l 1
 657 649 673 676 673 717 c 0
 673 734 670 747 667 760 c 1
 739 771 l 1
 744 757 748 738 748 715 c 0
EndSplineSet
Validated: 33
Substitution2: "'c2sc' Capitals to Small Capitals lookup 36 subtable" uni1EEB.sc
Substitution2: "'aalt' Access All Alternates lookup 0 subtable" uni1EEB.sc
Position2: "'cpsp' Capital Spacing lookup 0 subtable" dx=5 dy=0 dh=10 dv=0
EndChar

StartChar: uni1EEC
Encoding: 7916 7916 171
Width: 666
GlyphClass: 2
Flags: MW
HStem: -12 80<248.5 346.5 248.5 368> 669 20G<149 243 243 243 533 627 627 627> 763 84<374 374 374 433 365 374> 926 62<414.5 429>
VStem: 80.08 94.78 369.5 67 454 78<880 907.5> 673 75<696.5 725.5>
AnchorPoint: "Anchor-18" 0 0 basechar 0
AnchorPoint: "Anchor-17" 689 689 basechar 0
AnchorPoint: "Anchor-16" 434 988 basechar 0
AnchorPoint: "Anchor-15" 387 0 basechar 0
AnchorPoint: "Anchor-14" 291 0 basechar 0
LayerCount: 2
Fore
SplineSet
418 926 m 0
 395 926 376 920 358 910 c 1
 340 965 l 1
 366 979 395 988 434 988 c 0
 497 988 532 952 532 901 c 0xfa
 532 845 496 820 440 811 c 1
 433 763 l 1
 365 763 l 1xfe
 374 847 l 1
 417 853 454 862 454 898 c 0
 454 917 440 926 418 926 c 0
748 715 m 0xfb
 748 634 700 588 612 583 c 1
 561 218 l 2
 542 81 444 -12 292 -12 c 0
 135 -12 64 87 83 224 c 2
 149 689 l 1
 243 689 l 1
 178 225 l 2
 163 118 201 68 296 68 c 0
 397 68 453 124 468 231 c 2
 533 689 l 1
 627 689 l 1
 620 641 l 1
 657 649 673 676 673 717 c 0
 673 734 670 747 667 760 c 1
 739 771 l 1
 744 757 748 738 748 715 c 0xfb
EndSplineSet
Validated: 33
Substitution2: "'c2sc' Capitals to Small Capitals lookup 36 subtable" uni1EED.sc
Substitution2: "'aalt' Access All Alternates lookup 0 subtable" uni1EED.sc
Position2: "'cpsp' Capital Spacing lookup 0 subtable" dx=5 dy=0 dh=10 dv=0
EndChar

StartChar: uni1EEE
Encoding: 7918 7918 172
Width: 666
GlyphClass: 2
Flags: MW
HStem: -12 80<248.5 346.5 248.5 368> 669 20G<149 243 243 243 533 627 627 627> 782 70<448 475 448 485.5> 830 70<342.5 370.5>
VStem: 80.08 94.78 673 75<696.5 725.5>
AnchorPoint: "Anchor-18" 0 0 basechar 0
AnchorPoint: "Anchor-17" 689 689 basechar 0
AnchorPoint: "Anchor-16" 412 900 basechar 0
AnchorPoint: "Anchor-15" 387 0 basechar 0
AnchorPoint: "Anchor-14" 291 0 basechar 0
LayerCount: 2
Fore
SplineSet
355 830 m 0xd8
 330 830 312 812 292 782 c 1
 240 814 l 1
 270 863 309 900 357 900 c 0xd8
 414 900 432 852 464 852 c 0
 486 852 504 868 525 898 c 1
 579 866 l 1
 545 809 505 782 466 782 c 0xe8
 407 782 386 830 355 830 c 0xd8
748 715 m 0xdc
 748 634 700 588 612 583 c 1
 561 218 l 2
 542 81 444 -12 292 -12 c 0
 135 -12 64 87 83 224 c 2
 149 689 l 1
 243 689 l 1
 178 225 l 2
 163 118 201 68 296 68 c 0
 397 68 453 124 468 231 c 2
 533 689 l 1
 627 689 l 1
 620 641 l 1
 657 649 673 676 673 717 c 0
 673 734 670 747 667 760 c 1
 739 771 l 1
 744 757 748 738 748 715 c 0xdc
EndSplineSet
Validated: 33
Substitution2: "'c2sc' Capitals to Small Capitals lookup 36 subtable" uni1EEF.sc
Substitution2: "'aalt' Access All Alternates lookup 0 subtable" uni1EEF.sc
Position2: "'cpsp' Capital Spacing lookup 0 subtable" dx=5 dy=0 dh=10 dv=0
EndChar

StartChar: Uhungarumlaut
Encoding: 368 368 173
Width: 656
GlyphClass: 2
Flags: MW
HStem: -12 80<248.5 346.5 248.5 368> 669 20G<149 243 243 243 533 627 627 627>
VStem: 80.08 94.78
AnchorPoint: "Anchor-18" 0 0 basechar 0
AnchorPoint: "Anchor-17" 637 689 basechar 0
AnchorPoint: "Anchor-16" 388 689 basechar 0
AnchorPoint: "Anchor-15" 387 0 basechar 0
AnchorPoint: "Anchor-14" 291 0 basechar 0
LayerCount: 2
Fore
SplineSet
417 926 m 1
 478 882 l 1
 333 734 l 1
 291 762 l 1
 417 926 l 1
564 916 m 1
 623 869 l 1
 470 729 l 1
 430 759 l 1
 564 916 l 1
627 689 m 1
 561 218 l 2
 542 81 444 -12 292 -12 c 0
 135 -12 64 87 83 224 c 2
 149 689 l 1
 243 689 l 1
 178 225 l 2
 163 118 201 68 296 68 c 0
 397 68 453 124 468 231 c 2
 533 689 l 1
 627 689 l 1
EndSplineSet
Validated: 33
Substitution2: "'c2sc' Capitals to Small Capitals lookup 36 subtable" uhungarumlaut.sc
Substitution2: "'aalt' Access All Alternates lookup 0 subtable" uhungarumlaut.sc
Position2: "'cpsp' Capital Spacing lookup 0 subtable" dx=5 dy=0 dh=10 dv=0
EndChar

StartChar: Umacron
Encoding: 362 362 174
Width: 656
GlyphClass: 2
Flags: MW
HStem: -12 80<248.5 346.5 248.5 368> 669 20G<149 243 243 243 533 627 627 627> 793 69<278 540 269 549>
VStem: 80.08 94.78
AnchorPoint: "Anchor-18" 0 0 basechar 0
AnchorPoint: "Anchor-17" 637 689 basechar 0
AnchorPoint: "Anchor-16" 409 862 basechar 0
AnchorPoint: "Anchor-15" 387 0 basechar 0
AnchorPoint: "Anchor-14" 291 0 basechar 0
LayerCount: 2
Fore
SplineSet
540 793 m 1
 269 793 l 1
 278 862 l 1
 549 862 l 1
 540 793 l 1
627 689 m 1
 561 218 l 2
 542 81 444 -12 292 -12 c 0
 135 -12 64 87 83 224 c 2
 149 689 l 1
 243 689 l 1
 178 225 l 2
 163 118 201 68 296 68 c 0
 397 68 453 124 468 231 c 2
 533 689 l 1
 627 689 l 1
EndSplineSet
Validated: 33
Substitution2: "'c2sc' Capitals to Small Capitals lookup 36 subtable" umacron.sc
Substitution2: "'aalt' Access All Alternates lookup 0 subtable" umacron.sc
Position2: "'cpsp' Capital Spacing lookup 0 subtable" dx=5 dy=0 dh=10 dv=0
EndChar

StartChar: Uogonek
Encoding: 370 370 175
Width: 656
GlyphClass: 2
Flags: MW
HStem: -232 70<289.5 312> -11 79 669 20G<149 243 243 243 533 627 627 627>
VStem: 80.03 94.83 174 80<-129 -105.5>
AnchorPoint: "Anchor-18" 0 0 basechar 0
AnchorPoint: "Anchor-17" 637 689 basechar 0
AnchorPoint: "Anchor-16" 388 689 basechar 0
AnchorPoint: "Anchor-15" 387 0 basechar 0
AnchorPoint: "Anchor-14" 291 0 basechar 0
LayerCount: 2
Fore
SplineSet
533 689 m 1xf0
 627 689 l 1
 561 218 l 2
 546 106 478 24 371 -3 c 1
 274 -45 254 -79 254 -114 c 0
 254 -144 269 -162 310 -162 c 0
 331 -162 347 -160 371 -155 c 1
 362 -225 l 1
 342 -229 325 -232 299 -232 c 0
 222 -232 174 -189 174 -131 c 0xe8
 174 -80 207 -39 270 -11 c 1
 128 -2 65 94 83 224 c 2
 149 689 l 1
 243 689 l 1
 178 225 l 2
 163 118 201 68 296 68 c 0
 397 68 453 124 468 231 c 2
 533 689 l 1xf0
EndSplineSet
Validated: 33
Substitution2: "'c2sc' Capitals to Small Capitals lookup 36 subtable" uogonek.sc
Substitution2: "'aalt' Access All Alternates lookup 0 subtable" uogonek.sc
Position2: "'cpsp' Capital Spacing lookup 0 subtable" dx=5 dy=0 dh=10 dv=0
EndChar

StartChar: Uring
Encoding: 366 366 176
Width: 656
GlyphClass: 2
Flags: MW
HStem: -12 80<248.5 346.5 248.5 368> 669 20G<149 243 243 243 533 627 627 627> 750 50<390.5 425.5 390.5 437.5> 912 50<402 436>
VStem: 80.08 94.78 300 61<832.5 864 832.5 878> 467 60<850 881>
AnchorPoint: "Anchor-18" 0 0 basechar 0
AnchorPoint: "Anchor-17" 637 689 basechar 0
AnchorPoint: "Anchor-16" 422 962 basechar 0
AnchorPoint: "Anchor-15" 387 0 basechar 0
AnchorPoint: "Anchor-14" 291 0 basechar 0
LayerCount: 2
Fore
SplineSet
424 962 m 0
 486 962 527 920 527 866 c 0
 527 802 472 750 403 750 c 0
 341 750 300 792 300 846 c 0
 300 910 355 962 424 962 c 0
422 912 m 0
 382 912 361 881 361 847 c 0
 361 818 376 800 405 800 c 0
 446 800 467 834 467 866 c 0
 467 896 450 912 422 912 c 0
627 689 m 1
 561 218 l 2
 542 81 444 -12 292 -12 c 0
 135 -12 64 87 83 224 c 2
 149 689 l 1
 243 689 l 1
 178 225 l 2
 163 118 201 68 296 68 c 0
 397 68 453 124 468 231 c 2
 533 689 l 1
 627 689 l 1
EndSplineSet
Validated: 33
Substitution2: "'c2sc' Capitals to Small Capitals lookup 36 subtable" uring.sc
Substitution2: "'aalt' Access All Alternates lookup 0 subtable" uring.sc
Position2: "'cpsp' Capital Spacing lookup 0 subtable" dx=5 dy=0 dh=10 dv=0
EndChar

StartChar: Utilde
Encoding: 360 360 177
Width: 656
GlyphClass: 2
Flags: MW
HStem: -12 80<248.5 346.5 248.5 368> 669 20G<149 243 243 243 533 627 627 627> 782 70<448 475 448 485.5> 830 70<342.5 370.5>
VStem: 80.08 94.78
AnchorPoint: "Anchor-18" 0 0 basechar 0
AnchorPoint: "Anchor-17" 637 689 basechar 0
AnchorPoint: "Anchor-16" 412 900 basechar 0
AnchorPoint: "Anchor-15" 387 0 basechar 0
AnchorPoint: "Anchor-14" 291 0 basechar 0
LayerCount: 2
Fore
SplineSet
466 782 m 0xe8
 407 782 386 830 355 830 c 0
 330 830 312 812 292 782 c 1
 240 814 l 1
 270 863 309 900 357 900 c 0xd8
 414 900 432 852 464 852 c 0
 486 852 504 868 525 898 c 1
 579 866 l 1
 545 809 505 782 466 782 c 0xe8
627 689 m 1xd8
 561 218 l 2
 542 81 444 -12 292 -12 c 0
 135 -12 64 87 83 224 c 2
 149 689 l 1
 243 689 l 1
 178 225 l 2
 163 118 201 68 296 68 c 0
 397 68 453 124 468 231 c 2
 533 689 l 1
 627 689 l 1xd8
EndSplineSet
Validated: 33
Substitution2: "'c2sc' Capitals to Small Capitals lookup 36 subtable" utilde.sc
Substitution2: "'aalt' Access All Alternates lookup 0 subtable" utilde.sc
Position2: "'cpsp' Capital Spacing lookup 0 subtable" dx=5 dy=0 dh=10 dv=0
EndChar

StartChar: uni1E78
Encoding: 7800 7800 178
Width: 656
GlyphClass: 2
Flags: MW
HStem: -12 80<248.5 346.5 248.5 368> 669 20G<149 243 243 243 533 627 627 627> 758 70<449 476 449 486.5> 806 70<343.5 371.5>
VStem: 80.08 94.78
AnchorPoint: "Anchor-18" 0 0 basechar 0
AnchorPoint: "Anchor-17" 637 689 basechar 0
AnchorPoint: "Anchor-16" 428 1058 basechar 0
AnchorPoint: "Anchor-15" 387 0 basechar 0
AnchorPoint: "Anchor-14" 291 0 basechar 0
LayerCount: 2
Fore
SplineSet
513 1055 m 1xd8
 543 978 l 1
 323 902 l 1
 304 951 l 1
 513 1055 l 1xd8
467 758 m 0xe8
 408 758 387 806 356 806 c 0
 331 806 313 788 293 758 c 1
 241 790 l 1
 271 839 310 876 358 876 c 0xd8
 415 876 433 828 465 828 c 0
 487 828 505 844 526 874 c 1
 580 842 l 1
 546 785 506 758 467 758 c 0xe8
627 689 m 1xd8
 561 218 l 2
 542 81 444 -12 292 -12 c 0
 135 -12 64 87 83 224 c 2
 149 689 l 1
 243 689 l 1
 178 225 l 2
 163 118 201 68 296 68 c 0
 397 68 453 124 468 231 c 2
 533 689 l 1
 627 689 l 1xd8
EndSplineSet
Validated: 33
Substitution2: "'c2sc' Capitals to Small Capitals lookup 36 subtable" uni1E79.sc
Substitution2: "'aalt' Access All Alternates lookup 0 subtable" uni1E79.sc
Position2: "'cpsp' Capital Spacing lookup 0 subtable" dx=5 dy=0 dh=10 dv=0
EndChar

StartChar: V
Encoding: 86 86 179
Width: 550
GlyphClass: 2
Flags: MW
HStem: 0 21G<188 289 188 188> 0 103<251 251 251 289 188 251> 669 20G<65 163 163 163 506 604 604 604>
VStem: 65 539<689 689>
AnchorPoint: "Anchor-18" 0 0 basechar 0
AnchorPoint: "Anchor-17" 0 0 basechar 0
AnchorPoint: "Anchor-16" 335 689 basechar 0
AnchorPoint: "Anchor-15" 0 0 basechar 0
AnchorPoint: "Anchor-14" 238 0 basechar 0
LayerCount: 2
Fore
SplineSet
604 689 m 1xb0
 289 0 l 1
 188 0 l 1
 65 689 l 1
 163 689 l 1
 251 103 l 1x70
 506 689 l 1
 604 689 l 1xb0
EndSplineSet
Validated: 1
Substitution2: "'c2sc' Capitals to Small Capitals lookup 36 subtable" v.sc
Substitution2: "'aalt' Access All Alternates lookup 0 subtable" v.sc
Position2: "'cpsp' Capital Spacing lookup 0 subtable" dx=5 dy=0 dh=10 dv=0
EndChar

StartChar: W
Encoding: 87 87 180
Width: 820
GlyphClass: 2
Flags: MW
HStem: 0 83<200 200 200 246 128 200> 577 112<454 454> 669 20G<86 176 176 176 417 519 519 519 768 855 855 855>
VStem: 86 769<689 689>
AnchorPoint: "Anchor-18" 0 0 basechar 0
AnchorPoint: "Anchor-17" 0 0 basechar 0
AnchorPoint: "Anchor-16" 470 689 basechar 0
AnchorPoint: "Anchor-15" 0 0 basechar 0
AnchorPoint: "Anchor-14" 373 0 basechar 0
LayerCount: 2
Fore
SplineSet
855 689 m 1xb0
 619 0 l 1
 498 0 l 1
 454 577 l 1xd0
 246 0 l 1
 128 0 l 1
 86 689 l 1
 176 689 l 1
 200 83 l 1
 417 689 l 1
 519 689 l 1
 568 83 l 1
 768 689 l 1
 855 689 l 1xb0
EndSplineSet
Validated: 1
Substitution2: "'c2sc' Capitals to Small Capitals lookup 36 subtable" w.sc
Substitution2: "'aalt' Access All Alternates lookup 0 subtable" w.sc
Position2: "'cpsp' Capital Spacing lookup 0 subtable" dx=5 dy=0 dh=10 dv=0
EndChar

StartChar: Wacute
Encoding: 7810 7810 181
Width: 820
GlyphClass: 2
Flags: MW
HStem: 0 83<200 200 200 246 128 200> 577 112<454 454> 669 20G<86 176 176 176 417 519 519 519 768 855 855 855>
VStem: 86 769<689 689>
AnchorPoint: "Anchor-18" 0 0 basechar 0
AnchorPoint: "Anchor-17" 0 0 basechar 0
AnchorPoint: "Anchor-16" 492 911 basechar 0
AnchorPoint: "Anchor-15" 0 0 basechar 0
AnchorPoint: "Anchor-14" 373 0 basechar 0
LayerCount: 2
Fore
SplineSet
577 908 m 1xb0
 607 831 l 1
 387 755 l 1
 368 804 l 1
 577 908 l 1xb0
855 689 m 1
 619 0 l 1
 498 0 l 1
 454 577 l 1xd0
 246 0 l 1
 128 0 l 1
 86 689 l 1
 176 689 l 1
 200 83 l 1
 417 689 l 1
 519 689 l 1
 568 83 l 1
 768 689 l 1
 855 689 l 1
EndSplineSet
Validated: 1
Substitution2: "'c2sc' Capitals to Small Capitals lookup 36 subtable" wacute.sc
Substitution2: "'aalt' Access All Alternates lookup 0 subtable" wacute.sc
Position2: "'cpsp' Capital Spacing lookup 0 subtable" dx=5 dy=0 dh=10 dv=0
EndChar

StartChar: Wcircumflex
Encoding: 372 372 182
Width: 820
GlyphClass: 2
Flags: MW
HStem: 0 83<200 200 200 246 128 200> 577 112<454 454> 669 20G<86 176 176 176 417 519 519 519 768 855 855 855>
VStem: 86 769<689 689>
AnchorPoint: "Anchor-18" 0 0 basechar 0
AnchorPoint: "Anchor-17" 597 786 basechar 0
AnchorPoint: "Anchor-16" 497 914 basechar 0
AnchorPoint: "Anchor-15" 0 0 basechar 0
AnchorPoint: "Anchor-14" 373 0 basechar 0
LayerCount: 2
Fore
SplineSet
355 759 m 1xb0
 318 804 l 1
 467 914 l 1
 527 914 l 1
 646 804 l 1
 605 759 l 1
 490 840 l 1
 355 759 l 1xb0
855 689 m 1
 619 0 l 1
 498 0 l 1
 454 577 l 1xd0
 246 0 l 1
 128 0 l 1
 86 689 l 1
 176 689 l 1
 200 83 l 1
 417 689 l 1
 519 689 l 1
 568 83 l 1
 768 689 l 1
 855 689 l 1
EndSplineSet
Validated: 1
Substitution2: "'c2sc' Capitals to Small Capitals lookup 36 subtable" wcircumflex.sc
Substitution2: "'aalt' Access All Alternates lookup 0 subtable" wcircumflex.sc
Position2: "'cpsp' Capital Spacing lookup 0 subtable" dx=5 dy=0 dh=10 dv=0
EndChar

StartChar: Wdieresis
Encoding: 7812 7812 183
Width: 820
GlyphClass: 2
Flags: MW
HStem: 0 83<200 200 200 246 128 200> 577 112<454 454> 669 20G<86 176 176 176 417 519 519 519 768 855 855 855> 780 113<376 402 584 610>
VStem: 331 116<824 849> 539 116<824 849>
AnchorPoint: "Anchor-18" 0 0 basechar 0
AnchorPoint: "Anchor-17" 0 0 basechar 0
AnchorPoint: "Anchor-16" 493 894 basechar 0
AnchorPoint: "Anchor-15" 0 0 basechar 0
AnchorPoint: "Anchor-14" 373 0 basechar 0
LayerCount: 2
Fore
SplineSet
384 780 m 0xbc
 353 780 331 802 331 831 c 0
 331 867 358 893 394 893 c 0
 425 893 447 871 447 842 c 0
 447 806 420 780 384 780 c 0xbc
592 780 m 0
 561 780 539 802 539 831 c 0
 539 867 566 893 602 893 c 0
 633 893 655 871 655 842 c 0
 655 806 628 780 592 780 c 0
855 689 m 1
 619 0 l 1
 498 0 l 1
 454 577 l 1xdc
 246 0 l 1
 128 0 l 1
 86 689 l 1
 176 689 l 1
 200 83 l 1
 417 689 l 1
 519 689 l 1
 568 83 l 1
 768 689 l 1
 855 689 l 1
EndSplineSet
Validated: 1
Substitution2: "'c2sc' Capitals to Small Capitals lookup 36 subtable" wdieresis.sc
Substitution2: "'aalt' Access All Alternates lookup 0 subtable" wdieresis.sc
Position2: "'cpsp' Capital Spacing lookup 0 subtable" dx=5 dy=0 dh=10 dv=0
EndChar

StartChar: Wgrave
Encoding: 7808 7808 184
Width: 820
GlyphClass: 2
Flags: MW
HStem: 0 83<200 200 200 246 128 200> 577 112<454 454> 669 20G<86 176 176 176 417 519 519 519 768 855 855 855>
VStem: 86 769<689 689>
AnchorPoint: "Anchor-18" 0 0 basechar 0
AnchorPoint: "Anchor-17" 0 0 basechar 0
AnchorPoint: "Anchor-16" 492 911 basechar 0
AnchorPoint: "Anchor-15" 0 0 basechar 0
AnchorPoint: "Anchor-14" 373 0 basechar 0
LayerCount: 2
Fore
SplineSet
420 907 m 1xb0
 606 803 l 1
 577 754 l 1
 378 830 l 1
 420 907 l 1xb0
855 689 m 1
 619 0 l 1
 498 0 l 1
 454 577 l 1xd0
 246 0 l 1
 128 0 l 1
 86 689 l 1
 176 689 l 1
 200 83 l 1
 417 689 l 1
 519 689 l 1
 568 83 l 1
 768 689 l 1
 855 689 l 1
EndSplineSet
Validated: 1
Substitution2: "'c2sc' Capitals to Small Capitals lookup 36 subtable" wgrave.sc
Substitution2: "'aalt' Access All Alternates lookup 0 subtable" wgrave.sc
Position2: "'cpsp' Capital Spacing lookup 0 subtable" dx=5 dy=0 dh=10 dv=0
EndChar

StartChar: X
Encoding: 88 88 185
Width: 534
GlyphClass: 2
Flags: MW
HStem: 0 21G<-33 72 -33 -33 389 492 389 389> 669 20G<83 186 186 186 463 567 567 567>
VStem: -33 600
AnchorPoint: "Anchor-18" 0 0 basechar 0
AnchorPoint: "Anchor-17" 0 0 basechar 0
AnchorPoint: "Anchor-16" 327 689 basechar 0
AnchorPoint: "Anchor-15" 0 0 basechar 0
AnchorPoint: "Anchor-14" 230 0 basechar 0
LayerCount: 2
Fore
SplineSet
567 689 m 1
 335 371 l 1
 492 0 l 1
 389 0 l 1
 275 304 l 1
 72 0 l 1
 -33 0 l 1
 225 367 l 1
 83 689 l 1
 186 689 l 1
 285 430 l 1
 463 689 l 1
 567 689 l 1
EndSplineSet
Validated: 1
Substitution2: "'c2sc' Capitals to Small Capitals lookup 36 subtable" x.sc
Substitution2: "'aalt' Access All Alternates lookup 0 subtable" x.sc
Position2: "'cpsp' Capital Spacing lookup 0 subtable" dx=5 dy=0 dh=10 dv=0
EndChar

StartChar: Y
Encoding: 89 89 186
Width: 544
GlyphClass: 2
Flags: MW
HStem: 0 21G<187 283 187 187> 669 20G<65 164 164 164 497 600 600 600>
VStem: 65 535<689 689>
AnchorPoint: "Anchor-18" 0 0 basechar 0
AnchorPoint: "Anchor-17" 0 0 basechar 0
AnchorPoint: "Anchor-16" 335 689 basechar 0
AnchorPoint: "Anchor-15" 0 0 basechar 0
AnchorPoint: "Anchor-14" 235 0 basechar 0
LayerCount: 2
Fore
SplineSet
600 689 m 1
 320 265 l 1
 283 0 l 1
 187 0 l 1
 225 264 l 1
 65 689 l 1
 164 689 l 1
 282 348 l 1
 497 689 l 1
 600 689 l 1
EndSplineSet
Validated: 1
Substitution2: "'c2sc' Capitals to Small Capitals lookup 36 subtable" y.sc
Substitution2: "'aalt' Access All Alternates lookup 0 subtable" y.sc
Position2: "'cpsp' Capital Spacing lookup 0 subtable" dx=5 dy=0 dh=10 dv=0
EndChar

StartChar: Yacute
Encoding: 221 221 187
Width: 544
GlyphClass: 2
Flags: MW
HStem: 0 21G<187 283 187 187> 669 20G<65 164 164 164 497 600 600 600>
VStem: 65 535<689 689>
AnchorPoint: "Anchor-18" 0 0 basechar 0
AnchorPoint: "Anchor-17" 0 0 basechar 0
AnchorPoint: "Anchor-16" 357 911 basechar 0
AnchorPoint: "Anchor-15" 0 0 basechar 0
AnchorPoint: "Anchor-14" 235 0 basechar 0
LayerCount: 2
Fore
SplineSet
442 908 m 1
 472 831 l 1
 252 755 l 1
 233 804 l 1
 442 908 l 1
600 689 m 1
 320 265 l 1
 283 0 l 1
 187 0 l 1
 225 264 l 1
 65 689 l 1
 164 689 l 1
 282 348 l 1
 497 689 l 1
 600 689 l 1
EndSplineSet
Validated: 1
Substitution2: "'c2sc' Capitals to Small Capitals lookup 36 subtable" yacute.sc
Substitution2: "'aalt' Access All Alternates lookup 0 subtable" yacute.sc
Position2: "'cpsp' Capital Spacing lookup 0 subtable" dx=5 dy=0 dh=10 dv=0
EndChar

StartChar: Ycircumflex
Encoding: 374 374 188
Width: 544
GlyphClass: 2
Flags: MW
HStem: 0 21G<187 283 187 187> 669 20G<65 164 164 164 497 600 600 600>
VStem: 65 535<689 689>
AnchorPoint: "Anchor-18" 0 0 basechar 0
AnchorPoint: "Anchor-17" 462 786 basechar 0
AnchorPoint: "Anchor-16" 362 914 basechar 0
AnchorPoint: "Anchor-15" 0 0 basechar 0
AnchorPoint: "Anchor-14" 235 0 basechar 0
LayerCount: 2
Fore
SplineSet
220 759 m 1
 183 804 l 1
 332 914 l 1
 392 914 l 1
 511 804 l 1
 470 759 l 1
 355 840 l 1
 220 759 l 1
600 689 m 1
 320 265 l 1
 283 0 l 1
 187 0 l 1
 225 264 l 1
 65 689 l 1
 164 689 l 1
 282 348 l 1
 497 689 l 1
 600 689 l 1
EndSplineSet
Validated: 1
Substitution2: "'c2sc' Capitals to Small Capitals lookup 36 subtable" ycircumflex.sc
Substitution2: "'aalt' Access All Alternates lookup 0 subtable" ycircumflex.sc
Position2: "'cpsp' Capital Spacing lookup 0 subtable" dx=5 dy=0 dh=10 dv=0
EndChar

